<?xml version="1.0" encoding="UTF-8"?>
<svg version="1.1" xmlns="http://www.w3.org/2000/svg" width="250" height="250">
<path d="M0 0 C7.71169151 6.0735366 9.48326653 15.11203485 10.76171875 24.47265625 C11.61540995 36.32189013 9.66332776 49.01729867 6.94921875 60.53515625 C6.61134287 62.20090797 6.27697238 63.86738335 5.94921875 65.53515625 C6.89796875 66.13328125 7.84671875 66.73140625 8.82421875 67.34765625 C12.65663229 70.03034573 13.74979112 71.50175855 14.63671875 76.09765625 C14.94921875 79.53515625 14.94921875 79.53515625 13.94921875 81.53515625 C1.12416572 81.55864116 -11.70088194 81.57625099 -24.52595234 81.58696842 C-30.48532703 81.59212007 -36.44468669 81.59907149 -42.40405273 81.6105957 C-69.63781535 81.66191453 -96.83423061 81.58195342 -124.05078125 80.53515625 C-124.86976391 78.32904059 -125.68105668 76.12057285 -126.48828125 73.91015625 C-126.94074219 72.68039063 -127.39320312 71.450625 -127.859375 70.18359375 C-129.77550596 64.31583533 -130.1942481 58.86247466 -130.1484375 52.73046875 C-130.14702255 52.00648895 -130.1456076 51.28250916 -130.14414978 50.53659058 C-130.138592 48.24440218 -130.12604758 45.95231468 -130.11328125 43.66015625 C-130.10826078 42.09765767 -130.10369884 40.53515754 -130.09960938 38.97265625 C-130.08863644 35.1601179 -130.07140135 31.34765413 -130.05078125 27.53515625 C-128.8390625 27.08914062 -127.62734375 26.643125 -126.37890625 26.18359375 C-123.12156878 24.96173409 -119.95247384 23.63689271 -116.80078125 22.16015625 C-112.79845809 20.32320681 -108.78583307 18.52053782 -104.73828125 16.78515625 C-103.79339844 16.3778125 -102.84851563 15.97046875 -101.875 15.55078125 C-98.93431674 14.49327413 -96.14185616 13.9552137 -93.05078125 13.53515625 C-92.72078125 12.21515625 -92.39078125 10.89515625 -92.05078125 9.53515625 C-91.06078125 9.86515625 -90.07078125 10.19515625 -89.05078125 10.53515625 C-89.05078125 11.19515625 -89.05078125 11.85515625 -89.05078125 12.53515625 C-88.39078125 12.20515625 -87.73078125 11.87515625 -87.05078125 11.53515625 C-85.60229543 11.45173466 -84.15007256 11.42782764 -82.69921875 11.4375 C-81.42304688 11.44233398 -81.42304688 11.44233398 -80.12109375 11.44726562 C-79.23164063 11.45564453 -78.3421875 11.46402344 -77.42578125 11.47265625 C-76.52859375 11.47716797 -75.63140625 11.48167969 -74.70703125 11.48632812 C-72.48821477 11.49813034 -70.26953107 11.5145947 -68.05078125 11.53515625 C-67.86902344 10.52195312 -67.86902344 10.52195312 -67.68359375 9.48828125 C-67.51601562 8.59625 -67.3484375 7.70421875 -67.17578125 6.78515625 C-67.01335937 5.9034375 -66.8509375 5.02171875 -66.68359375 4.11328125 C-66.08281861 1.66567881 -65.27081008 -0.27084232 -64.05078125 -2.46484375 C-63.06078125 -2.46484375 -62.07078125 -2.46484375 -61.05078125 -2.46484375 C-60.54244534 -1.21821044 -60.0444698 0.03265012 -59.55078125 1.28515625 C-59.27234375 1.98125 -58.99390625 2.67734375 -58.70703125 3.39453125 C-58.05078125 5.53515625 -58.05078125 5.53515625 -58.05078125 9.53515625 C-50.93568921 7.15359738 -44.16977704 4.30146092 -37.44311523 0.99780273 C-26.20479987 -4.43306666 -11.2068996 -6.83069093 0 0 Z " fill="#17477B" transform="translate(235.05078125,114.46484375)"/>
<path d="M0 0 C9.32800216 -0.0698124 18.65591302 -0.12296876 27.98412037 -0.15543652 C32.31657518 -0.17102712 36.64884994 -0.19214313 40.98120117 -0.22631836 C45.16983981 -0.25914946 49.35830635 -0.27690256 53.54706383 -0.28463173 C55.13729241 -0.29013295 56.72751262 -0.30087431 58.31766701 -0.31719017 C67.27699965 -0.40537977 75.44892781 -0.05662075 84 3 C83.505 1.515 83.505 1.515 83 0 C111.71 0 140.42 0 170 0 C170 10.23 170 20.46 170 31 C147.56 31 125.12 31 102 31 C101.34 35.29 100.68 39.58 100 44 C95.91036658 51.91255161 92.45447619 57.30967009 84.0625 60.8125 C83.04285156 61.25207031 82.02320312 61.69164062 80.97265625 62.14453125 C78 63 78 63 73 62 C73 51.77 73 41.54 73 31 C66.20921875 31.12568359 66.20921875 31.12568359 59.28125 31.25390625 C56.40104962 31.30466238 53.52085112 31.35508155 50.640625 31.40429688 C46.07610566 31.48232404 41.5116306 31.56154995 36.94726562 31.64819336 C33.26447444 31.71802385 29.58162306 31.78224556 25.89866638 31.84269524 C24.49853509 31.86663959 23.09843595 31.89255285 21.69837952 31.92053413 C7.60534794 32.19971122 7.60534794 32.19971122 1 31 C0 30 0 30 -0.11352539 27.13256836 C-0.10828857 25.88096924 -0.10305176 24.62937012 -0.09765625 23.33984375 C-0.0962413 22.67537735 -0.09482635 22.01091095 -0.09336853 21.3263092 C-0.08775518 19.19666101 -0.07520054 17.06711661 -0.0625 14.9375 C-0.05748671 13.49674631 -0.05292351 12.05599097 -0.04882812 10.61523438 C-0.03778145 7.07678898 -0.02050792 3.53840461 0 0 Z M88 6 C88.33 6.66 88.66 7.32 89 8 C89.66 7.67 90.32 7.34 91 7 C90.01 6.67 89.02 6.34 88 6 Z M93 10 C93.33 10.99 93.66 11.98 94 13 C94 12.01 94 11.02 94 10 C93.67 10 93.34 10 93 10 Z M96 14 C97 16 97 16 97 16 Z M98 18 C99 20 99 20 99 20 Z M99 20 C100 22 100 22 100 22 Z M100 23 C101 27 101 27 101 27 Z " fill="#1F5282" transform="translate(1,39)"/>
<path d="M0 0 C1.67083819 1.32810215 3.33729713 2.66172696 5 4 C7.00311536 4.61943728 8.97113983 5.0463989 11.03515625 5.41015625 C13.7642438 6.22942508 15.01235154 6.89420015 17 9 C17.35498268 12.06487465 17.46603182 14.76489058 17.390625 17.82421875 C17.38496521 18.68561966 17.37930542 19.54702057 17.37347412 20.43452454 C17.3510813 23.18608148 17.3008808 25.93633663 17.25 28.6875 C17.2299387 30.55271557 17.21168728 32.41795155 17.1953125 34.28320312 C17.15120713 38.85597042 17.08216057 43.4277645 17 48 C15.35 48.33 13.7 48.66 12 49 C11.67 49.99 11.34 50.98 11 52 C10.01 52.495 10.01 52.495 9 53 C8.4225 54.093125 7.845 55.18625 7.25 56.3125 C5.61540694 59.35345991 4.91216445 60.05511251 1.8125 62 C-1.39232984 63.81179289 -1.39232984 63.81179289 -1.875 67.75 C-1.91625 68.8225 -1.9575 69.895 -2 71 C-0.24890978 70.37806106 1.50083031 69.75232002 3.25 69.125 C4.22453125 68.77695313 5.1990625 68.42890625 6.203125 68.0703125 C8.93297895 67.09352019 8.93297895 67.09352019 11.109375 65.8671875 C13 65 13 65 17 65 C16.99214478 66.74071777 16.99214478 66.74071777 16.98413086 68.51660156 C16.96601999 72.82535022 16.95454569 77.13409551 16.94506836 81.44287109 C16.94004208 83.30713466 16.93322008 85.1713943 16.92456055 87.03564453 C16.91242037 89.71648124 16.90675461 92.3972658 16.90234375 95.078125 C16.89718246 95.91055725 16.89202118 96.7429895 16.88670349 97.60064697 C16.88659019 98.77140778 16.88659019 98.77140778 16.88647461 99.96582031 C16.884254 100.64976868 16.88203339 101.33371704 16.87974548 102.03839111 C17.00816727 104.13322575 17.45297755 105.97771502 18 108 C18.40160148 110.99465794 18.69053151 113.99373463 19 117 C13.06 117 7.12 117 1 117 C0.67 115.35 0.34 113.7 0 112 C-5.28 111.67 -10.56 111.34 -16 111 C-16.33 109.35 -16.66 107.7 -17 106 C-17.59538574 105.98018066 -18.19077148 105.96036133 -18.80419922 105.93994141 C-21.49492153 105.84483874 -24.18485148 105.73510158 -26.875 105.625 C-27.81214844 105.5940625 -28.74929687 105.563125 -29.71484375 105.53125 C-30.61074219 105.49257812 -31.50664062 105.45390625 -32.4296875 105.4140625 C-33.67081299 105.36693115 -33.67081299 105.36693115 -34.93701172 105.31884766 C-37 105 -37 105 -39 103 C-38.67 101.68 -38.34 100.36 -38 99 C-31.565 98.505 -31.565 98.505 -25 98 C-25 96.68 -25 95.36 -25 94 C-31.93 93.505 -31.93 93.505 -39 93 C-39.33 91.35 -39.66 89.7 -40 88 C-45.28 87.67 -50.56 87.34 -56 87 C-56 79 -56 79 -54.25 76.0625 C-51.95714179 73.96071331 -50.93687346 73.58614071 -48 73 C-48.02320313 72.31035156 -48.04640625 71.62070313 -48.0703125 70.91015625 C-48.20101884 64.10409038 -48.10660971 57.21321941 -45 51 C-45.39938767 48.90178785 -45.39938767 48.90178785 -46 47 C-45.01 46.505 -45.01 46.505 -44 46 C-43.09656316 44.11736119 -43.09656316 44.11736119 -42.375 41.9375 C-42.11460938 41.20402344 -41.85421875 40.47054687 -41.5859375 39.71484375 C-41.39257812 39.14894531 -41.19921875 38.58304688 -41 38 C-40.01 38 -39.02 38 -38 38 C-37.32968281 39.9570868 -36.66385317 41.91571113 -36 43.875 C-35.443125 45.51082031 -35.443125 45.51082031 -34.875 47.1796875 C-33.65841089 51.10101491 -34 54.89799814 -34 59 C-32.35 59 -30.7 59 -29 59 C-28.87625 58.13375 -28.7525 57.2675 -28.625 56.375 C-28.01941879 53.10486147 -27.11693965 50.12743101 -26 47 C-25.01 47 -24.02 47 -23 47 C-20.42113193 53.05473373 -19.38979206 58.44074057 -19 65 C-18.29875 65.268125 -17.5975 65.53625 -16.875 65.8125 C-13.85164964 67.06127515 -10.92575964 68.53712018 -8 70 C-7.67 64.06 -7.34 58.12 -7 52 C-8.65 51.34 -10.3 50.68 -12 50 C-16.60846019 45.69411548 -17.67813379 41.11545806 -18 35 C-18.721875 35.0825 -19.44375 35.165 -20.1875 35.25 C-23.91755397 34.91843965 -25.34685381 33.58143954 -28 31 C-29.92394959 27.93330182 -30.18771035 25.99923876 -29.6875 22.4375 C-29.53861328 21.29087891 -29.53861328 21.29087891 -29.38671875 20.12109375 C-29 18 -29 18 -28 15 C-26.2984375 14.5359375 -26.2984375 14.5359375 -24.5625 14.0625 C-20.92904623 13.42358868 -20.92904623 13.42358868 -19.8125 10.9375 C-19.544375 10.298125 -19.27625 9.65875 -19 9 C-18.34 8.855625 -17.68 8.71125 -17 8.5625 C-16.34 8.376875 -15.68 8.19125 -15 8 C-13.89363605 5.60931266 -13.89363605 5.60931266 -13 3 C-9.25048675 -1.56462482 -5.50327649 -1.23349301 0 0 Z M-13 33 C-13.9792235 35.61126266 -14.21387336 37.39208823 -13.28125 40.04296875 C-11.4992937 43.74862787 -10.5082411 45.6611726 -7 48 C-6.91921359 45.87561661 -6.86090859 43.7503677 -6.8125 41.625 C-6.77769531 40.44164062 -6.74289063 39.25828125 -6.70703125 38.0390625 C-6.80371094 37.03617188 -6.90039062 36.03328125 -7 35 C-9.81509993 32.7226499 -9.81509993 32.7226499 -13 33 Z M-2 36 C-1.67 37.32 -1.34 38.64 -1 40 C-0.67 39.01 -0.34 38.02 0 37 C-0.66 36.67 -1.32 36.34 -2 36 Z M0 43 C-2.35641524 44.91406662 -2.35641524 44.91406662 -2.1953125 48.2578125 C-2.17210937 49.53398438 -2.14890625 50.81015625 -2.125 52.125 C-2.10695312 53.40632813 -2.08890625 54.68765625 -2.0703125 56.0078125 C-2.04710937 56.99523437 -2.02390625 57.98265625 -2 59 C1.77991191 57.28185822 3.24974616 55.85055846 5 52 C5.66721536 48.91440699 5.66721536 48.91440699 5 46 C2.60943058 44.0645852 2.60943058 44.0645852 0 43 Z " fill="#808799" transform="translate(56,77)"/>
<path d="M0 0 C7.71169151 6.0735366 9.48326653 15.11203485 10.76171875 24.47265625 C11.67888439 37.20291529 9.46382824 50.86468662 6.265625 63.1640625 C6.16121094 63.94652344 6.05679688 64.72898437 5.94921875 65.53515625 C6.60921875 66.19515625 7.26921875 66.85515625 7.94921875 67.53515625 C4.56912358 67.8254316 1.31985232 67.97711926 -2.05078125 67.53515625 C-4.36328125 65.16015625 -4.36328125 65.16015625 -6.05078125 62.53515625 C-10.08237215 60.18339489 -14.48530632 59.76808253 -19.05078125 60.53515625 C-22.33059876 62.60286729 -23.89824132 64.30634636 -26.05078125 67.53515625 C-27.47390625 67.93734375 -27.47390625 67.93734375 -28.92578125 68.34765625 C-32.33935936 69.25515978 -32.33935936 69.25515978 -33.73828125 72.66015625 C-36.05078125 75.53515625 -36.05078125 75.53515625 -38.6015625 76.13671875 C-41.60713911 76.2879928 -44.11847856 76.22039846 -47.05078125 75.53515625 C-51.05078125 71.25608648 -51.05078125 71.25608648 -51.05078125 67.53515625 C-49.73078125 67.53515625 -48.41078125 67.53515625 -47.05078125 67.53515625 C-47.48390625 66.77589844 -47.91703125 66.01664062 -48.36328125 65.234375 C-48.92015625 64.24050781 -49.47703125 63.24664062 -50.05078125 62.22265625 C-50.60765625 61.23652344 -51.16453125 60.25039062 -51.73828125 59.234375 C-53.05078125 56.53515625 -53.05078125 56.53515625 -53.05078125 53.53515625 C-53.71078125 53.53515625 -54.37078125 53.53515625 -55.05078125 53.53515625 C-55.05078125 52.87515625 -55.05078125 52.21515625 -55.05078125 51.53515625 C-53.40078125 51.53515625 -51.75078125 51.53515625 -50.05078125 51.53515625 C-50.41171875 50.98085937 -50.77265625 50.4265625 -51.14453125 49.85546875 C-51.60859375 49.13101563 -52.07265625 48.4065625 -52.55078125 47.66015625 C-53.01484375 46.94085938 -53.47890625 46.2215625 -53.95703125 45.48046875 C-55.05078125 43.53515625 -55.05078125 43.53515625 -55.05078125 41.53515625 C-54.06078125 41.53515625 -53.07078125 41.53515625 -52.05078125 41.53515625 C-52.41171875 40.70371094 -52.77265625 39.87226563 -53.14453125 39.015625 C-53.60859375 37.92894531 -54.07265625 36.84226563 -54.55078125 35.72265625 C-55.01484375 34.64371094 -55.47890625 33.56476563 -55.95703125 32.453125 C-57.05078125 29.53515625 -57.05078125 29.53515625 -57.05078125 26.53515625 C-56.39078125 26.53515625 -55.73078125 26.53515625 -55.05078125 26.53515625 C-55.54578125 25.58640625 -56.04078125 24.63765625 -56.55078125 23.66015625 C-58.05078125 20.53515625 -58.05078125 20.53515625 -58.05078125 18.53515625 C-57.39078125 18.53515625 -56.73078125 18.53515625 -56.05078125 18.53515625 C-56.60958984 17.08882812 -56.60958984 17.08882812 -57.1796875 15.61328125 C-57.65812291 14.3374535 -58.13595604 13.06139978 -58.61328125 11.78515625 C-58.86013672 11.1509375 -59.10699219 10.51671875 -59.36132812 9.86328125 C-60.63275204 6.42506446 -61.5176448 4.01346743 -60.05078125 0.53515625 C-58.55257066 3.90613008 -58.05078125 5.73957744 -58.05078125 9.53515625 C-50.93568921 7.15359738 -44.16977704 4.30146092 -37.44311523 0.99780273 C-26.20479987 -4.43306666 -11.2068996 -6.83069093 0 0 Z " fill="#5294C8" transform="translate(235.05078125,114.46484375)"/>
<path d="M0 0 C0.99 0 1.98 0 3 0 C3.00879936 1.15059402 3.00879936 1.15059402 3.01777649 2.32443237 C3.07593862 9.59130545 3.14814743 16.8578448 3.23571491 24.12441826 C3.28023867 27.85929029 3.31953296 31.59405775 3.34643555 35.32910156 C3.37265002 38.94087485 3.41317646 42.55224177 3.46318626 46.16376114 C3.47973348 47.53424101 3.49132273 48.90479097 3.49761391 50.27535629 C3.57869405 66.33119793 7.77761861 79.14760711 18.94140625 91.0078125 C26.67646424 98.49335249 36.42430799 104.64984622 47 107 C47 107.99 47 108.98 47 110 C8.98389998 111.08474385 8.98389998 111.08474385 -6 100 C-6.94746094 99.32324219 -6.94746094 99.32324219 -7.9140625 98.6328125 C-18.58511827 90.31220954 -23.61233142 78.45741166 -25.28549194 65.38838196 C-29.75328426 28.5404384 -29.75328426 28.5404384 -24.53369141 19.44482422 C-20.91034635 15.88813728 -16.66716408 14.21415657 -11.88867188 12.69482422 C-6.98793702 10.891891 -3.82937852 6.39217109 -1.25 2.0625 C-0.8375 1.381875 -0.425 0.70125 0 0 Z " fill="#917C65" transform="translate(100,117)"/>
<path d="M0 0 C1.67083819 1.32810215 3.33729713 2.66172696 5 4 C7.00311536 4.61943728 8.97113983 5.0463989 11.03515625 5.41015625 C13.7642438 6.22942508 15.01235154 6.89420015 17 9 C17.35498268 12.06487465 17.46603182 14.76489058 17.390625 17.82421875 C17.38496521 18.68561966 17.37930542 19.54702057 17.37347412 20.43452454 C17.3510813 23.18608148 17.3008808 25.93633663 17.25 28.6875 C17.2299387 30.55271557 17.21168728 32.41795155 17.1953125 34.28320312 C17.15120713 38.85597042 17.08216057 43.4277645 17 48 C14.525 48.495 14.525 48.495 12 49 C11.67 49.99 11.34 50.98 11 52 C10.01 52.495 10.01 52.495 9 53 C8.46375 54.11375 7.9275 55.2275 7.375 56.375 C5.64905365 59.58315218 4.16527807 60.68844954 0.75 61.9375 C-0.4875 62.288125 -1.725 62.63875 -3 63 C-3.33 67.62 -3.66 72.24 -4 77 C-1.97875 76.175 0.0425 75.35 2.125 74.5 C7.03666335 72.49523945 9.4895828 72 15 72 C15 75.96 15 79.92 15 84 C7.9989519 84.05850458 1.00103077 84.05722188 -6 84 C-7.85044922 83.99419922 -7.85044922 83.99419922 -9.73828125 83.98828125 C-12.3209724 83.88693072 -14.54279732 83.79896774 -17 83 C-19.1875 79.9375 -19.1875 79.9375 -20 77 C-19.34 77 -18.68 77 -18 77 C-18.28617188 76.22398437 -18.57234375 75.44796875 -18.8671875 74.6484375 C-20.301839 70.02787026 -21.21088041 65.37165064 -22.125 60.625 C-22.30675781 59.69816406 -22.48851563 58.77132812 -22.67578125 57.81640625 C-23.12070896 55.5449332 -23.56201206 53.27281954 -24 51 C-26.02172833 54.03259249 -26.43444778 55.55304651 -27 59.0625 C-27.77038377 63.67257428 -28.65404084 68.23848302 -29.6328125 72.80859375 C-30.11016945 75.28717469 -30.11016945 75.28717469 -30 79 C-30.99 79 -31.98 79 -33 79 C-33.33 78.01 -33.66 77.02 -34 76 C-33.34 76 -32.68 76 -32 76 C-32.495 75.05125 -32.99 74.1025 -33.5 73.125 C-35 70 -35 70 -35 68 C-34.34 68 -33.68 68 -33 68 C-33.495 66.8553125 -33.495 66.8553125 -34 65.6875 C-35 63 -35 63 -35 60 C-35.33 59.071875 -35.66 58.14375 -36 57.1875 C-37 54 -37 54 -36.9375 51 C-37.0136768 47.34351379 -38.20453757 45.14205925 -40 42 C-40.99 42.495 -40.99 42.495 -42 43 C-41.67 41.35 -41.34 39.7 -41 38 C-40.01 38 -39.02 38 -38 38 C-37.32968281 39.9570868 -36.66385317 41.91571113 -36 43.875 C-35.443125 45.51082031 -35.443125 45.51082031 -34.875 47.1796875 C-33.65841089 51.10101491 -34 54.89799814 -34 59 C-32.35 59 -30.7 59 -29 59 C-28.87625 58.13375 -28.7525 57.2675 -28.625 56.375 C-28.01941879 53.10486147 -27.11693965 50.12743101 -26 47 C-25.01 47 -24.02 47 -23 47 C-20.42113193 53.05473373 -19.38979206 58.44074057 -19 65 C-18.29875 65.268125 -17.5975 65.53625 -16.875 65.8125 C-13.85164964 67.06127515 -10.92575964 68.53712018 -8 70 C-7.67 64.06 -7.34 58.12 -7 52 C-8.65 51.34 -10.3 50.68 -12 50 C-16.60846019 45.69411548 -17.67813379 41.11545806 -18 35 C-18.721875 35.0825 -19.44375 35.165 -20.1875 35.25 C-23.91755397 34.91843965 -25.34685381 33.58143954 -28 31 C-29.92394959 27.93330182 -30.18771035 25.99923876 -29.6875 22.4375 C-29.58824219 21.67308594 -29.48898438 20.90867187 -29.38671875 20.12109375 C-29 18 -29 18 -28 15 C-26.865625 14.690625 -25.73125 14.38125 -24.5625 14.0625 C-20.92904623 13.42358868 -20.92904623 13.42358868 -19.8125 10.9375 C-19.544375 10.298125 -19.27625 9.65875 -19 9 C-18.34 8.855625 -17.68 8.71125 -17 8.5625 C-16.01 8.2840625 -16.01 8.2840625 -15 8 C-13.89363605 5.60931266 -13.89363605 5.60931266 -13 3 C-9.25048675 -1.56462482 -5.50327649 -1.23349301 0 0 Z M-13 33 C-13.9792235 35.61126266 -14.21387336 37.39208823 -13.28125 40.04296875 C-11.4992937 43.74862787 -10.5082411 45.6611726 -7 48 C-6.91921359 45.87561661 -6.86090859 43.7503677 -6.8125 41.625 C-6.77769531 40.44164062 -6.74289063 39.25828125 -6.70703125 38.0390625 C-6.80371094 37.03617188 -6.90039062 36.03328125 -7 35 C-9.81509993 32.7226499 -9.81509993 32.7226499 -13 33 Z M-2 36 C-1.67 37.32 -1.34 38.64 -1 40 C-0.67 39.01 -0.34 38.02 0 37 C-0.66 36.67 -1.32 36.34 -2 36 Z M0 43 C-2.35641524 44.91406662 -2.35641524 44.91406662 -2.1953125 48.2578125 C-2.17210937 49.53398438 -2.14890625 50.81015625 -2.125 52.125 C-2.10695312 53.40632813 -2.08890625 54.68765625 -2.0703125 56.0078125 C-2.04710937 56.99523437 -2.02390625 57.98265625 -2 59 C1.77991191 57.28185822 3.24974616 55.85055846 5 52 C5.66721536 48.91440699 5.66721536 48.91440699 5 46 C2.60943058 44.0645852 2.60943058 44.0645852 0 43 Z " fill="#76AFDA" transform="translate(56,77)"/>
<path d="M0 0 C0.99 0 1.98 0 3 0 C2 3 2 3 0.5625 6.3125 C-0.81524156 9.48933128 -1.92611939 12.70676613 -3 16 C-3.65411685 17.67163195 -4.31653318 19.34015202 -5 21 C-4.34 21 -3.68 21 -3 21 C-3.309375 21.763125 -3.61875 22.52625 -3.9375 23.3125 C-4.67893593 25.18789677 -5.36228217 27.08684652 -6 29 C-5.34 29 -4.68 29 -4 29 C-5.66666667 34 -7.33333333 39 -9 44 C-8.01 44 -7.02 44 -6 44 C-7.66666667 47.33333333 -9.33333333 50.66666667 -11 54 C-9.68 54 -8.36 54 -7 54 C-8.21934486 58.03321763 -9.55954927 61.54269479 -12 65 C-12.66 65 -13.32 65 -14 65 C-15.65 61.7 -17.3 58.4 -19 55 C-17.35 55 -15.7 55 -14 55 C-14.433125 54.44570312 -14.86625 53.89140625 -15.3125 53.3203125 C-16.1478125 52.23363281 -16.1478125 52.23363281 -17 51.125 C-17.556875 50.40570313 -18.11375 49.68640625 -18.6875 48.9453125 C-20 47 -20 47 -20 45 C-18.68 45 -17.36 45 -16 45 C-16.433125 44.30132812 -16.86625 43.60265625 -17.3125 42.8828125 C-17.869375 41.97273438 -18.42625 41.06265625 -19 40.125 C-19.556875 39.22007812 -20.11375 38.31515625 -20.6875 37.3828125 C-22 35 -22 35 -22 33 C-21.34 32.67 -20.68 32.34 -20 32 C-20.62279669 30.41579871 -21.24833401 28.83267469 -21.875 27.25 C-22.39707031 25.92742187 -22.39707031 25.92742187 -22.9296875 24.578125 C-23.92857332 22.04417218 -23.92857332 22.04417218 -25.1328125 19.921875 C-26 18 -26 18 -26 14 C-26.66 14 -27.32 14 -28 14 C-28.0825 14.825 -28.165 15.65 -28.25 16.5 C-29.03015107 20.14070501 -30.28937499 22.83459771 -32.01171875 26.09765625 C-33.17624071 28.33924595 -34.11350899 30.63602397 -35 33 C-34.34 33 -33.68 33 -33 33 C-34.31061591 37.23429756 -35.94356259 41.07407404 -38 45 C-37.01 45 -36.02 45 -35 45 C-36.33488128 48.59391114 -37.96022723 51.75490696 -40 55 C-38.68 55 -37.36 55 -36 55 C-36.99 57.97 -37.98 60.94 -39 64 C-39.66 64 -40.32 64 -41 64 C-41.66 65.65 -42.32 67.3 -43 69 C-41.35 69 -39.7 69 -38 69 C-39.55795186 72.50539169 -41.24125515 75.3119922 -44 78 C-46.96672677 78.37233017 -49.31856241 78.4808246 -52.25 78.3125 C-52.99507812 78.28994141 -53.74015625 78.26738281 -54.5078125 78.24414062 C-56.339409 78.18543561 -58.16996653 78.09575757 -60 78 C-59.67 79.32 -59.34 80.64 -59 82 C-14.12 82 30.76 82 77 82 C76.67 79.36 76.34 76.72 76 74 C76.66 74.33 77.32 74.66 78 75 C79.28571429 81.42857143 79.28571429 81.42857143 78 84 C65.17494697 84.02348491 52.34989931 84.04109474 39.52482891 84.05181217 C33.56545422 84.05696382 27.60609456 84.06391524 21.64672852 84.07543945 C-5.5870341 84.12675828 -32.78344936 84.04679717 -60 83 C-60.81898266 80.79388434 -61.63027543 78.5854166 -62.4375 76.375 C-62.88996094 75.14523438 -63.34242187 73.91546875 -63.80859375 72.6484375 C-65.72472471 66.78067908 -66.14346685 61.32731841 -66.09765625 55.1953125 C-66.0962413 54.4713327 -66.09482635 53.74735291 -66.09336853 53.00143433 C-66.08781075 50.70924593 -66.07526633 48.41715843 -66.0625 46.125 C-66.05747953 44.56250142 -66.05291759 43.00000129 -66.04882812 41.4375 C-66.03785519 37.62496165 -66.0206201 33.81249788 -66 30 C-64.78828125 29.55398437 -63.5765625 29.10796875 -62.328125 28.6484375 C-59.07078753 27.42657784 -55.90169259 26.10173646 -52.75 24.625 C-48.74767684 22.78805056 -44.73505182 20.98538157 -40.6875 19.25 C-39.74261719 18.84265625 -38.79773438 18.4353125 -37.82421875 18.015625 C-34.88353549 16.95811788 -32.09107491 16.42005745 -29 16 C-28.67 14.68 -28.34 13.36 -28 12 C-27.01 12.33 -26.02 12.66 -25 13 C-25 13.66 -25 14.32 -25 15 C-24.34 14.67 -23.68 14.34 -23 14 C-21.55151418 13.91657841 -20.09929131 13.89267139 -18.6484375 13.90234375 C-17.37226563 13.90717773 -17.37226563 13.90717773 -16.0703125 13.91210938 C-15.18085938 13.92048828 -14.29140625 13.92886719 -13.375 13.9375 C-12.4778125 13.94201172 -11.580625 13.94652344 -10.65625 13.95117188 C-8.43743352 13.96297409 -6.21874982 13.97943845 -4 14 C-3.81824219 12.98679687 -3.81824219 12.98679687 -3.6328125 11.953125 C-3.46523437 11.06109375 -3.29765625 10.1690625 -3.125 9.25 C-2.96257812 8.36828125 -2.80015625 7.4865625 -2.6328125 6.578125 C-2.03203736 4.13052256 -1.22002883 2.19400143 0 0 Z " fill="#AED4E8" transform="translate(171,112)"/>
<path d="M0 0 C14.42077455 -0.04669944 28.8415374 -0.08184583 43.26237202 -0.10362434 C49.95806398 -0.11407529 56.65370364 -0.12801003 63.34936523 -0.15087891 C69.80730375 -0.17256049 76.26519342 -0.18455874 82.72316551 -0.18975449 C85.19080563 -0.19345867 87.65844299 -0.2006917 90.12606239 -0.21146011 C93.57409127 -0.22591268 97.02191656 -0.22798055 100.4699707 -0.22705078 C102.01068993 -0.23783661 102.01068993 -0.23783661 103.58253479 -0.24884033 C104.52062988 -0.246091 105.45872498 -0.24334167 106.42524719 -0.24050903 C107.24103398 -0.24235262 108.05682077 -0.24419621 108.89732838 -0.24609566 C111 0 111 0 114 2 C113.67 3.65 113.34 5.3 113 7 C109.7 7 106.4 7 103 7 C103 7.99 103 8.98 103 10 C98.71 10.33 94.42 10.66 90 11 C94.95 11.495 94.95 11.495 100 12 C97.35089568 17.29820864 97.35089568 17.29820864 94 19 C90.74091824 19.35934629 87.52356824 19.28179037 84.25 19.1875 C82.91775391 19.16719727 82.91775391 19.16719727 81.55859375 19.14648438 C79.37177422 19.11121309 77.18620034 19.06192752 75 19 C75.495 19.99 75.495 19.99 76 21 C77.65 21 79.3 21 81 21 C80.875 22.875 80.875 22.875 80 25 C64.27832731 32.2856532 43.32014833 28.04434776 27.65625 22.90234375 C17.19332991 18.92481614 6.90833398 11.9273886 0 3 C0 2.01 0 1.02 0 0 Z M67 10 C67 10.33 67 10.66 67 11 C71.29 11 75.58 11 80 11 C80 10.67 80 10.34 80 10 C75.71 10 71.42 10 67 10 Z M59 19 C59 19.66 59 20.32 59 21 C61.64 21 64.28 21 67 21 C67 20.34 67 19.68 67 19 C64.36 19 61.72 19 59 19 Z " fill="#5C5249" transform="translate(116,198)"/>
<path d="M0 0 C27.72 0 55.44 0 84 0 C84 9.24 84 18.48 84 28 C62.22 28 40.44 28 18 28 C16.515 23.05 16.515 23.05 15 18 C11.9456524 11.08606769 7.92245284 6.60073013 1.7578125 2.27734375 C1.17773438 1.85582031 0.59765625 1.43429688 0 1 C0 0.67 0 0.34 0 0 Z " fill="#205282" transform="translate(86,40)"/>
<path d="M0 0 C7.19023048 5.66284685 8.94960404 13.45714181 10.38671875 22.1953125 C11.2701174 29.69315856 10.66026569 37.04181541 9.94921875 44.53515625 C9.61921875 44.53515625 9.28921875 44.53515625 8.94921875 44.53515625 C8.96984375 43.44976562 8.99046875 42.364375 9.01171875 41.24609375 C9.18951763 33.35244427 9.18951763 33.35244427 6.3828125 26.2421875 C4.30259379 24.65861592 2.34614614 23.57313002 -0.05078125 22.53515625 C-0.71980469 22.20386719 -1.38882813 21.87257812 -2.078125 21.53125 C-7.43949186 19.16375533 -12.65738757 18.54884113 -18.30859375 20.19140625 C-26.31486464 23.3396348 -30.86056398 28.97290676 -36.05078125 35.59765625 C-43.94059699 45.60871838 -43.94059699 45.60871838 -49.98828125 47.41015625 C-50.66890625 47.45140625 -51.34953125 47.49265625 -52.05078125 47.53515625 C-55.05078125 43.78515625 -55.05078125 43.78515625 -55.05078125 41.53515625 C-54.06078125 41.53515625 -53.07078125 41.53515625 -52.05078125 41.53515625 C-52.41171875 40.70371094 -52.77265625 39.87226563 -53.14453125 39.015625 C-53.60859375 37.92894531 -54.07265625 36.84226563 -54.55078125 35.72265625 C-55.01484375 34.64371094 -55.47890625 33.56476563 -55.95703125 32.453125 C-57.05078125 29.53515625 -57.05078125 29.53515625 -57.05078125 26.53515625 C-56.39078125 26.53515625 -55.73078125 26.53515625 -55.05078125 26.53515625 C-55.54578125 25.58640625 -56.04078125 24.63765625 -56.55078125 23.66015625 C-58.05078125 20.53515625 -58.05078125 20.53515625 -58.05078125 18.53515625 C-57.39078125 18.53515625 -56.73078125 18.53515625 -56.05078125 18.53515625 C-56.60958984 17.08882812 -56.60958984 17.08882812 -57.1796875 15.61328125 C-57.65812291 14.3374535 -58.13595604 13.06139978 -58.61328125 11.78515625 C-58.86013672 11.1509375 -59.10699219 10.51671875 -59.36132812 9.86328125 C-60.63275204 6.42506446 -61.5176448 4.01346743 -60.05078125 0.53515625 C-58.55257066 3.90613008 -58.05078125 5.73957744 -58.05078125 9.53515625 C-50.93568921 7.15359738 -44.16977704 4.30146092 -37.44311523 0.99780273 C-26.20479987 -4.43306666 -11.2068996 -6.83069093 0 0 Z " fill="#B2D7EA" transform="translate(235.05078125,114.46484375)"/>
<path d="M0 0 C-0.90522867 8.08122321 -2.59791455 12.4150851 -9.0625 17.640625 C-20.51539345 25.67612282 -36.0877807 21.56511749 -49 20 C-49 13.4 -49 6.8 -49 0 C-32.57095194 -1.05615309 -16.43854332 -0.79115984 0 0 Z " fill="#B4D9EA" transform="translate(154,72)"/>
<path d="M0 0 C4.32210613 0.97247388 6.56420124 2.45598238 9.5625 5.5625 C14.63768429 10.33099674 20.32504656 10.07122664 27 10 C27.875 12.125 27.875 12.125 28 15 C26.75463867 16.36254883 26.75463867 16.36254883 25.10546875 17.76953125 C22.44262525 20.17386119 21.55634572 21.60277362 21.30078125 25.19921875 C21.27582785 26.69510949 21.28023618 28.19174908 21.3125 29.6875 C21.35875518 37.46497783 21.35875518 37.46497783 19.6484375 40.015625 C18 41 18 41 15.3125 41.0625 C11.44530603 39.82207929 9.01886343 37.95551644 5.9296875 35.375 C2.16431403 32.69198085 -1.48696705 32.89743107 -6 33 C-6 33.66 -6 34.32 -6 35 C-6.66 35 -7.32 35 -8 35 C-8 34.34 -8 33.68 -8 33 C-8.99 32.67 -9.98 32.34 -11 32 C-10.67700074 28.33934176 -10.07724799 27.0810864 -7.484375 24.359375 C-4.24686755 20.59860475 -4.35842563 17.16940369 -4.4375 12.375 C-4.52375436 4.65191775 -4.52375436 4.65191775 -1.97265625 1.4765625 C-1.32167969 0.98929688 -0.67070312 0.50203125 0 0 Z " fill="#65594E" transform="translate(200,51)"/>
<path d="M0 0 C3.92982637 2.61988425 4.01686331 4.46244606 5 9 C4.979375 9.99 4.95875 10.98 4.9375 12 C5.01998498 15.95927912 6.2934663 18.44472145 8 22 C7.34 22 6.68 22 6 22 C6.66 23.65 7.32 25.3 8 27 C7.34 27 6.68 27 6 27 C6.495 27.94875 6.99 28.8975 7.5 29.875 C9 33 9 33 9 35 C8.34 35 7.68 35 7 35 C7.99 35.99 8.98 36.98 10 38 C10.66 37.01 11.32 36.02 12 35 C11.34 34.67 10.68 34.34 10 34 C10.45822468 30.53058454 10.89131683 27.32604951 12 24 C12.50224669 21.23553292 12.95328954 18.46497639 13.40234375 15.69140625 C13.96402329 13.16201275 14.73184905 11.244468 16 9 C16.66 9.33 17.32 9.66 18 10 C18.59255767 12.26949587 19.07306162 14.5686046 19.5 16.875 C19.69009644 17.88578613 19.69009644 17.88578613 19.8840332 18.91699219 C20.14089794 20.28932335 20.393915 21.66238033 20.64306641 23.03613281 C20.964476 24.80454508 21.29974164 26.57042553 21.63671875 28.3359375 C23 35.54875887 23 35.54875887 23 39 C23.33 39.99 23.66 40.98 24 42 C39.84 42.495 39.84 42.495 56 43 C56 43.66 56 44.32 56 45 C32.9 44.67 9.8 44.34 -14 44 C-14 43.34 -14 42.68 -14 42 C-13.236875 41.95875 -12.47375 41.9175 -11.6875 41.875 C-8.67594887 41.22176391 -8.67594887 41.22176391 -7.1875 37.9375 C-6.795625 36.968125 -6.40375 35.99875 -6 35 C-6.66 35 -7.32 35 -8 35 C-8 34.34 -8 33.68 -8 33 C-6.68 33 -5.36 33 -4 33 C-3.30840599 31.15274948 -3.30840599 31.15274948 -3 29 C-3.66 28.01 -4.32 27.02 -5 26 C-5.23046875 22.71484375 -5.23046875 22.71484375 -5.1875 18.9375 C-5.18105469 17.68839844 -5.17460937 16.43929687 -5.16796875 15.15234375 C-5 12 -5 12 -4 10 C-4.39938767 7.90178785 -4.39938767 7.90178785 -5 6 C-4.34 5.67 -3.68 5.34 -3 5 C-2.67 4.01 -2.34 3.02 -2 2 C-1.34 2 -0.68 2 0 2 C0 1.34 0 0.68 0 0 Z " fill="#1F4F82" transform="translate(15,118)"/>
<path d="M0 0 C0.99 0 1.98 0 3 0 C4.02933754 27.91484217 4.02933754 27.91484217 -2.73046875 36.09375 C-4.72734437 37.91126554 -6.79360306 39.44575932 -9 41 C-9.73863281 41.61617187 -10.47726563 42.23234375 -11.23828125 42.8671875 C-16.27783074 47.06246014 -19.41514234 48.53067838 -26 51 C-26 40.44 -26 29.88 -26 19 C-21.38 17.35 -16.76 15.7 -12 14 C-10.35 12.68 -8.7 11.36 -7 10 C-6.34 10 -5.68 10 -5 10 C-4.731875 9.46375 -4.46375 8.9275 -4.1875 8.375 C-2.79166667 5.58333333 -1.39583333 2.79166667 0 0 Z " fill="#B4D7EA" transform="translate(100,85)"/>
<path d="M0 0 C0.99 0 1.98 0 3 0 C3.12086218 6.43255401 2.82351864 12.61773055 2 19 C2.66 19.33 3.32 19.66 4 20 C3.505 20.495 3.505 20.495 3 21 C2.76321284 23.69235776 2.57801975 26.36498156 2.4375 29.0625 C2.37272461 30.20041992 2.37272461 30.20041992 2.30664062 31.36132812 C2.20026367 33.24065438 2.09960066 35.12030244 2 37 C5.73151108 35.75616297 6.74534148 34.15652193 9 31 C9.495 29.515 9.495 29.515 10 28 C10.66 28 11.32 28 12 28 C12 25.69 12 23.38 12 21 C12.33 21 12.66 21 13 21 C13 22.65 13 24.3 13 26 C13.99 25.01 14.98 24.02 16 23 C16.66 23.33 17.32 23.66 18 24 C17.2575 24.86625 16.515 25.7325 15.75 26.625 C13.93860373 28.77127626 12.53711056 30.76152778 11.0625 33.1875 C9 36 9 36 5.92578125 37.2265625 C4.47751953 38.10441406 4.47751953 38.10441406 3 39 C2.05689861 42.40163148 2.05689861 42.40163148 2.125 46.1875 C2.08632813 47.45980469 2.04765625 48.73210937 2.0078125 50.04296875 C2.00523438 51.01878906 2.00265625 51.99460938 2 53 C3.30324219 52.45859375 3.30324219 52.45859375 4.6328125 51.90625 C5.78523438 51.4421875 6.93765625 50.978125 8.125 50.5 C9.26195312 50.0359375 10.39890625 49.571875 11.5703125 49.09375 C15 48 15 48 21 48 C21 51.96 21 55.92 21 60 C13.9989519 60.05850458 7.00103077 60.05722188 0 60 C-1.85044922 59.99419922 -1.85044922 59.99419922 -3.73828125 59.98828125 C-6.3209724 59.88693072 -8.54279732 59.79896774 -11 59 C-13.1875 55.9375 -13.1875 55.9375 -14 53 C-13.34 53 -12.68 53 -12 53 C-12.28617188 52.22398437 -12.57234375 51.44796875 -12.8671875 50.6484375 C-14.301839 46.02787026 -15.21088041 41.37165064 -16.125 36.625 C-16.30675781 35.69816406 -16.48851563 34.77132812 -16.67578125 33.81640625 C-17.12070896 31.5449332 -17.56201206 29.27281954 -18 27 C-20.02172833 30.03259249 -20.43444778 31.55304651 -21 35.0625 C-21.77038377 39.67257428 -22.65404084 44.23848302 -23.6328125 48.80859375 C-24.11016945 51.28717469 -24.11016945 51.28717469 -24 55 C-24.99 55 -25.98 55 -27 55 C-27.495 53.515 -27.495 53.515 -28 52 C-27.34 52 -26.68 52 -26 52 C-26.495 51.05125 -26.99 50.1025 -27.5 49.125 C-29 46 -29 46 -29 44 C-28.34 44 -27.68 44 -27 44 C-27.33 43.236875 -27.66 42.47375 -28 41.6875 C-29 39 -29 39 -29 36 C-29.33 35.071875 -29.66 34.14375 -30 33.1875 C-31 30 -31 30 -30.9375 27 C-31.0136768 23.34351379 -32.20453757 21.14205925 -34 18 C-34.66 18.33 -35.32 18.66 -36 19 C-35.67 17.35 -35.34 15.7 -35 14 C-34.01 14 -33.02 14 -32 14 C-31.32968281 15.9570868 -30.66385317 17.91571113 -30 19.875 C-29.443125 21.51082031 -29.443125 21.51082031 -28.875 23.1796875 C-27.65841089 27.10101491 -28 30.89799814 -28 35 C-26.35 35 -24.7 35 -23 35 C-22.87625 34.13375 -22.7525 33.2675 -22.625 32.375 C-22.01941879 29.10486147 -21.11693965 26.12743101 -20 23 C-19.01 23 -18.02 23 -17 23 C-14.42113193 29.05473373 -13.38979206 34.44074057 -13 41 C-12.29875 41.268125 -11.5975 41.53625 -10.875 41.8125 C-7.85164964 43.06127515 -4.92575964 44.53712018 -2 46 C-1.67 40.06 -1.34 34.12 -1 28 C-2.65 27.34 -4.3 26.68 -6 26 C-8.5654594 23.4345406 -8.54046087 21.52313332 -9 18 C-8.51789062 18.42152344 -8.03578125 18.84304687 -7.5390625 19.27734375 C-6.59160156 20.09912109 -6.59160156 20.09912109 -5.625 20.9375 C-4.68527344 21.75541016 -4.68527344 21.75541016 -3.7265625 22.58984375 C-2.04367666 24.06958624 -2.04367666 24.06958624 0 25 C0 16.75 0 8.5 0 0 Z " fill="#31567A" transform="translate(50,101)"/>
<path d="M0 0 C18.15 0 36.3 0 55 0 C55 4.95 55 9.9 55 15 C37.18 15 19.36 15 1 15 C1.33 13.68 1.66 12.36 2 11 C8.435 10.505 8.435 10.505 15 10 C15 8.68 15 7.36 15 6 C8.07 5.505 8.07 5.505 1 5 C0.67 3.35 0.34 1.7 0 0 Z " fill="#51463A" transform="translate(16,165)"/>
<path d="M0 0 C9.32800216 -0.0698124 18.65591302 -0.12296876 27.98412037 -0.15543652 C32.31657518 -0.17102712 36.64884994 -0.19214313 40.98120117 -0.22631836 C45.16983981 -0.25914946 49.35830635 -0.27690256 53.54706383 -0.28463173 C55.13729241 -0.29013295 56.72751262 -0.30087431 58.31766701 -0.31719017 C67.27699965 -0.40537977 75.44892781 -0.05662075 84 3 C83.505 1.515 83.505 1.515 83 0 C111.71 0 140.42 0 170 0 C170 10.23 170 20.46 170 31 C147.56 31 125.12 31 102 31 C101.34 35.29 100.68 39.58 100 44 C95.91036658 51.91255161 92.45447619 57.30967009 84.0625 60.8125 C83.04285156 61.25207031 82.02320312 61.69164062 80.97265625 62.14453125 C78 63 78 63 73 62 C73 51.77 73 41.54 73 31 C66.20921875 31.12568359 66.20921875 31.12568359 59.28125 31.25390625 C56.40104962 31.30466238 53.52085112 31.35508155 50.640625 31.40429688 C46.07610566 31.48232404 41.5116306 31.56154995 36.94726562 31.64819336 C33.26447444 31.71802385 29.58162306 31.78224556 25.89866638 31.84269524 C24.49853509 31.86663959 23.09843595 31.89255285 21.69837952 31.92053413 C7.60534794 32.19971122 7.60534794 32.19971122 1 31 C0 30 0 30 -0.11352539 27.13256836 C-0.10828857 25.88096924 -0.10305176 24.62937012 -0.09765625 23.33984375 C-0.0962413 22.67537735 -0.09482635 22.01091095 -0.09336853 21.3263092 C-0.08775518 19.19666101 -0.07520054 17.06711661 -0.0625 14.9375 C-0.05748671 13.49674631 -0.05292351 12.05599097 -0.04882812 10.61523438 C-0.03778145 7.07678898 -0.02050792 3.53840461 0 0 Z M1 1 C1 10.24 1 19.48 1 29 C25.09 29 49.18 29 74 29 C74 39.56 74 50.12 74 61 C83.26903786 59.67585173 88.62936783 57.48369048 94.5234375 50.109375 C98.62850713 44.24498982 99.26511173 39.06151589 99.375 31.9375 C99.38909912 31.26460937 99.40319824 30.59171875 99.41772461 29.8984375 C99.36015495 23.94034206 97.54847176 19.9339465 94.8125 14.75 C94 13 94 13 94 10 C92.0624994 7.81222534 92.0624994 7.81222534 90 6 C89.01 6.33 88.02 6.66 87 7 C84.47556441 5.91431616 82.15924515 4.57391472 79.765625 3.2265625 C74.39272131 0.84366454 68.67246504 0.87583034 62.87133789 0.88647461 C62.19731934 0.88632858 61.52330078 0.88618256 60.82885742 0.8860321 C58.62675628 0.88672231 56.4247424 0.89447236 54.22265625 0.90234375 C52.68566433 0.90421111 51.14867181 0.90563351 49.61167908 0.90663147 C45.58562549 0.91043163 41.55960854 0.9202403 37.53356934 0.93133545 C33.41756689 0.9416036 29.30155847 0.94614062 25.18554688 0.95117188 C17.12367931 0.96186503 9.06184845 0.97944132 1 1 Z M85 1 C88.65092365 4.86742125 88.65092365 4.86742125 91.875 7.0625 C98.56483923 12.56378911 100.98303353 20.93213413 103 29 C124.78 29 146.56 29 169 29 C169 19.76 169 10.52 169 1 C141.28 1 113.56 1 85 1 Z M96 14 C97 16 97 16 97 16 Z M98 18 C99 20 99 20 99 20 Z M99 20 C100 22 100 22 100 22 Z M100 23 C101 27 101 27 101 27 Z " fill="#C2D2E0" transform="translate(1,39)"/>
<path d="M0 0 C0 0.66 0 1.32 0 2 C-0.66 2 -1.32 2 -2 2 C-2.66 3.65 -3.32 5.3 -4 7 C-2.35 7 -0.7 7 1 7 C-0.55795186 10.50539169 -2.24125515 13.3119922 -5 16 C-7.96672677 16.37233017 -10.31856241 16.4808246 -13.25 16.3125 C-13.99507812 16.28994141 -14.74015625 16.26738281 -15.5078125 16.24414062 C-17.339409 16.18543561 -19.16996653 16.09575757 -21 16 C-20.67 17.32 -20.34 18.64 -20 20 C24.88 20 69.76 20 116 20 C115.67 17.36 115.34 14.72 115 12 C115.99 12.495 115.99 12.495 117 13 C118.28571429 19.42857143 118.28571429 19.42857143 117 22 C104.17494697 22.02348491 91.34989931 22.04109474 78.52482891 22.05181217 C72.56545422 22.05696382 66.60609456 22.06391524 60.64672852 22.07543945 C33.4129659 22.12675828 6.21655064 22.04679717 -21 21 C-22.64182722 17.11434225 -23.34654982 13.91066107 -23.625 9.6875 C-23.73714844 8.08455078 -23.73714844 8.08455078 -23.8515625 6.44921875 C-23.90054688 5.64097656 -23.94953125 4.83273438 -24 4 C-21.31466436 3.32338 -18.627275 2.65853879 -15.9375 2 C-15.18533203 1.80921875 -14.43316406 1.6184375 -13.65820312 1.421875 C-8.97226664 0.2858904 -4.82067454 -0.20486266 0 0 Z " fill="#77A6CA" transform="translate(132,174)"/>
<path d="M0 0 C7.4930534 -0.0506268 14.98606284 -0.08570263 22.47924805 -0.10986328 C25.02939502 -0.11993328 27.57953042 -0.13359004 30.12963867 -0.15087891 C33.7908819 -0.17508312 37.45197274 -0.18647305 41.11328125 -0.1953125 C42.82902092 -0.21079636 42.82902092 -0.21079636 44.579422 -0.22659302 C45.64029526 -0.22674408 46.70116852 -0.22689514 47.79418945 -0.22705078 C48.72906693 -0.231492 49.6639444 -0.23593323 50.62715149 -0.24050903 C53 0 53 0 56 2 C56.72430788 5.99198693 56.78397825 9.93879116 57 14 C51.06 14 45.12 14 39 14 C38.505 11.525 38.505 11.525 38 9 C32.72 8.67 27.44 8.34 22 8 C21.67 6.35 21.34 4.7 21 3 C14.4 2.67 7.8 2.34 1 2 C0.67 1.34 0.34 0.68 0 0 Z " fill="#BFBCBC" transform="translate(18,180)"/>
<path d="M0 0 C0.99 0 1.98 0 3 0 C3.67031719 1.9570868 4.33614683 3.91571113 5 5.875 C5.556875 7.51082031 5.556875 7.51082031 6.125 9.1796875 C7.34158911 13.10101491 7 16.89799814 7 21 C8.65 21 10.3 21 12 21 C12.12375 20.13375 12.2475 19.2675 12.375 18.375 C12.98058121 15.10486147 13.88306035 12.12743101 15 9 C15.99 9 16.98 9 18 9 C20.57886807 15.05473373 21.61020794 20.44074057 22 27 C22.70125 27.268125 23.4025 27.53625 24.125 27.8125 C27.14835036 29.06127515 30.07424036 30.53712018 33 32 C33.33 26.06 33.66 20.12 34 14 C32.35 13.34 30.7 12.68 29 12 C27.6875 9.875 27.6875 9.875 27 8 C30.25680307 9.1432774 32.65161729 10.44139916 35 13 C36.03659857 17.62252426 35.75331716 22.1042108 35.5 26.8125 C35.46390625 28.07771484 35.4278125 29.34292969 35.390625 30.64648438 C35.29640876 33.76739744 35.16498197 36.88215808 35 40 C33.5882217 40.53394179 32.17029756 41.05165104 30.75 41.5625 C29.96109375 41.85253906 29.1721875 42.14257812 28.359375 42.44140625 C25.76732033 43.05508807 24.43321048 43.0712586 22 42 C21.67 41.01 21.34 40.02 21 39 C21.66 39 22.32 39 23 39 C22.71382812 38.22398437 22.42765625 37.44796875 22.1328125 36.6484375 C20.698161 32.02787026 19.78911959 27.37165064 18.875 22.625 C18.69324219 21.69816406 18.51148437 20.77132812 18.32421875 19.81640625 C17.87929104 17.5449332 17.43798794 15.27281954 17 13 C14.97827167 16.03259249 14.56555222 17.55304651 14 21.0625 C13.22961623 25.67257428 12.34595916 30.23848302 11.3671875 34.80859375 C10.88983055 37.28717469 10.88983055 37.28717469 11 41 C10.01 41 9.02 41 8 41 C7.505 39.515 7.505 39.515 7 38 C7.66 38 8.32 38 9 38 C8.505 37.05125 8.01 36.1025 7.5 35.125 C6 32 6 32 6 30 C6.66 30 7.32 30 8 30 C7.67 29.236875 7.34 28.47375 7 27.6875 C6 25 6 25 6 22 C5.505 20.6078125 5.505 20.6078125 5 19.1875 C4 16 4 16 4.0625 13 C3.9863232 9.34351379 2.79546243 7.14205925 1 4 C0.01 4.495 0.01 4.495 -1 5 C-0.67 3.35 -0.34 1.7 0 0 Z " fill="#B2D4E9" transform="translate(15,115)"/>
<path d="M0 0 C0.66 0.33 1.32 0.66 2 1 C2.59255767 3.26949587 3.07306162 5.5686046 3.5 7.875 C3.62673096 8.54885742 3.75346191 9.22271484 3.8840332 9.91699219 C4.14089794 11.28932335 4.393915 12.66238033 4.64306641 14.03613281 C4.964476 15.80454508 5.29974164 17.57042553 5.63671875 19.3359375 C7 26.54875887 7 26.54875887 7 30 C7.495 31.485 7.495 31.485 8 33 C23.84 33.495 23.84 33.495 40 34 C40 34.66 40 35.32 40 36 C16.9 35.67 -6.2 35.34 -30 35 C-30 34.67 -30 34.34 -30 34 C-29.03175293 34.00954712 -29.03175293 34.00954712 -28.04394531 34.01928711 C-25.1114589 34.0279865 -22.18212028 33.98331438 -19.25 33.9375 C-18.23421875 33.94845703 -17.2184375 33.95941406 -16.171875 33.97070312 C-10.78017538 34.041634 -10.78017538 34.041634 -6.40429688 31.37939453 C-5.12395556 29.25733823 -5.12395556 29.25733823 -4 26 C-4.66 25.67 -5.32 25.34 -6 25 C-5.54177532 21.53058454 -5.10868317 18.32604951 -4 15 C-3.49775331 12.23553292 -3.04671046 9.46497639 -2.59765625 6.69140625 C-2.03597671 4.16201275 -1.26815095 2.244468 0 0 Z " fill="#18477A" transform="translate(31,127)"/>
<path d="M0 0 C2.62434747 0.36197896 3.82013689 0.82656057 5.75 2.6875 C7 5 7 5 7 11 C-37.88 11 -82.76 11 -129 11 C-128.67 10.01 -128.34 9.02 -128 8 C-62.165 8.495 -62.165 8.495 5 9 C2.71183213 2.46423835 2.71183213 2.46423835 0 0 Z " fill="#163F67" transform="translate(241,183)"/>
<path d="M0 0 C14.42077455 -0.04669944 28.8415374 -0.08184583 43.26237202 -0.10362434 C49.95806398 -0.11407529 56.65370364 -0.12801003 63.34936523 -0.15087891 C69.80730375 -0.17256049 76.26519342 -0.18455874 82.72316551 -0.18975449 C85.19080563 -0.19345867 87.65844299 -0.2006917 90.12606239 -0.21146011 C93.57409127 -0.22591268 97.02191656 -0.22798055 100.4699707 -0.22705078 C102.01068993 -0.23783661 102.01068993 -0.23783661 103.58253479 -0.24884033 C104.52062988 -0.246091 105.45872498 -0.24334167 106.42524719 -0.24050903 C107.24103398 -0.24235262 108.05682077 -0.24419621 108.89732838 -0.24609566 C111 0 111 0 114 2 C113.67 3.65 113.34 5.3 113 7 C109.7 7 106.4 7 103 7 C103 6.67 103 6.34 103 6 C107.455 5.505 107.455 5.505 112 5 C112 4.34 112 3.68 112 3 C76.69 3 41.38 3 5 3 C5.99 3.33 6.98 3.66 8 4 C8.103125 4.7425 8.20625 5.485 8.3125 6.25 C9.04253504 9.17014018 10.06789398 10.73187554 12 13 C8.62801098 11.53424802 6.35012996 9.64818479 3.75 7.0625 C3.04359375 6.37285156 2.3371875 5.68320313 1.609375 4.97265625 C0 3 0 3 0 0 Z " fill="#CAC3C1" transform="translate(116,198)"/>
<path d="M0 0 C0.66 0.33 1.32 0.66 2 1 C1.360625 1.350625 0.72125 1.70125 0.0625 2.0625 C-2.82163832 4.77184206 -2.7100822 7.15858911 -3 11 C-1.24890978 10.37806106 0.50083031 9.75232002 2.25 9.125 C3.71179688 8.60292969 3.71179688 8.60292969 5.203125 8.0703125 C7.93297895 7.09352019 7.93297895 7.09352019 10.109375 5.8671875 C12 5 12 5 16 5 C16 17.87 16 30.74 16 44 C15.01 44 14.02 44 13 44 C13.33 38.72 13.66 33.44 14 28 C13.34 28 12.68 28 12 28 C12 27.34 12 26.68 12 26 C12.66 26 13.32 26 14 26 C14 21.38 14 16.76 14 12 C4.46150064 14.35778362 4.46150064 14.35778362 -5 17 C-5.13489391 14.73078464 -5.23193995 12.4592933 -5.3125 10.1875 C-5.37050781 8.92292969 -5.42851563 7.65835938 -5.48828125 6.35546875 C-5 3 -5 3 -2.60546875 0.98828125 C-1.74566406 0.66214844 -0.88585938 0.33601562 0 0 Z " fill="#BBD4E2" transform="translate(57,137)"/>
<path d="M0 0 C0 3.96 0 7.92 0 12 C-6.27 12 -12.54 12 -19 12 C-19 9.69 -19 7.38 -19 5 C-16.9635505 4.15399724 -14.92056513 3.3237175 -12.875 2.5 C-11.73804688 2.0359375 -10.60109375 1.571875 -9.4296875 1.09375 C-6 0 -6 0 0 0 Z " fill="#5292C6" transform="translate(71,149)"/>
<path d="M0 0 C0.99 0 1.98 0 3 0 C3.67031719 1.9570868 4.33614683 3.91571113 5 5.875 C5.556875 7.51082031 5.556875 7.51082031 6.125 9.1796875 C7.34158911 13.10101491 7 16.89799814 7 21 C8.65 21 10.3 21 12 21 C12.12375 20.13375 12.2475 19.2675 12.375 18.375 C12.98058121 15.10486147 13.88306035 12.12743101 15 9 C15.99 9 16.98 9 18 9 C20.57886807 15.05473373 21.61020794 20.44074057 22 27 C21.34 26.67 20.68 26.34 20 26 C19.37330801 23.83532539 18.84572626 21.64135476 18.375 19.4375 C18.11460938 18.23996094 17.85421875 17.04242188 17.5859375 15.80859375 C17.39257812 14.88175781 17.19921875 13.95492187 17 13 C14.97827167 16.03259249 14.56555222 17.55304651 14 21.0625 C13.22961623 25.67257428 12.34595916 30.23848302 11.3671875 34.80859375 C10.88983055 37.28717469 10.88983055 37.28717469 11 41 C10.01 41 9.02 41 8 41 C7.505 39.515 7.505 39.515 7 38 C7.66 38 8.32 38 9 38 C8.505 37.05125 8.01 36.1025 7.5 35.125 C6 32 6 32 6 30 C6.66 30 7.32 30 8 30 C7.67 29.236875 7.34 28.47375 7 27.6875 C6 25 6 25 6 22 C5.505 20.6078125 5.505 20.6078125 5 19.1875 C4 16 4 16 4.0625 13 C3.9863232 9.34351379 2.79546243 7.14205925 1 4 C0.01 4.495 0.01 4.495 -1 5 C-0.67 3.35 -0.34 1.7 0 0 Z " fill="#C6D4E0" transform="translate(15,115)"/>
<path d="M0 0 C22.77 0 45.54 0 69 0 C69 0.33 69 0.66 69 1 C46.68598487 2.40087987 24.34614437 2.08910735 2 2 C2 10.58 2 19.16 2 28 C1.34 28 0.68 28 0 28 C0 18.76 0 9.52 0 0 Z " fill="#2E597F" transform="translate(2,40)"/>
<path d="M0 0 C0.99 0 1.98 0 3 0 C3.00586624 0.76706268 3.01173248 1.53412537 3.01777649 2.32443237 C3.07593862 9.59130545 3.14814743 16.8578448 3.23571491 24.12441826 C3.28023867 27.85929029 3.31953296 31.59405775 3.34643555 35.32910156 C3.37265002 38.94087485 3.41317646 42.55224177 3.46318626 46.16376114 C3.47973348 47.53424101 3.49132273 48.90479097 3.49761391 50.27535629 C3.54827117 60.30672829 4.32928265 69.32685224 9.75 78 C11.109375 80.1875 11.109375 80.1875 12 82 C11.505 82.99 11.505 82.99 11 84 C3.08093386 71.66754127 0.71442687 62.28230635 0.5859375 47.65625 C0.56719718 46.27761717 0.5476217 44.89899546 0.5272522 43.52038574 C0.47622694 39.91693726 0.43644425 36.31345171 0.39910889 32.70983887 C0.35888202 29.02261408 0.30787557 25.33553953 0.2578125 21.6484375 C0.16140451 14.43239525 0.07688913 7.21627945 0 0 Z " fill="#DCD5CF" transform="translate(100,117)"/>
<path d="M0 0 C17.82 0 35.64 0 54 0 C54 0.99 54 1.98 54 3 C36.18 3 18.36 3 0 3 C0 2.01 0 1.02 0 0 Z " fill="#57524A" transform="translate(17,165)"/>
<path d="M0 0 C0.33 0.99 0.66 1.98 1 3 C18.82 3 36.64 3 55 3 C55 3.99 55 4.98 55 6 C49.72046234 6.02506903 44.44096075 6.04303104 39.16137695 6.05493164 C37.3723083 6.05990261 35.58324358 6.06668173 33.79418945 6.07543945 C22.81220467 6.1277786 11.94738305 5.92505752 1 5 C0.67 3.35 0.34 1.7 0 0 Z " fill="#9D9796" transform="translate(16,165)"/>
<path d="M0 0 C1.875 1.0625 1.875 1.0625 3 3 C3.4375 6.5 3.4375 6.5 3 10 C1.4375 12 1.4375 12 -1 13 C-4.625 12.9375 -4.625 12.9375 -8 12 C-9.5 10.3125 -9.5 10.3125 -10 8 C-9.8125 4.875 -9.8125 4.875 -9 2 C-5.53076119 -0.31282587 -4.07794425 -0.42478586 0 0 Z " fill="#C0DEEB" transform="translate(157,96)"/>
<path d="M0 0 C17.49 0 34.98 0 53 0 C53.495 1.98 53.495 1.98 54 4 C27.765 3.01 27.765 3.01 1 2 C0.67 1.34 0.34 0.68 0 0 Z " fill="#AAA4A5" transform="translate(18,180)"/>
<path d="M0 0 C-0.9668416 8.99623092 -0.9668416 8.99623092 -4 13 C-4.66 13.33 -5.32 13.66 -6 14 C-5.71125 13.34 -5.4225 12.68 -5.125 12 C-3.78660173 8.43093794 -2.92448758 4.69795032 -2 1 C-16.85 1 -31.7 1 -47 1 C-47 6.61 -47 12.22 -47 18 C-44.36 18 -41.72 18 -39 18 C-36 18.5 -36 18.5 -34 19 C-34 19.66 -34 20.32 -34 21 C-38.95 20.67 -43.9 20.34 -49 20 C-49 13.4 -49 6.8 -49 0 C-32.57095194 -1.05615309 -16.43854332 -0.79115984 0 0 Z " fill="#D3E6EE" transform="translate(154,72)"/>
<path d="M0 0 C2.19470368 3.95046662 3 7.48763697 3 12 C2.67 12.66 2.34 13.32 2 14 C0.68 14 -0.64 14 -2 14 C-2 14.66 -2 15.32 -2 16 C-1.34 16 -0.68 16 0 16 C-1.875 21.875 -1.875 21.875 -3 23 C-4.66617115 23.04063832 -6.33388095 23.042721 -8 23 C-8 23.99 -8 24.98 -8 26 C-1.4 26 5.2 26 12 26 C7.5 28.25 7.5 28.25 3.890625 27.9765625 C3.13652344 27.925 2.38242188 27.8734375 1.60546875 27.8203125 C0.82816406 27.75585938 0.05085937 27.69140625 -0.75 27.625 C-1.54277344 27.56828125 -2.33554688 27.5115625 -3.15234375 27.453125 C-5.10231735 27.31216305 -7.05128671 27.1574288 -9 27 C-9.21875 19.3671875 -9.21875 19.3671875 -7.25 16.0625 C-4.95714179 13.96071331 -3.93687346 13.58614071 -1 13 C-1.01160156 12.22914063 -1.02320313 11.45828125 -1.03515625 10.6640625 C-1.04869141 9.15972656 -1.04869141 9.15972656 -1.0625 7.625 C-1.07410156 6.62726563 -1.08570313 5.62953125 -1.09765625 4.6015625 C-1 2 -1 2 0 0 Z " fill="#BBD7E8" transform="translate(9,137)"/>
<path d="M0 0 C0.6809082 1.83081055 0.6809082 1.83081055 1 4 C-0.52363394 5.42493701 -2.04854091 6.8485813 -3.58447266 8.26025391 C-6.12620671 11.38415816 -5.77106456 14.81344692 -5.6875 18.6875 C-5.64124482 26.46497783 -5.64124482 26.46497783 -7.3515625 29.015625 C-9 30 -9 30 -11.6875 30.0625 C-15.55469397 28.82207929 -17.98113657 26.95551644 -21.0703125 24.375 C-24.83568597 21.69198085 -28.48696705 21.89743107 -33 22 C-33 22.66 -33 23.32 -33 24 C-33.66 24 -34.32 24 -35 24 C-35 23.34 -35 22.68 -35 22 C-35.99 21.67 -36.98 21.34 -38 21 C-37.625 18.5625 -37.625 18.5625 -37 16 C-36.34 15.67 -35.68 15.34 -35 15 C-35.99 17.475 -35.99 17.475 -37 20 C-35.53240234 19.87818359 -35.53240234 19.87818359 -34.03515625 19.75390625 C-22.00338514 19.1742044 -22.00338514 19.1742044 -16.875 23.5625 C-16.23304688 24.22378906 -15.59109375 24.88507813 -14.9296875 25.56640625 C-13.02965921 27.31546217 -13.02965921 27.31546217 -10.2578125 26.71484375 C-9.51273438 26.47894531 -8.76765625 26.24304688 -8 26 C-7.99742187 24.84242187 -7.99484375 23.68484375 -7.9921875 22.4921875 C-7.95464847 20.95308709 -7.91550067 19.41402533 -7.875 17.875 C-7.87886719 16.73417969 -7.87886719 16.73417969 -7.8828125 15.5703125 C-7.73065228 11.15766599 -7.24374592 8.76043015 -4.0078125 5.6328125 C-3.01523438 4.76398438 -2.02265625 3.89515625 -1 3 C-0.67 2.01 -0.34 1.02 0 0 Z " fill="#CAC6C5" transform="translate(227,62)"/>
<path d="M0 0 C12.87 0 25.74 0 39 0 C38.67 2.31 38.34 4.62 38 7 C37.67 7 37.34 7 37 7 C37 5.35 37 3.7 37 2 C36.08863281 2.0721875 35.17726562 2.144375 34.23828125 2.21875 C22.81516083 3.03712281 11.44890625 3.10854418 0 3 C0 2.01 0 1.02 0 0 Z " fill="#51483F" transform="translate(32,171)"/>
<path d="M0 0 C10.23 0 20.46 0 31 0 C31.33 0.99 31.66 1.98 32 3 C21.44 3 10.88 3 0 3 C0 2.01 0 1.02 0 0 Z " fill="#594F45" transform="translate(40,183)"/>
<path d="M0 0 C1.22995949 0.9156026 2.45892386 1.83254203 3.6875 2.75 C4.42742187 3.30171875 5.16734375 3.8534375 5.9296875 4.421875 C7.4295898 5.56519675 8.88602 6.76628757 10.3125 8 C16.5560226 12.6463424 23.3845501 16.3076778 31 18 C31 18.99 31 19.98 31 21 C26.70839209 21.05871491 22.41688942 21.09383483 18.125 21.125 C16.92101562 21.14175781 15.71703125 21.15851563 14.4765625 21.17578125 C7.39248309 21.21428168 0.87332825 20.76050885 -6 19 C-6 18.67 -6 18.34 -6 18 C0.51597837 17.87469272 0.51597837 17.87469272 2.92285156 18.49780273 C5.34057967 19.08234278 7.49797444 19.11281723 9.984375 19.09765625 C10.91894531 19.09443359 11.85351562 19.09121094 12.81640625 19.08789062 C14.26853516 19.07532227 14.26853516 19.07532227 15.75 19.0625 C16.73355469 19.05798828 17.71710938 19.05347656 18.73046875 19.04882812 C21.15370791 19.03706483 23.57682273 19.02062684 26 19 C24.96101563 18.52691406 23.92203125 18.05382812 22.8515625 17.56640625 C14.14961644 13.48475929 6.39203834 9.4061598 0 2 C0 1.34 0 0.68 0 0 Z " fill="#CCC6BF" transform="translate(116,206)"/>
<path d="M0 0 C0.99 0 1.98 0 3 0 C3.12086218 6.43255401 2.82351864 12.61773055 2 19 C2.66 19.33 3.32 19.66 4 20 C3.67 20.33 3.34 20.66 3 21 C2.76321284 23.69235776 2.57801975 26.36498156 2.4375 29.0625 C2.39431641 29.82111328 2.35113281 30.57972656 2.30664062 31.36132812 C2.20026367 33.24065438 2.09960066 35.12030244 2 37 C1.67 37 1.34 37 1 37 C1 33.7 1 30.4 1 27 C0.0925 26.773125 -0.815 26.54625 -1.75 26.3125 C-5.44888324 24.81872023 -6.77905658 23.24599423 -9 20 C-8.67 19.34 -8.34 18.68 -8 18 C-7.4225 18.78375 -6.845 19.5675 -6.25 20.375 C-4.03031695 23.30822236 -4.03031695 23.30822236 0 25 C0 16.75 0 8.5 0 0 Z " fill="#274F76" transform="translate(50,101)"/>
<path d="M0 0 C0 12.87 0 25.74 0 39 C-0.99 39 -1.98 39 -3 39 C-2.67 33.72 -2.34 28.44 -2 23 C-2.66 23 -3.32 23 -4 23 C-4 22.34 -4 21.68 -4 21 C-3.34 21 -2.68 21 -2 21 C-2 14.73 -2 8.46 -2 2 C-3.98 2.99 -3.98 2.99 -6 4 C-8.25 3.625 -8.25 3.625 -10 3 C-6.27034861 0.96564469 -4.33094958 0 0 0 Z " fill="#DADBDC" transform="translate(73,142)"/>
<path d="M0 0 C1.65 0.33 3.3 0.66 5 1 C5.08953853 4.85015692 4.79126089 8.24151077 4 12 C4 13.32 4 14.64 4 16 C3 18.25 3 18.25 2 20 C1.01 19.34 0.02 18.68 -1 18 C-1 17.34 -1 16.68 -1 16 C-0.34 16 0.32 16 1 16 C0.505 15.05125 0.01 14.1025 -0.5 13.125 C-2 10 -2 10 -2 8 C-1.34 8 -0.68 8 0 8 C-0.556875 6.8553125 -0.556875 6.8553125 -1.125 5.6875 C-1.41375 4.800625 -1.7025 3.91375 -2 3 C-1.34 2.01 -0.68 1.02 0 0 Z " fill="#9ECAE6" transform="translate(23,137)"/>
<path d="M0 0 C0.33 0.99 0.66 1.98 1 3 C7.6 3 14.2 3 21 3 C21.495 4.485 21.495 4.485 22 6 C20.9805127 6.01981934 19.96102539 6.03963867 18.91064453 6.06005859 C15.13467352 6.13602808 11.35909227 6.22475809 7.58349609 6.31738281 C5.9481576 6.35570852 4.31273376 6.39055507 2.67724609 6.421875 C0.3287909 6.46744842 -2.01907495 6.52545367 -4.3671875 6.5859375 C-5.46726639 6.60326431 -5.46726639 6.60326431 -6.58956909 6.62094116 C-10.74977105 6.61868097 -10.74977105 6.61868097 -14 9 C-13.67 7.68 -13.34 6.36 -13 5 C-6.565 4.505 -6.565 4.505 0 4 C0 2.68 0 1.36 0 0 Z " fill="#BAB8B4" transform="translate(31,171)"/>
<path d="M0 0 C0.99 0 1.98 0 3 0 C4.00038889 27.1297773 4.00038889 27.1297773 -2.37890625 35.89453125 C-3.75 37.3125 -3.75 37.3125 -6 39 C-6.66 38.67 -7.32 38.34 -8 38 C-7.50628906 37.24074219 -7.01257813 36.48148438 -6.50390625 35.69921875 C-5.86324219 34.70535156 -5.22257812 33.71148437 -4.5625 32.6875 C-3.60537109 31.20830078 -3.60537109 31.20830078 -2.62890625 29.69921875 C-0.25559568 25.7664667 0.12151342 22.96603628 0.09765625 18.45703125 C0.09443359 17.38388672 0.09121094 16.31074219 0.08789062 15.20507812 C0.07951172 14.08552734 0.07113281 12.96597656 0.0625 11.8125 C0.05798828 10.68134766 0.05347656 9.55019531 0.04882812 8.38476562 C0.03703498 5.58979073 0.0205765 2.7949218 0 0 Z " fill="#E3F3F9" transform="translate(100,85)"/>
<path d="M0 0 C18.81 0 37.62 0 57 0 C57 0.33 57 0.66 57 1 C56.40309357 1.00808685 55.80618713 1.01617371 55.19119263 1.02450562 C48.9945903 1.11037197 42.79831452 1.20986693 36.60205078 1.31738281 C34.28765331 1.35573401 31.97319498 1.3905759 29.65869141 1.421875 C26.33734336 1.4673924 23.01641659 1.52540843 19.6953125 1.5859375 C18.65569366 1.59748871 17.61607483 1.60903992 16.54495239 1.62094116 C15.58410736 1.64081085 14.62326233 1.66068054 13.63330078 1.68115234 C12.36089035 1.70113785 12.36089035 1.70113785 11.06277466 1.7215271 C8.77813881 1.81776158 8.77813881 1.81776158 7 4 C7.33 4.66 7.66 5.32 8 6 C4.33759908 4.43039961 3.06096354 3.06096354 0 0 Z " fill="#1B4D7B" transform="translate(88,41)"/>
<path d="M0 0 C1.65 0.33 3.3 0.66 5 1 C3.78065514 5.03321763 2.44045073 8.54269479 0 12 C-0.66 12 -1.32 12 -2 12 C-3.65 8.7 -5.3 5.4 -7 2 C-4.69 2 -2.38 2 0 2 C0 1.34 0 0.68 0 0 Z " fill="#5893C2" transform="translate(159,165)"/>
<path d="M0 0 C3.47242658 0.55886694 4.7695595 1.53498385 6.875 4.3125 C8.87003798 6.79611871 10.66821162 8.62714119 13.375 10.3125 C14.24125 10.869375 15.1075 11.42625 16 12 C16 12.66 16 13.32 16 14 C16.66 14 17.32 14 18 14 C18.33 14.99 18.66 15.98 19 17 C15.05439654 15.6236267 12.18151744 13.80978922 8.9375 11.1875 C8.10089844 10.52105469 7.26429687 9.85460937 6.40234375 9.16796875 C3.93697051 6.94311973 1.93185723 4.69924625 0 2 C0 1.34 0 0.68 0 0 Z " fill="#AC9C90" transform="translate(83,204)"/>
<path d="M0 0 C3.86107457 2.57404971 3.94319692 4.61020259 5 9 C4.01 9.495 4.01 9.495 3 10 C3 9.34 3 8.68 3 8 C-0.00259517 7.66781808 -0.00259517 7.66781808 -1.6875 9.5 C-2.120625 9.995 -2.55375 10.49 -3 11 C-3.66 9.35 -4.32 7.7 -5 6 C-4.34 5.67 -3.68 5.34 -3 5 C-2.67 4.01 -2.34 3.02 -2 2 C-1.34 2 -0.68 2 0 2 C0 1.34 0 0.68 0 0 Z " fill="#587797" transform="translate(15,118)"/>
<path d="M0 0 C6.27 0 12.54 0 19 0 C19.33 0.99 19.66 1.98 20 3 C12.93391809 3.13794954 6.02639415 2.74805717 -1 2 C-0.67 1.34 -0.34 0.68 0 0 Z " fill="#453F35" transform="translate(209,200)"/>
<path d="M0 0 C0.66 0.33 1.32 0.66 2 1 C2.63801836 3.5315866 3.16687368 5.99839502 3.625 8.5625 C3.7590625 9.27341797 3.893125 9.98433594 4.03125 10.71679688 C4.36191847 12.47642553 4.68195767 14.23804548 5 16 C4.34 16.33 3.68 16.66 3 17 C2.89042969 16.43410156 2.78085937 15.86820313 2.66796875 15.28515625 C2.50941406 14.55167969 2.35085937 13.81820312 2.1875 13.0625 C2.03667969 12.33160156 1.88585938 11.60070312 1.73046875 10.84765625 C1.36888672 9.93306641 1.36888672 9.93306641 1 9 C0.01 8.67 -0.98 8.34 -2 8 C-1.125 1.125 -1.125 1.125 0 0 Z " fill="#194574" transform="translate(31,127)"/>
<path d="M0 0 C4.95 0 9.9 0 15 0 C15.33 0.99 15.66 1.98 16 3 C10.72 3 5.44 3 0 3 C0 2.01 0 1.02 0 0 Z " fill="#534840" transform="translate(57,190)"/>
<path d="M0 0 C0.33 0.99 0.66 1.98 1 3 C-5.435 3.495 -5.435 3.495 -12 4 C-8.7 4.33 -5.4 4.66 -2 5 C-2.66 6.32 -3.32 7.64 -4 9 C-8.455 8.01 -8.455 8.01 -13 7 C-13.33 5.68 -13.66 4.36 -14 3 C-13 2 -13 2 -10.05859375 1.90234375 C-8.26615234 1.91974609 -8.26615234 1.91974609 -6.4375 1.9375 C-4.64119141 1.95103516 -4.64119141 1.95103516 -2.80859375 1.96484375 C-1.88175781 1.97644531 -0.95492187 1.98804688 0 2 C0 1.34 0 0.68 0 0 Z " fill="#BFBDBA" transform="translate(218,205)"/>
<path d="M0 0 C0 6.93 0 13.86 0 21 C-0.33 21 -0.66 21 -1 21 C-1.96205088 14.62641289 -2.10655578 8.44070471 -2 2 C-2.61359375 2.33773437 -3.2271875 2.67546875 -3.859375 3.0234375 C-6.4056713 4.18506902 -7.42143135 3.92091738 -10 3 C-6.27034861 0.96564469 -4.33094958 0 0 0 Z " fill="#DFF0F7" transform="translate(73,142)"/>
<path d="M0 0 C1.32 0 2.64 0 4 0 C4 0.66 4 1.32 4 2 C10.01339937 3.95928381 15.69632197 5.41632611 22 6 C22 6.99 22 7.98 22 9 C14.877637 8.51438434 6.52924006 6.15852156 1.140625 1.3359375 C0.76421875 0.89507812 0.3878125 0.45421875 0 0 Z " fill="#B4B3B3" transform="translate(132,214)"/>
<path d="M0 0 C0.33 0 0.66 0 1 0 C1 2.97 1 5.94 1 9 C2.918125 8.938125 2.918125 8.938125 4.875 8.875 C7.0546875 8.8046875 7.0546875 8.8046875 9 9 C9.66 9.66 10.32 10.32 11 11 C5.555 12.485 5.555 12.485 0 14 C0 9.38 0 4.76 0 0 Z " fill="#99C1DE" transform="translate(52,140)"/>
<path d="M0 0 C0.66 0.33 1.32 0.66 2 1 C1.855625 1.67546875 1.71125 2.3509375 1.5625 3.046875 C1.376875 3.93890625 1.19125 4.8309375 1 5.75 C0.814375 6.63171875 0.62875 7.5134375 0.4375 8.421875 C-0.11153675 11.22143965 -0.11153675 11.22143965 0 15 C-0.99 15 -1.98 15 -3 15 C-3.33 14.01 -3.66 13.02 -4 12 C-3.34 12 -2.68 12 -2 12 C-2.66 10.35 -3.32 8.7 -4 7 C-3.01 7 -2.02 7 -1 7 C-0.67 4.69 -0.34 2.38 0 0 Z " fill="#81AED0" transform="translate(26,141)"/>
<path d="M0 0 C1.37478516 0.01740234 1.37478516 0.01740234 2.77734375 0.03515625 C3.69644531 0.04417969 4.61554688 0.05320313 5.5625 0.0625 C6.27277344 0.07410156 6.98304688 0.08570313 7.71484375 0.09765625 C6.07776542 2.08275683 5.21388228 3.01612929 2.63012695 3.43823242 C1.84984131 3.42252197 1.06955566 3.40681152 0.265625 3.390625 C-0.58193359 3.38095703 -1.42949219 3.37128906 -2.30273438 3.36132812 C-3.18380859 3.33619141 -4.06488281 3.31105469 -4.97265625 3.28515625 C-5.86533203 3.27162109 -6.75800781 3.25808594 -7.67773438 3.24414062 C-9.88081791 3.20879704 -12.08268207 3.15946118 -14.28515625 3.09765625 C-14.28515625 2.76765625 -14.28515625 2.43765625 -14.28515625 2.09765625 C-13.50269531 2.03707031 -12.72023437 1.97648438 -11.9140625 1.9140625 C-10.90214844 1.83027344 -9.89023438 1.74648437 -8.84765625 1.66015625 C-7.83832031 1.57894531 -6.82898438 1.49773437 -5.7890625 1.4140625 C-3.03433753 1.06596153 -2.71135493 0.11586987 0 0 Z " fill="#443B32" transform="translate(205.28515625,211.90234375)"/>
<path d="M0 0 C0 0.33 0 0.66 0 1 C-0.62648438 1.02578125 -1.25296875 1.0515625 -1.8984375 1.078125 C-2.71570312 1.13484375 -3.53296875 1.1915625 -4.375 1.25 C-5.18710937 1.29640625 -5.99921875 1.3428125 -6.8359375 1.390625 C-9.15309763 1.78150132 -9.15309763 1.78150132 -10.1640625 3.859375 C-10.43992187 4.56578125 -10.71578125 5.2721875 -11 6 C-11.99 7.485 -11.99 7.485 -13 9 C-14.32 8.67 -15.64 8.34 -17 8 C-16.34 8 -15.68 8 -15 8 C-14.731875 7.236875 -14.46375 6.47375 -14.1875 5.6875 C-13.0364442 3.08247899 -12.19546244 1.75636995 -10 0 C-6.30581799 -1.231394 -3.7943739 -0.64432764 0 0 Z " fill="#A0C6E1" transform="translate(56,77)"/>
<path d="M0 0 C0 1.65 0 3.3 0 5 C-3.63 5 -7.26 5 -11 5 C-11 4.34 -11 3.68 -11 3 C-9.35467212 2.49833923 -7.70872301 1.99871553 -6.0625 1.5 C-4.68771484 1.08234375 -4.68771484 1.08234375 -3.28515625 0.65625 C-1 0 -1 0 0 0 Z " fill="#5797CA" transform="translate(50,155)"/>
<path d="M0 0 C2.19470368 3.95046662 3 7.48763697 3 12 C2.67 12.66 2.34 13.32 2 14 C1.01 14 0.02 14 -1 14 C-1.02694851 12.04174127 -1.04637218 10.08337774 -1.0625 8.125 C-1.07410156 7.03445312 -1.08570313 5.94390625 -1.09765625 4.8203125 C-1 2 -1 2 0 0 Z " fill="#819AB3" transform="translate(9,137)"/>
<path d="M0 0 C0.99 0 1.98 0 3 0 C3.67220351 1.93558599 4.33758077 3.87354372 5 5.8125 C5.556875 7.43091797 5.556875 7.43091797 6.125 9.08203125 C7 12 7 12 7 15 C6.01 15 5.02 15 4 15 C3.87625 13.9275 3.7525 12.855 3.625 11.75 C3.10356064 8.62136385 2.59911746 6.66519576 1 4 C0.01 4.495 0.01 4.495 -1 5 C-0.67 3.35 -0.34 1.7 0 0 Z " fill="#D1DCE4" transform="translate(15,115)"/>
<path d="M0 0 C0 0.66 0 1.32 0 2 C0.99 2.33 1.98 2.66 3 3 C-1.4378561 4.11165232 -5.76956386 4.11527763 -10.3125 4.0625 C-11.05306641 4.05798828 -11.79363281 4.05347656 -12.55664062 4.04882812 C-14.37112899 4.03712175 -16.18557534 4.01918898 -18 4 C-18 3.67 -18 3.34 -18 3 C-13.545 2.505 -13.545 2.505 -9 2 C-9 1.67 -9 1.34 -9 1 C-2.25 0 -2.25 0 0 0 Z " fill="#4A3F33" transform="translate(185,220)"/>
<path d="M0 0 C0.33 0 0.66 0 1 0 C1 1.65 1 3.3 1 5 C1.99 4.01 2.98 3.02 4 2 C4.66 2.33 5.32 2.66 6 3 C2.83451967 6.88901869 -0.40365256 10.50640535 -4 14 C-4.66 13.67 -5.32 13.34 -6 13 C-5.525625 12.566875 -5.05125 12.13375 -4.5625 11.6875 C-2.76313043 9.97690387 -2.76313043 9.97690387 -2 7 C-1.34 7 -0.68 7 0 7 C0 4.69 0 2.38 0 0 Z " fill="#5B7591" transform="translate(62,122)"/>
<path d="M0 0 C0.99 0 1.98 0 3 0 C2.0677534 2.79673981 0.93832733 5.44662331 -0.234375 8.1484375 C-1.29805774 10.7208131 -2.15905227 13.34778024 -3 16 C-3.33 16 -3.66 16 -4 16 C-3.47606294 10.13190493 -2.23891142 5.45126259 0 0 Z " fill="#A7B7C7" transform="translate(171,112)"/>
<path d="M0 0 C0 1.65 0 3.3 0 5 C-3.3 5.33 -6.6 5.66 -10 6 C-9.01 5.67 -8.02 5.34 -7 5 C-6.67 4.01 -6.34 3.02 -6 2 C-3.85412616 0.684787 -2.52986895 0 0 0 Z " fill="#A5D1E9" transform="translate(71,144)"/>
<path d="M0 0 C0.33 0.99 0.66 1.98 1 3 C-0.65 4.65 -2.3 6.3 -4 8 C-2.35 8.33 -0.7 8.66 1 9 C1 9.33 1 9.66 1 10 C-1.64 10 -4.28 10 -7 10 C-6.34 8.35 -5.68 6.7 -5 5 C-4.34 5 -3.68 5 -3 5 C-2.690625 4.360625 -2.38125 3.72125 -2.0625 3.0625 C-1 1 -1 1 0 0 Z " fill="#50433C" transform="translate(197,72)"/>
<path d="M0 0 C0.33 0 0.66 0 1 0 C1.2396943 5.63281599 0.38529821 10.54538831 -1 16 C-1.99 16 -2.98 16 -4 16 C-4 14.35 -4 12.7 -4 11 C-3.34 11 -2.68 11 -2 11 C-1.34 7.37 -0.68 3.74 0 0 Z " fill="#C4D9EA" transform="translate(242,165)"/>
<path d="M0 0 C4.75 0.875 4.75 0.875 7 2 C7 2.66 7 3.32 7 4 C7.66 4 8.32 4 9 4 C9.33 4.99 9.66 5.98 10 7 C5.56541027 5.6062718 3.12621626 3.39417765 0 0 Z " fill="#B1A398" transform="translate(92,214)"/>
<path d="M0 0 C0.66 0 1.32 0 2 0 C2.33 4.29 2.66 8.58 3 13 C0 10 0 10 -0.29296875 7.51953125 C-0.25816406 6.62621094 -0.22335938 5.73289062 -0.1875 4.8125 C-0.16042969 3.91144531 -0.13335937 3.01039062 -0.10546875 2.08203125 C-0.07066406 1.39496094 -0.03585938 0.70789063 0 0 Z " fill="#72859B" transform="translate(39,110)"/>
<path d="M0 0 C1.32 0.33 2.64 0.66 4 1 C4.103125 1.7425 4.20625 2.485 4.3125 3.25 C5.04253504 6.17014018 6.06789398 7.73187554 8 10 C4.63362603 8.5572683 2.33497429 6.83532593 0 4 C0 2.68 0 1.36 0 0 Z " fill="#877F7B" transform="translate(120,201)"/>
<path d="M0 0 C1.485 0.99 1.485 0.99 3 2 C2.34 4.64 1.68 7.28 1 10 C0.34 10 -0.32 10 -1 10 C-1.02689216 8.52093108 -1.04634621 7.04172517 -1.0625 5.5625 C-1.07410156 4.73878906 -1.08570313 3.91507812 -1.09765625 3.06640625 C-1 1 -1 1 0 0 Z " fill="#B2C6D3" transform="translate(53,110)"/>
<path d="M0 0 C0.99 0 1.98 0 3 0 C3 3.3 3 6.6 3 10 C2.34 10 1.68 10 1 10 C0.67 6.7 0.34 3.4 0 0 Z " fill="#81B2D0" transform="translate(241,155)"/>
<path d="M0 0 C0.66 0.33 1.32 0.66 2 1 C-0.31 3.64 -2.62 6.28 -5 9 C-5.99 8.67 -6.98 8.34 -8 8 C-5.36 5.36 -2.72 2.72 0 0 Z " fill="#5F9CC9" transform="translate(210,137)"/>
<path d="M0 0 C0.33 0.66 0.66 1.32 1 2 C-4.14285714 7.57142857 -4.14285714 7.57142857 -8 8 C-8 7.01 -8 6.02 -8 5 C-6.865625 4.731875 -5.73125 4.46375 -4.5625 4.1875 C-3.386875 3.795625 -2.21125 3.40375 -1 3 C-0.67 2.01 -0.34 1.02 0 0 Z " fill="#B9D6E9" transform="translate(36,87)"/>
<path d="M0 0 C0.33 0 0.66 0 1 0 C1.66 3.96 2.32 7.92 3 12 C2.01 12.495 2.01 12.495 1 13 C0.63447197 11.58622218 0.28304505 10.16879424 -0.0625 8.75 C-0.25972656 7.96109375 -0.45695312 7.1721875 -0.66015625 6.359375 C-1.01497267 3.89605178 -0.76877544 2.34395868 0 0 Z " fill="#254A78" transform="translate(33,131)"/>
<path d="M0 0 C0.66 0.99 1.32 1.98 2 3 C1.34 4.32 0.68 5.64 0 7 C-1.37562854 5.71034824 -2.70766393 4.37310707 -4 3 C-4 2.34 -4 1.68 -4 1 C-2.68 0.67 -1.36 0.34 0 0 Z " fill="#92BDDE" transform="translate(155,156)"/>
<path d="M0 0 C0.66 0 1.32 0 2 0 C2.625 2.875 2.625 2.875 3 6 C2.34 6.66 1.68 7.32 1 8 C0.34 7.67 -0.32 7.34 -1 7 C-0.67 4.69 -0.34 2.38 0 0 Z " fill="#1E4A6F" transform="translate(143,126)"/>
<path d="M0 0 C0.99 0.33 1.98 0.66 3 1 C-0.96 4.465 -0.96 4.465 -5 8 C-5.66 7.67 -6.32 7.34 -7 7 C-5.625 5.5 -5.625 5.5 -4 4 C-3.34 4 -2.68 4 -2 4 C-1.34 2.68 -0.68 1.36 0 0 Z " fill="#C4DFEB" transform="translate(97,91)"/>
<path d="M0 0 C0 0.99 0 1.98 0 3 C-2.31 2.67 -4.62 2.34 -7 2 C-7 1.34 -7 0.68 -7 0 C-3.86650268 -1.04449911 -3.01031744 -0.93423645 0 0 Z " fill="#8B8782" transform="translate(154,220)"/>
<path d="M0 0 C1.65 0 3.3 0 5 0 C4.34 1.98 3.68 3.96 3 6 C2.01 5.34 1.02 4.68 0 4 C0 2.68 0 1.36 0 0 Z " fill="#9CCBE5" transform="translate(130,167)"/>
<path d="M0 0 C0.99 0.33 1.98 0.66 3 1 C4.1875 3.5625 4.1875 3.5625 5 6 C4.01 6 3.02 6 2 6 C2 5.01 2 4.02 2 3 C0.02 3.99 0.02 3.99 -2 5 C-1.34 3.35 -0.68 1.7 0 0 Z " fill="#124375" transform="translate(15,125)"/>
<path d="M0 0 C0.99 0 1.98 0 3 0 C3 0.66 3 1.32 3 2 C4.98 1.67 6.96 1.34 9 1 C7.25 2.5625 7.25 2.5625 5 4 C2.8125 3.875 2.8125 3.875 1 3 C0.67 2.01 0.34 1.02 0 0 Z " fill="#9CCBE9" transform="translate(181,158)"/>
<path d="M0 0 C0.66 0 1.32 0 2 0 C2 3.3 2 6.6 2 10 C0.35835645 6.7167129 -0.52087355 4.54553576 -1 1 C-0.67 0.67 -0.34 0.34 0 0 Z " fill="#9BC6E5" transform="translate(36,142)"/>
<path d="M0 0 C0.598125 0.33 1.19625 0.66 1.8125 1 C4.05386471 2.20787988 4.05386471 2.20787988 7 2 C6.67 3.32 6.34 4.64 6 6 C3.5625 5.25 3.5625 5.25 1 4 C0.1875 1.875 0.1875 1.875 0 0 Z " fill="#CDCFCF" transform="translate(190,217)"/>
<path d="M0 0 C0.33 0.66 0.66 1.32 1 2 C0.34 2 -0.32 2 -1 2 C-1 2.66 -1 3.32 -1 4 C-3.97 3.505 -3.97 3.505 -7 3 C-4.64046906 0.64046906 -3.22104383 0.50858587 0 0 Z " fill="#498CC0" transform="translate(131,174)"/>
<path d="M0 0 C0.66 0 1.32 0 2 0 C2.33 0.99 2.66 1.98 3 3 C2.01 3 1.02 3 0 3 C0 2.01 0 1.02 0 0 Z " fill="#F6FFFD" transform="translate(100,225)"/>
<path d="M0 0 C0.66 0.33 1.32 0.66 2 1 C2 1.66 2 2.32 2 3 C1.01 3 0.02 3 -1 3 C-0.67 2.01 -0.34 1.02 0 0 Z " fill="#F6FEFC" transform="translate(233,205)"/>
<path d="M0 0 C0.99 0 1.98 0 3 0 C3 0.66 3 1.32 3 2 C2.01 2 1.02 2 0 2 C0 1.34 0 0.68 0 0 Z " fill="#F6FFFC" transform="translate(165,80)"/>
<path d="M0 0 C0.66 0 1.32 0 2 0 C2 0.66 2 1.32 2 2 C1.34 2 0.68 2 0 2 C0 1.34 0 0.68 0 0 Z " fill="#F6FFFC" transform="translate(37,137)"/>
<path d="M0 0 C0.66 0 1.32 0 2 0 C2 0.66 2 1.32 2 2 C1.34 2 0.68 2 0 2 C0 1.34 0 0.68 0 0 Z " fill="#F6FFFC" transform="translate(34,114)"/>
<path d="M0 0 C0.66 0 1.32 0 2 0 C2 0.66 2 1.32 2 2 C1.34 2 0.68 2 0 2 C0 1.34 0 0.68 0 0 Z " fill="#F6FFFC" transform="translate(137,111)"/>
<path d="M0 0 C2 1 2 1 2 1 Z " fill="#F9FFFE" transform="translate(111,226)"/>
<path d="M0 0 C2 1 2 1 2 1 Z " fill="#FCFFFF" transform="translate(153,225)"/>
<path d="M0 0 C2 1 2 1 2 1 Z " fill="#F9FFFC" transform="translate(150,224)"/>
<path d="" fill="#F6FEFB" transform="translate(0,0)"/>
<path d="M0 0 C2 1 2 1 2 1 Z " fill="#F1FCF9" transform="translate(55,141)"/>
<path d="" fill="#F6FFFD" transform="translate(0,0)"/>
<path d="" fill="#F6FFFC" transform="translate(0,0)"/>
<path d="" fill="#FFFEFE" transform="translate(0,0)"/>
<path d="M0 0 C2 1 2 1 2 1 Z " fill="#F6FFFD" transform="translate(235,112)"/>
<path d="M0 0 C2 1 2 1 2 1 Z " fill="#F6FFFD" transform="translate(132,104)"/>
<path d="M0 0 C2 1 2 1 2 1 Z " fill="#F7FFFE" transform="translate(121,94)"/>
<path d="M0 0 C2 1 2 1 2 1 Z " fill="#FEFFF6" transform="translate(105,93)"/>
<path d="M0 0 C2 1 2 1 2 1 Z " fill="#F6FFFD" transform="translate(25,91)"/>
<path d="M0 0 C2 1 2 1 2 1 Z " fill="#F7FFFF" transform="translate(168,71)"/>
<path d="" fill="#FCFFFF" transform="translate(0,0)"/>
<path d="" fill="#FFFFFE" transform="translate(0,0)"/>
<path d="" fill="#F7FCFA" transform="translate(0,0)"/>
<path d="" fill="#F3F6F4" transform="translate(0,0)"/>
<path d="" fill="#FDFFFF" transform="translate(0,0)"/>
<path d="" fill="#FFFFFF" transform="translate(0,0)"/>
<path d="" fill="#F8FFFC" transform="translate(0,0)"/>
<path d="" fill="#F8FCF5" transform="translate(0,0)"/>
<path d="" fill="#FEFCF6" transform="translate(0,0)"/>
<path d="" fill="#FFFFFB" transform="translate(0,0)"/>
<path d="" fill="#FFFFFE" transform="translate(0,0)"/>
<path d="" fill="#F7FDFC" transform="translate(0,0)"/>
<path d="" fill="#F7FDFD" transform="translate(0,0)"/>
<path d="" fill="#F8FEFF" transform="translate(0,0)"/>
<path d="" fill="#F5FEFE" transform="translate(0,0)"/>
<path d="" fill="#F9FFFF" transform="translate(0,0)"/>
</svg>
