<?xml version="1.0" encoding="UTF-8"?>
<svg version="1.1" xmlns="http://www.w3.org/2000/svg" width="1770" height="240">
<path d="M0 0 C0.8559375 -0.02900391 1.711875 -0.05800781 2.59375 -0.08789062 C10.05186854 -0.16134179 15.89192516 1.60284464 21.73828125 6.3203125 C34.31245358 20.91389152 32.99267864 38.0008298 32.25 56.3125 C31.40519903 66.68419186 29.00183371 76.59963101 25.25 86.3125 C26.136875 86.704375 27.02375 87.09625 27.9375 87.5 C31.56952047 89.48733196 33.78205944 90.9735216 36.25 94.3125 C36.25 97.2825 36.25 100.2525 36.25 103.3125 C-19.85 103.3125 -75.95 103.3125 -133.75 103.3125 C-138.4728767 93.8667466 -140.76273587 88.67141296 -141.3125 78.875 C-141.3549585 78.12943848 -141.39741699 77.38387695 -141.44116211 76.61572266 C-142.06512047 63.86788922 -141.83203043 51.07138736 -141.75 38.3125 C-140.5640625 37.86777344 -139.378125 37.42304688 -138.15625 36.96484375 C-137.4240625 36.6901123 -136.691875 36.41538086 -135.9375 36.13232422 C-134.09452287 35.44161917 -132.25050471 34.75369276 -130.40625 34.06640625 C-125.07454646 32.05382014 -119.90080677 29.98042406 -114.84375 27.35546875 C-108.07627159 23.98435544 -101.35791678 20.8312216 -93.75 20.3125 C-93.75 19.6525 -93.75 18.9925 -93.75 18.3125 C-93.21084961 18.47999756 -92.67169922 18.64749512 -92.11621094 18.82006836 C-89.28187388 19.40992162 -86.78293914 19.32421659 -83.890625 19.19140625 C-82.77558594 19.14306641 -81.66054687 19.09472656 -80.51171875 19.04492188 C-78.77341797 18.96081055 -78.77341797 18.96081055 -77 18.875 C-75.82566406 18.82279297 -74.65132813 18.77058594 -73.44140625 18.71679688 C-70.54399336 18.58723776 -67.64693507 18.45227553 -64.75 18.3125 C-64.42386719 17.16910156 -64.09773438 16.02570313 -63.76171875 14.84765625 C-63.32096014 13.35657924 -62.87951844 11.86570403 -62.4375 10.375 C-62.22416016 9.62025391 -62.01082031 8.86550781 -61.79101562 8.08789062 C-61.20350149 6.13243314 -60.48435295 4.21768046 -59.75 2.3125 C-58.76 1.9825 -57.77 1.6525 -56.75 1.3125 C-55.91280617 3.60282311 -55.0801071 5.89460957 -54.25 8.1875 C-53.89228516 9.16396484 -53.89228516 9.16396484 -53.52734375 10.16015625 C-51.75 15.0859375 -51.75 15.0859375 -51.75 17.3125 C-45.5490677 15.04677474 -39.68017772 12.31735515 -33.8125 9.3125 C-22.6002615 3.59787522 -12.62984006 0.14012397 0 0 Z " fill="#245788" transform="translate(321.75,90.6875)"/>
<path d="M0 0 C0.93872244 -0.00378464 1.87744489 -0.00756929 2.84461346 -0.01146862 C4.40518738 -0.01010073 4.40518738 -0.01010073 5.99728805 -0.0087052 C7.10000658 -0.01165662 8.20272511 -0.01460805 9.33885935 -0.01764891 C13.07805101 -0.02639308 16.81721192 -0.02792535 20.55641299 -0.02952677 C23.2466466 -0.03425411 25.93687697 -0.03936868 28.62710869 -0.04494441 C35.27372543 -0.05778394 41.92033826 -0.06514982 48.56696453 -0.07084319 C56.52412543 -0.07789133 64.48127465 -0.09064966 72.4384281 -0.10339238 C92.58760315 -0.13527304 112.73678594 -0.15508275 132.88597777 -0.1726779 C138.34150382 -0.177444 143.79702962 -0.18245294 149.25255543 -0.18748313 C183.10038714 -0.21852642 216.9482208 -0.24515146 250.79606277 -0.26190192 C258.64092829 -0.26583932 266.48579376 -0.26985113 274.33065921 -0.27392679 C275.3053104 -0.27442846 276.2799616 -0.27493013 277.28414767 -0.275447 C308.89357315 -0.29186969 340.50292127 -0.33033183 372.11230869 -0.3812139 C404.593557 -0.43340432 437.07476411 -0.46621193 469.55605521 -0.47347945 C474.14119968 -0.47450809 478.72634407 -0.47574442 483.31148845 -0.47709948 C484.21392075 -0.47735752 485.11635305 -0.47761555 486.04613179 -0.47788141 C500.58541654 -0.48258145 515.12459955 -0.50753726 529.66384618 -0.53985091 C544.27125645 -0.57184332 558.87855184 -0.58187466 573.48599299 -0.56941896 C582.1696405 -0.56266894 590.8528942 -0.57269153 599.53648037 -0.60654596 C605.33360513 -0.62750176 611.13046226 -0.62675351 616.92759463 -0.60821255 C620.23313765 -0.59826291 623.53777505 -0.60116534 626.84327718 -0.62387537 C630.40243256 -0.64685383 633.95960131 -0.63313686 637.51871139 -0.60997778 C638.54738817 -0.62545402 639.57606495 -0.64093025 640.63591376 -0.65687546 C646.67852886 -0.56959419 649.96906876 0.37815122 654.33230968 4.64934361 C656.62654194 7.39022771 656.70531194 9.31284496 656.73323184 12.80424398 C656.74327747 13.78974737 656.75332309 14.77525076 656.76367313 15.79061788 C656.76950412 16.87581716 656.77533511 17.96101644 656.7813428 19.07910055 C656.79112659 20.21906988 656.80091037 21.35903921 656.81099063 22.53355306 C656.84099459 26.31996382 656.86234461 30.10633912 656.88119632 33.89282125 C656.88776815 35.1840924 656.89433997 36.47536356 656.90111095 37.80576414 C656.92700905 43.23334951 656.95049774 48.66092173 656.96560699 54.0885486 C656.98749839 61.86104661 657.0294316 69.63285245 657.09904456 77.40507376 C657.15205667 83.53252277 657.17209713 89.65969877 657.18080455 95.78736204 C657.18937262 98.3912972 657.20822355 100.9952196 657.23754817 103.59900373 C657.27640033 107.24526164 657.2775041 110.88971651 657.26962405 114.5361318 C657.28962466 115.61120992 657.30962528 116.68628805 657.33023196 117.7939443 C657.27017953 123.98683248 656.46877031 127.44612206 652.05591041 131.90983194 C649.36882491 134.12222395 647.5455539 134.25724246 644.14520514 134.262205 C643.2064827 134.26598965 642.26776025 134.26977429 641.30059168 134.27367362 C639.74001776 134.27230573 639.74001776 134.27230573 638.14791709 134.2709102 C637.04519856 134.27386163 635.94248003 134.27681305 634.80634579 134.27985391 C631.06715413 134.28859808 627.32799322 134.29013036 623.58879215 134.29173177 C620.89855854 134.29645911 618.20832817 134.30157368 615.51809645 134.30714941 C608.87147971 134.31998894 602.22486688 134.32735482 595.57824061 134.3330482 C587.62107971 134.34009633 579.66393049 134.35285467 571.70677704 134.36559739 C551.55760199 134.39747805 531.4084192 134.41728775 511.25922737 134.43488291 C505.80370132 134.439649 500.34817552 134.44465795 494.89264971 134.44968814 C461.044818 134.48073142 427.19698434 134.50735647 393.34914237 134.52410692 C385.50427685 134.52804433 377.65941138 134.53205613 369.81454593 134.5361318 C368.35256914 134.5368843 368.35256914 134.5368843 366.86105747 134.53765201 C335.25163199 134.55407469 303.64228387 134.59253683 272.03289645 134.6434189 C239.55164814 134.69560932 207.07044103 134.72841694 174.58914993 134.73568445 C170.00400546 134.7367131 165.41886107 134.73794942 160.83371669 134.73930448 C159.48006824 134.73969154 159.48006824 134.73969154 158.09907335 134.74008642 C143.5597886 134.74478645 129.02060559 134.76974227 114.48135896 134.80205591 C99.8739487 134.83404832 85.2666533 134.84407967 70.65921215 134.83162396 C61.97556464 134.82487395 53.29231094 134.83489653 44.60872477 134.86875097 C38.81160001 134.88970677 33.01474288 134.88895852 27.21761051 134.87041755 C23.9120675 134.86046792 20.60743009 134.86337035 17.30192796 134.88608038 C13.74277258 134.90905883 10.18560383 134.89534187 6.62649375 134.87218279 C5.59781697 134.88765902 4.56914019 134.90313525 3.50929138 134.91908047 C-2.53332372 134.83179919 -5.82386362 133.88405378 -10.18710454 129.6128614 C-12.4813368 126.87197729 -12.5601068 124.94936004 -12.5880267 121.45796102 C-12.60309514 119.97970594 -12.60309514 119.97970594 -12.61846799 118.47158712 C-12.62429898 117.38638784 -12.63012997 116.30118856 -12.63613766 115.18310446 C-12.64592145 114.04313513 -12.65570523 112.9031658 -12.66578549 111.72865194 C-12.69578945 107.94224118 -12.71713947 104.15586589 -12.73599118 100.36938375 C-12.74256301 99.0781126 -12.74913483 97.78684145 -12.75590581 96.45644087 C-12.78180391 91.0288555 -12.8052926 85.60128328 -12.82040185 80.1736564 C-12.84229325 72.40115839 -12.88422646 64.62935256 -12.95383942 56.85713124 C-13.00685153 50.72968223 -13.02689199 44.60250623 -13.03559941 38.47484297 C-13.04416748 35.8709078 -13.06301841 33.26698541 -13.09234303 30.66320127 C-13.13119519 27.01694337 -13.13229896 23.37248849 -13.12441891 19.72607321 C-13.14441952 18.65099508 -13.16442014 17.57591696 -13.18502682 16.46826071 C-13.12497439 10.27537252 -12.32356517 6.81608295 -7.91070527 2.35237306 C-5.22361977 0.13998105 -3.40034876 0.00496254 0 0 Z M-3.05557603 10.02512974 C-4.66046193 12.48889506 -4.92983217 13.83537343 -4.935332 16.76122946 C-4.9466113 17.68650442 -4.95789059 18.61177938 -4.96951169 19.56509298 C-4.96141476 20.57300894 -4.95331784 21.58092489 -4.94497555 22.61938375 C-4.95198483 23.68643545 -4.95899411 24.75348715 -4.96621579 25.85287374 C-4.98383458 29.38338064 -4.9721586 32.91308732 -4.95864743 36.4436025 C-4.96134121 38.8945318 -4.96522267 41.34546007 -4.97024411 43.79638571 C-4.97614445 48.93442861 -4.96755855 54.07219346 -4.9488818 59.21020406 C-4.92609244 65.80141735 -4.93921258 72.39197917 -4.96317166 78.98316854 C-4.97761487 84.04460473 -4.97303033 89.10588606 -4.96266049 94.16732687 C-4.95998914 96.5978493 -4.96327723 99.02838571 -4.9725787 101.45889181 C-4.9827195 104.85391466 -4.96727635 108.2478775 -4.94497555 111.64282125 C-4.95307248 112.65073721 -4.9611694 113.65865316 -4.96951169 114.69711202 C-4.95823239 115.62238699 -4.94695309 116.54766195 -4.935332 117.50097555 C-4.9338239 118.30327093 -4.9323158 119.10556631 -4.93076199 119.93217367 C-4.17880924 123.21705051 -3.18651129 124.14271526 -0.42739743 126.1311025 C3.08331974 126.74561007 6.57073058 126.66701516 10.12682468 126.63446707 C11.21924269 126.64028083 12.31166071 126.64609459 13.43718231 126.65208453 C17.12947384 126.66678286 20.82111082 126.65275292 24.51339847 126.63903707 C27.17451588 126.6436421 29.83558689 126.64982748 32.49669152 126.65794605 C38.29875235 126.67241973 44.10066443 126.67193818 49.90273219 126.66175741 C58.53041822 126.64665955 67.1579782 126.65434564 75.78566332 126.66659064 C91.19250579 126.68768217 106.59928202 126.6858167 122.00613083 126.67427499 C135.48867829 126.66422406 148.97120143 126.66158068 162.45375186 126.66636556 C163.79375919 126.66682387 163.79375919 126.66682387 165.16083736 126.66729144 C168.78692817 126.66853674 172.41301896 126.66981033 176.03910974 126.6711305 C210.07445222 126.68337436 244.10975244 126.67226021 278.1450884 126.65074291 C308.40236185 126.63175962 338.65956798 126.63345809 368.91684085 126.65258688 C402.8887957 126.67399217 436.86071319 126.68250613 470.83267385 126.67013782 C474.45226698 126.6688549 478.07186013 126.66760354 481.69145328 126.66636556 C482.58272964 126.66604925 483.47400601 126.66573294 484.39229075 126.66540705 C497.86839511 126.66085168 511.34447252 126.66618844 524.82057315 126.67628378 C540.13913262 126.68770194 555.45761532 126.68490194 570.77616519 126.6631608 C579.35593491 126.65138644 587.93553852 126.65069076 596.51530404 126.6657455 C602.23931458 126.67468405 607.96319135 126.66918934 613.687182 126.65172642 C616.95322818 126.64216969 620.2188752 126.64121787 623.48492289 126.65335035 C626.99639978 126.66540054 630.50695298 126.65315461 634.01838046 126.63446707 C635.04153183 126.64383173 636.06468319 126.65319639 637.11883914 126.66284484 C642.5247989 126.67478688 642.5247989 126.67478688 647.20078117 124.23707527 C648.80566707 121.77330995 649.07503731 120.42683157 649.08053714 117.50097555 C649.09181644 116.57570059 649.10309573 115.65042562 649.11471683 114.69711202 C649.1066199 113.68919607 649.09852298 112.68128011 649.0901807 111.64282125 C649.09718997 110.57576956 649.10419925 109.50871786 649.11142093 108.40933126 C649.12903972 104.87882436 649.11736374 101.34911769 649.10385257 97.8186025 C649.10654635 95.3676732 649.11042781 92.91674494 649.11544925 90.4658193 C649.12134959 85.3277764 649.11276369 80.19001154 649.09408695 75.05200094 C649.07129758 68.46078765 649.08441772 61.87022584 649.1083768 55.27903646 C649.12282001 50.21760028 649.11823547 45.15631895 649.10786563 40.09487814 C649.10519428 37.66435571 649.10848237 35.23381929 649.11778384 32.8033132 C649.12792464 29.40829035 649.11248149 26.0143275 649.0901807 22.61938375 C649.10232608 21.10750982 649.10232608 21.10750982 649.11471683 19.56509298 C649.10343753 18.63981802 649.09215823 17.71454305 649.08053714 16.76122946 C649.07902904 15.95893408 649.07752094 15.1566387 649.07596713 14.33003134 C648.32401438 11.0451545 647.33171643 10.11948974 644.57260257 8.1311025 C641.0618854 7.51659494 637.57447456 7.59518984 634.01838046 7.62773794 C632.92596245 7.62192418 631.83354443 7.61611041 630.70802283 7.61012048 C627.0157313 7.59542215 623.32409432 7.60945209 619.63180667 7.62316793 C616.97068926 7.6185629 614.30961825 7.61237753 611.64851362 7.60425895 C605.84645279 7.58978527 600.04454071 7.59026683 594.24247295 7.6004476 C585.61478692 7.61554545 576.98722694 7.60785937 568.35954182 7.59561437 C552.95269935 7.57452283 537.54592312 7.5763883 522.13907431 7.58793002 C508.65652685 7.59798095 495.17400371 7.60062433 481.69145328 7.59583944 C480.79811506 7.5955339 479.90477685 7.59522836 478.98436778 7.59491356 C475.35827697 7.59366827 471.73218618 7.59239467 468.1060954 7.59107451 C434.07075292 7.57883065 400.0354527 7.5899448 366.00011674 7.61146209 C335.74284329 7.63044539 305.48563716 7.62874692 275.22836429 7.60961813 C241.25640944 7.58821284 207.28449195 7.57969888 173.31253129 7.59206718 C169.69293816 7.59335011 166.07334501 7.59460146 162.45375186 7.59583944 C161.5624755 7.59615575 160.67119913 7.59647206 159.75291439 7.59679795 C146.27681003 7.60135332 132.80073262 7.59601656 119.32463199 7.58592123 C104.00607252 7.57450307 88.68758982 7.57730307 73.36903995 7.5990442 C64.78927023 7.61081856 56.20966662 7.61151424 47.6299011 7.59645951 C41.90589056 7.58752095 36.18201379 7.59301567 30.45802314 7.61047858 C27.19197696 7.62003532 23.92632994 7.62098713 20.66028225 7.60885465 C17.14880536 7.59680446 13.63825216 7.6090504 10.12682468 7.62773794 C9.10367331 7.61837327 8.08052195 7.60900861 7.026366 7.59936017 C1.62040624 7.58741812 1.62040624 7.58741812 -3.05557603 10.02512974 Z " fill="#3B3838" transform="translate(1041.427397429943,51.86889749765396)"/>
<path d="M0 0 C3.34338252 1.44373336 4.73867161 2.6215244 6.8125 5.625 C8.91636626 8.41149627 8.91636626 8.41149627 12.9375 8.5625 C13.91009766 8.56443359 13.91009766 8.56443359 14.90234375 8.56640625 C18.30667239 9.27009429 19.64628405 10.40818725 22 13 C22.73879691 16.58979107 22.62854894 20.1324275 22.55859375 23.78515625 C22.55509666 25.36410927 22.55509666 25.36410927 22.55152893 26.97496033 C22.54179206 29.19831455 22.52000654 31.42164396 22.48706055 33.64477539 C22.43763385 37.0532694 22.42557906 40.46032055 22.41992188 43.86914062 C22.40583667 46.02866123 22.38963256 48.18816928 22.37109375 50.34765625 C22.3630497 51.88052025 22.3630497 51.88052025 22.35484314 53.4443512 C22.33885574 54.39220993 22.32286835 55.34006866 22.30639648 56.31665039 C22.29043678 57.56763268 22.29043678 57.56763268 22.27415466 58.84388733 C22 61 22 61 20 64 C19.01 64 18.02 64 17 64 C16.62875 64.9590625 16.62875 64.9590625 16.25 65.9375 C15.8375 66.618125 15.425 67.29875 15 68 C14.34 68.12375 13.68 68.2475 13 68.375 C12.01 68.684375 12.01 68.684375 11 69 C10.62875 70.3303125 10.62875 70.3303125 10.25 71.6875 C8.66330649 75.8922378 6.49979014 77.22440822 2.875 79.703125 C0.88097618 80.99948256 0.88097618 80.99948256 -1 83 C-1.16681109 86.08347826 -1.16681109 86.08347826 -1 89 C4.9660592 88.59322324 9.78120422 86.56260045 15.23046875 84.15625 C17.51656343 83.20182965 19.60300759 82.5612095 22 82 C21.99214478 83.4708606 21.99214478 83.4708606 21.98413086 84.97143555 C21.89618499 103.00617505 21.81650401 120.99395382 23 139 C13.17312877 139.61624276 3.34662263 140.11999896 -6.5 140.25 C-7.30606689 140.27126953 -8.11213379 140.29253906 -8.94262695 140.31445312 C-14.5074609 140.34787914 -14.5074609 140.34787914 -16.79882812 138.72949219 C-18 137 -18 137 -17.6875 134.8125 C-17.460625 134.214375 -17.23375 133.61625 -17 133 C-17.81267334 132.97494385 -18.62534668 132.9498877 -19.46264648 132.92407227 C-23.12110752 132.80850882 -26.77928528 132.68560416 -30.4375 132.5625 C-31.71689453 132.52318359 -32.99628906 132.48386719 -34.31445312 132.44335938 C-35.52939453 132.40146484 -36.74433594 132.35957031 -37.99609375 132.31640625 C-39.68496704 132.26141968 -39.68496704 132.26141968 -41.40795898 132.20532227 C-44 132 -44 132 -45 131 C-45.125 128.5 -45.125 128.5 -45 126 C-42.88074396 123.88074396 -38.3803907 124.58168983 -35.4375 124.4375 C-34.63119141 124.39431641 -33.82488281 124.35113281 -32.99414062 124.30664062 C-30.99631195 124.20024738 -28.9981793 124.09959112 -27 124 C-27.185625 123.195625 -27.37125 122.39125 -27.5625 121.5625 C-27.706875 120.716875 -27.85125 119.87125 -28 119 C-27.67 118.67 -27.34 118.34 -27 118 C-34.59 117.67 -42.18 117.34 -50 117 C-50.33 115.02 -50.66 113.04 -51 111 C-56.28 110.67 -61.56 110.34 -67 110 C-67.83951924 100.16563171 -67.83951924 100.16563171 -65.51171875 96.93359375 C-60.93358434 93 -60.93358434 93 -58 93 C-57.24940913 90.66482841 -56.90789696 89.33771114 -57.5625 86.9375 C-57.706875 86.298125 -57.85125 85.65875 -58 85 C-57.34 84.01 -56.68 83.02 -56 82 C-56.2784375 81.13375 -56.2784375 81.13375 -56.5625 80.25 C-57.25210887 76.70344007 -55.46671869 74.21549867 -54 71 C-52.9093202 67.39233545 -52.9093202 67.39233545 -54 64 C-53.42260374 61.25519166 -52.78464344 58.58128514 -52.0625 55.875 C-51.76956055 54.74384766 -51.76956055 54.74384766 -51.47070312 53.58984375 C-50.98676642 51.72491694 -50.49419231 49.86223541 -50 48 C-48.02 47.505 -48.02 47.505 -46 47 C-45.15336799 50.35095146 -44.32513765 53.70619687 -43.5 57.0625 C-43.26152344 58.00544922 -43.02304688 58.94839844 -42.77734375 59.91992188 C-41.51662253 65.08887886 -40.70481816 69.67934731 -41 75 C-38.69 75 -36.38 75 -34 75 C-33.896875 73.824375 -33.79375 72.64875 -33.6875 71.4375 C-33.17085042 67.17514097 -31.8491639 63.85912466 -30 60 C-29.01 60 -28.02 60 -27 60 C-26.35220924 62.39531933 -25.70670991 64.79121748 -25.0625 67.1875 C-24.78889648 68.19780273 -24.78889648 68.19780273 -24.50976562 69.22851562 C-23.74353618 72.08446172 -23.01881088 74.85842338 -22.62890625 77.79296875 C-21.77594028 80.78629652 -20.48814306 81.50396549 -17.875 83.125 C-17.12992188 83.60195312 -16.38484375 84.07890625 -15.6171875 84.5703125 C-12.48386619 86.28194772 -9.29947096 87.63664892 -6 89 C-5.93521375 85.62301682 -5.9597948 82.25223679 -6 78.875 C-5.98066406 77.92367187 -5.96132812 76.97234375 -5.94140625 75.9921875 C-5.9931547 70.55845083 -5.9931547 70.55845083 -8.76196289 66.09790039 C-10.86388932 64.50970677 -10.86388932 64.50970677 -13.04711914 63.25366211 C-16.2270499 61.21228888 -17.77710854 58.52023092 -19 55 C-19.56039989 52.00162113 -19.86187635 49.04562655 -20 46 C-21.2375 46.185625 -21.2375 46.185625 -22.5 46.375 C-27.51318087 45.83787348 -30.4144675 43.42963979 -34 40 C-36.54271444 36.23678263 -36.21534086 32.51518307 -35.61328125 28.1484375 C-34.6565761 24.79692266 -32.65418519 23.14862611 -30 21 C-27.94867685 19.10647094 -26.97309502 17.94349953 -25.75 15.375 C-24 13 -24 13 -20.3125 12.1875 C-19.219375 12.125625 -18.12625 12.06375 -17 12 C-16.86271484 10.88044922 -16.86271484 10.88044922 -16.72265625 9.73828125 C-14.65170572 1.89105789 -7.42021967 -1.21642945 0 0 Z M-14.75 43.4375 C-16.44890999 46.92026548 -15.84703897 49.00840946 -14.87109375 52.67578125 C-13.47374878 56.40412322 -11.58939599 58.96851202 -9 62 C-8.01 62.33 -7.02 62.66 -6 63 C-5.86518241 60.06097651 -5.76600584 57.12810441 -5.6875 54.1875 C-5.64560547 53.35412109 -5.60371094 52.52074219 -5.56054688 51.66210938 C-5.51394793 49.34148205 -5.52451708 47.2730263 -6 45 C-8.97032303 42.42701219 -11.43145002 40.71154823 -14.75 43.4375 Z M-2 46 C-1.67 48.31 -1.34 50.62 -1 53 C-0.34 52.34 0.32 51.68 1 51 C0.67958603 48.39719432 0.67958603 48.39719432 0 46 C-0.66 46 -1.32 46 -2 46 Z M0.984375 56.94921875 C-1.63330163 60.97363893 -1.66330333 64.11117621 -1.75 68.8125 C-1.77964844 69.60076172 -1.80929688 70.38902344 -1.83984375 71.20117188 C-1.91011293 73.13357446 -1.95737134 75.06679015 -2 77 C2.38073487 75.41887384 4.38244617 73.92633074 7 70 C8.41857082 66.45357296 8.07258962 62.77466037 8 59 C7.01 58.67 6.02 58.34 5 58 C4.67 57.01 4.34 56.02 4 55 C2.65248134 54.88413898 2.65248134 54.88413898 0.984375 56.94921875 Z " fill="#205385" transform="translate(119,47)"/>
<path d="M0 0 C0.8559375 -0.02900391 1.711875 -0.05800781 2.59375 -0.08789062 C10.05186854 -0.16134179 15.89192516 1.60284464 21.73828125 6.3203125 C34.31283658 20.91433603 32.99175037 38.00053774 32.25 56.3125 C30.31096217 80.25153783 30.31096217 80.25153783 23.25 87.3125 C20.875 87.75 20.875 87.75 18.25 87.3125 C16.90576661 85.65461215 15.57381517 83.98673683 14.25 82.3125 C8.30002984 78.71772636 2.08962007 78.31022189 -4.75 79.3125 C-8.49261559 80.97003801 -10.94876899 83.19077659 -13.3125 86.5 C-15.34272015 89.0598428 -17.68838913 89.31279033 -20.75 90.3125 C-23.83653702 92.81509758 -24.94201385 94.48856554 -25.75 98.3125 C-29.84792563 98.78307519 -33.67241642 99.02302822 -37.75 98.3125 C-40.31111609 96.01849417 -41.63351983 93.54509955 -42.75 90.3125 C-42.75 89.6525 -42.75 88.9925 -42.75 88.3125 C-41.43 88.3125 -40.11 88.3125 -38.75 88.3125 C-39.02263672 87.80799316 -39.29527344 87.30348633 -39.57617188 86.78369141 C-40.80507786 84.50391326 -42.02760374 82.2207747 -43.25 79.9375 C-43.67925781 79.1434375 -44.10851562 78.349375 -44.55078125 77.53125 C-45.15986328 76.39042969 -45.15986328 76.39042969 -45.78125 75.2265625 C-46.15830078 74.5248291 -46.53535156 73.8230957 -46.92382812 73.10009766 C-47.75 71.3125 -47.75 71.3125 -47.75 69.3125 C-45.77 69.6425 -43.79 69.9725 -41.75 70.3125 C-41.75 69.3225 -41.75 68.3325 -41.75 67.3125 C-42.74 66.9825 -43.73 66.6525 -44.75 66.3125 C-45.69921875 64.24609375 -45.69921875 64.24609375 -46.4375 61.75 C-46.68886719 60.92371094 -46.94023437 60.09742188 -47.19921875 59.24609375 C-47.47185547 58.28896484 -47.47185547 58.28896484 -47.75 57.3125 C-46.76 57.3125 -45.77 57.3125 -44.75 57.3125 C-45.08773438 56.44367188 -45.42546875 55.57484375 -45.7734375 54.6796875 C-46.21945312 53.52726562 -46.66546875 52.37484375 -47.125 51.1875 C-47.56585938 50.05054688 -48.00671875 48.91359375 -48.4609375 47.7421875 C-49.63454703 44.61967487 -50.71842774 41.48434369 -51.75 38.3125 C-50.76 38.3125 -49.77 38.3125 -48.75 38.3125 C-49.224375 37.219375 -49.69875 36.12625 -50.1875 35 C-51.15187809 32.77773745 -51.98166828 30.61749515 -52.75 28.3125 C-51.76 28.3125 -50.77 28.3125 -49.75 28.3125 C-50.41 24.6825 -51.07 21.0525 -51.75 17.3125 C-50.43 16.8175 -49.11 16.3225 -47.75 15.8125 C-42.95354106 13.9075234 -38.40020156 11.66187557 -33.8125 9.3125 C-22.6002615 3.59787522 -12.62984006 0.14012397 0 0 Z " fill="#5FA3D9" transform="translate(321.75,90.6875)"/>
<path d="M0 0 C11.67493639 -0.09060874 23.34963669 -0.16389321 35.02484608 -0.20724869 C40.44695482 -0.22806412 45.86880913 -0.25627086 51.29077148 -0.30175781 C56.5298021 -0.34543169 61.768589 -0.3691825 67.0077877 -0.37950897 C68.99994425 -0.38686181 70.99208847 -0.40121964 72.9841404 -0.42292023 C88.88168848 -0.58910935 100.68157976 0.96315454 113 12 C120.47762365 19.98249969 123.01105348 29.46491348 123.3125 40.25 C122.88485929 50.83838395 119.5206 57.60039444 112.75 65.6875 C105.2840305 71.96570163 99.86752835 74.02649433 90 76 C90 62.8 90 49.6 90 36 C60.3 36 30.6 36 0 36 C0 24.12 0 12.24 0 0 Z " fill="#1D5083" transform="translate(54,4)"/>
<path d="M0 0 C7.26 0 14.52 0 22 0 C22.33 21.78 22.66 43.56 23 66 C36.08179427 49.23858927 36.08179427 49.23858927 41.3125 38.8125 C43.98759586 34.88872225 45.20719663 33.36259288 49.86572266 32.42041016 C57.27471941 31.80290268 64.61721294 32.23219015 72 33 C68.2392652 38.82185848 64.27600766 44.33537944 59.875 49.6875 C57.89256004 52.10687573 55.93649227 54.54374158 54 57 C52.76636719 58.52560547 52.76636719 58.52560547 51.5078125 60.08203125 C49.70716574 62.86602001 49.70716574 62.86602001 50.4140625 65.71875 C52.65613281 70.35751615 54.96423709 74.9463792 57.375 79.5 C57.89868164 80.49797607 58.42236328 81.49595215 58.96191406 82.52416992 C63.31881551 90.79488709 67.79069565 99.00227852 72.34130859 107.16796875 C72.82164551 108.03679687 73.30198242 108.905625 73.796875 109.80078125 C74.43641113 110.94800659 74.43641113 110.94800659 75.08886719 112.1184082 C76 114 76 114 76 116 C67.42 116 58.84 116 50 116 C39.04328018 95.27107062 39.04328018 95.27107062 34 85 C32.27251095 86.62587205 30.63953784 88.28825454 29 90 C28.46117187 90.48855469 27.92234375 90.97710937 27.3671875 91.48046875 C20.90239033 98.30442131 22.13048173 107.1272422 22 116 C14.74 116 7.48 116 0 116 C0 77.72 0 39.44 0 0 Z " fill="#FFFFFF" transform="translate(747,51)"/>
<path d="M0 0 C1.38481567 0.01244751 1.38481567 0.01244751 2.79760742 0.02514648 C12.8504562 0.2742295 20.56102686 2.4453176 27.96875 9.50390625 C33.0598412 15.44751508 34.75441567 21.80031585 34.73852539 29.49121094 C34.73841209 31.32265656 34.73841209 31.32265656 34.73829651 33.19110107 C34.73313522 34.50475647 34.72797394 35.81841187 34.72265625 37.171875 C34.72079021 38.5337926 34.71936718 39.89571088 34.71836853 41.25762939 C34.71455803 44.83491889 34.70474032 48.41216752 34.69366455 51.98944092 C34.68341884 55.64269457 34.67886415 59.29595486 34.67382812 62.94921875 C34.66311669 70.11199992 34.64553182 77.27473902 34.625 84.4375 C27.695 84.4375 20.765 84.4375 13.625 84.4375 C13.295 82.7875 12.965 81.1375 12.625 79.4375 C11.655625 80.05625 10.68625 80.675 9.6875 81.3125 C-0.16491021 86.90280116 -11.02334831 86.32877499 -21.63671875 83.40234375 C-26.965626 81.52468314 -29.97701812 78.64061935 -32.75 73.6875 C-34.5915005 69.11071633 -34.76313622 64.68375942 -34.8125 59.8125 C-34.82265137 59.09610352 -34.83280273 58.37970703 -34.84326172 57.64160156 C-34.73944181 51.2983513 -33.22773832 46.58277595 -29 41.6875 C-20.00459903 33.97715631 -10.1534141 34.14932138 1.1875 34.3125 C2.38697266 34.32152344 3.58644531 34.33054688 4.82226562 34.33984375 C7.75672309 34.36322588 10.69075234 34.3959972 13.625 34.4375 C13.35369753 32.98873349 13.0684486 31.54257403 12.77734375 30.09765625 C12.61999756 29.29207275 12.46265137 28.48648926 12.30053711 27.65649414 C11.71977696 25.15371931 11.71977696 25.15371931 9.1875 22.875 C2.26707855 20.08254924 -4.03094692 20.63584085 -10.875 23.4375 C-11.6690625 23.80875 -12.463125 24.18 -13.28125 24.5625 C-15.375 25.4375 -15.375 25.4375 -18.375 25.4375 C-20.58534114 23.57800666 -22.59518488 21.72680024 -24.625 19.6875 C-25.1921875 19.14867188 -25.759375 18.60984375 -26.34375 18.0546875 C-27.953125 16.453125 -27.953125 16.453125 -30.375 13.4375 C-30.06104055 10.53065684 -29.71231361 9.71123267 -27.40625 7.83984375 C-26.5709375 7.35644531 -25.735625 6.87304688 -24.875 6.375 C-24.0603125 5.88902344 -23.245625 5.40304688 -22.40625 4.90234375 C-14.92236267 1.28577449 -8.30620253 -0.09629281 0 0 Z M-14.375 56.4375 C-14.62338381 60.03221004 -14.62338381 60.03221004 -13.375 63.4375 C-7.75436254 67.88674318 -1.18551438 67.03957762 5.625 66.4375 C8.62368631 65.64330539 11.37656941 64.68593059 13.625 62.4375 C13.69705511 60.75141034 13.70886068 59.06249341 13.6875 57.375 C13.67847656 56.45589844 13.66945313 55.53679687 13.66015625 54.58984375 C13.64855469 53.87957031 13.63695312 53.16929687 13.625 52.4375 C9.70858289 52.32131236 5.79260899 52.25025346 1.875 52.1875 C0.76382813 52.15398437 -0.34734375 52.12046875 -1.4921875 52.0859375 C-2.56210937 52.07304687 -3.63203125 52.06015625 -4.734375 52.046875 C-5.71889648 52.02592773 -6.70341797 52.00498047 -7.71777344 51.98339844 C-11.13873174 52.56801645 -12.31179696 53.69103634 -14.375 56.4375 Z " fill="#FFFFFF" transform="translate(610.375,82.5625)"/>
<path d="M0 0 C1.485 0.495 1.485 0.495 3 1 C2.99333817 2.26001579 2.99333817 2.26001579 2.98654175 3.54548645 C2.94628859 11.50348115 2.91592652 19.46144113 2.89637566 27.41951466 C2.88598613 31.50978286 2.87191641 35.59996618 2.84912109 39.69018555 C2.82721884 43.64539601 2.81539515 47.60052538 2.81024551 51.55579185 C2.80658069 53.0566911 2.79942525 54.55758645 2.78853989 56.0584507 C2.63439646 78.21444136 7.86835072 95.16486951 23.1875 111.3046875 C28.40523925 116.23468377 34.28208657 119.77618266 40.47265625 123.3359375 C41.30667969 123.88507813 42.14070313 124.43421875 43 125 C43 125.66 43 126.32 43 127 C43.62648438 127.10957031 44.25296875 127.21914062 44.8984375 127.33203125 C46.12433594 127.56986328 46.12433594 127.56986328 47.375 127.8125 C48.59316406 128.03873047 48.59316406 128.03873047 49.8359375 128.26953125 C52 129 52 129 54 132 C48.78968727 132.09980707 43.57994615 132.17190561 38.36889648 132.21972656 C36.60089407 132.23968762 34.83295634 132.26686652 33.06518555 132.30175781 C22.9342813 132.49652781 14.32200868 132.49308211 5 128 C3.33691461 127.32444897 1.67112838 126.65540229 0 126 C0 125.34 0 124.68 0 124 C-0.71542969 123.75121094 -1.43085938 123.50242187 -2.16796875 123.24609375 C-13.27839177 118.35750762 -22.22205528 107.2454374 -27.12309265 96.31762695 C-30.61085496 87.09962697 -31.49038206 77.64555327 -31.57421875 67.875 C-31.5889473 66.68447021 -31.60367584 65.49394043 -31.61885071 64.26733398 C-31.64260428 61.77675687 -31.65816117 59.28608891 -31.66577148 56.79541016 C-31.68761152 52.98052053 -31.7681424 49.16949322 -31.84960938 45.35546875 C-31.86558311 42.92450018 -31.87807769 40.4935057 -31.88671875 38.0625 C-31.91859787 36.92603027 -31.95047699 35.78956055 -31.98332214 34.61865234 C-31.91754334 26.94730391 -31.91754334 26.94730391 -29.27018738 24.21408081 C-27.22494791 22.92291405 -25.22161071 21.94699772 -23 21 C-13.65960705 15.11174239 -5.79996763 9.51194691 0 0 Z " fill="#917860" transform="translate(175,101)"/>
<path d="M0 0 C9.85544495 7.61129108 13.78351299 18.92897853 15.453125 30.89453125 C15.453125 36.17453125 15.453125 41.45453125 15.453125 46.89453125 C-1.046875 46.89453125 -17.546875 46.89453125 -34.546875 46.89453125 C-31.15348172 54.67731948 -31.15348172 54.67731948 -24.859375 59.08203125 C-16.50476515 61.13127518 -11.18407274 59.27226169 -3.546875 55.89453125 C-2.556875 55.56453125 -1.566875 55.23453125 -0.546875 54.89453125 C1.28515625 56.15234375 1.28515625 56.15234375 3.265625 58.01953125 C3.96300781 58.66277344 4.66039062 59.30601562 5.37890625 59.96875 C6.06339844 60.60425781 6.74789062 61.23976563 7.453125 61.89453125 C8.61213955 62.88274365 9.77778973 63.86328698 10.953125 64.83203125 C11.778125 65.51265625 12.603125 66.19328125 13.453125 66.89453125 C11.17392162 72.95907825 4.99710238 75.28040069 -0.546875 77.89453125 C-7.73448595 80.27928384 -14.9834295 81.62178563 -22.546875 80.89453125 C-23.83851563 80.77271484 -23.83851563 80.77271484 -25.15625 80.6484375 C-34.4451235 79.37580935 -42.50967658 75.86309823 -48.546875 68.51953125 C-54.94308929 59.41487215 -55.72705959 49.97133314 -55.734375 39.14453125 C-55.74662109 38.20609375 -55.75886719 37.26765625 -55.77148438 36.30078125 C-55.79633091 24.30818881 -53.65011395 13.10925066 -45.296875 4.01953125 C-33.93077593 -6.52582106 -13.01977808 -7.76458833 0 0 Z M-30.546875 19.89453125 C-33.4547808 23.8583805 -34.546875 26.97028578 -34.546875 31.89453125 C-24.976875 31.89453125 -15.406875 31.89453125 -5.546875 31.89453125 C-6.4282058 23.30306971 -6.4282058 23.30306971 -11.546875 17.89453125 C-18.08175181 14.20819048 -24.75138565 15.45543302 -30.546875 19.89453125 Z " fill="#FFFFFF" transform="translate(885.546875,87.10546875)"/>
<path d="M0 0 C28.05 0 56.1 0 85 0 C85 7.26 85 14.52 85 22 C74.77 22 64.54 22 54 22 C54 53.02 54 84.04 54 116 C46.74 116 39.48 116 32 116 C32 84.98 32 53.96 32 22 C21.44 22 10.88 22 0 22 C0 14.74 0 7.48 0 0 Z " fill="#FFFFFF" transform="translate(423,51)"/>
<path d="M0 0 C3.25223125 2.44851893 6.18037346 5.06644916 9 8 C7.38989473 12.07376031 4.46177729 14.76507069 1.375 17.75 C0.859375 18.25660156 0.34375 18.76320313 -0.1875 19.28515625 C-1.45383339 20.52803902 -2.7263144 21.76465276 -4 23 C-4.72574219 22.70480469 -5.45148437 22.40960938 -6.19921875 22.10546875 C-14.49714747 18.83027513 -21.14831157 16.47313454 -29.75 20.1875 C-33.16379392 22.93750066 -35.62458237 25.80998461 -36.38574219 30.25024414 C-36.53770025 32.82409753 -36.54572478 35.3597653 -36.5 37.9375 C-36.52320313 39.23977539 -36.52320313 39.23977539 -36.546875 40.56835938 C-36.5107919 46.53560204 -35.5217383 50.14810874 -32 55 C-27.1659255 57.88185211 -22.55816735 58.80155734 -17 58 C-13.18193566 56.94952727 -9.85321875 55.85321875 -7 53 C-2.40592603 53.50736018 0.19991083 56.68514172 3.3125 59.8125 C3.87517578 60.34681641 4.43785156 60.88113281 5.01757812 61.43164062 C6.61328125 63.01953125 6.61328125 63.01953125 9 66 C8.68381805 68.54462521 8.29920414 69.67999557 6.5390625 71.5625 C-4.30392598 79.70580564 -16.46811419 82.03835494 -29.7734375 80.7265625 C-39.78978644 79.23954151 -47.63977492 74.95028135 -54 67 C-59.73725766 58.39411351 -60.37348038 48.19471587 -60.3125 38.125 C-60.30512817 36.68036377 -60.30512817 36.68036377 -60.29760742 35.20654297 C-60.10704867 23.6225255 -58.1917454 13.86874717 -50.28515625 5.09765625 C-38.10633786 -6.6826732 -14.68421664 -8.24854144 0 0 Z " fill="#FFFFFF" transform="translate(723,87)"/>
<path d="M0 0 C46.2 0 92.4 0 140 0 C140.99 2.475 140.99 2.475 142 5 C141.34 5.99 140.68 6.98 140 8 C136.7421875 8.51171875 136.7421875 8.51171875 132.875 8.6875 C130.95300781 8.78611328 130.95300781 8.78611328 128.9921875 8.88671875 C128.00476563 8.92410156 127.01734375 8.96148437 126 9 C125.67 9.99 125.34 10.98 125 12 C124.00097656 12.04898438 123.00195312 12.09796875 121.97265625 12.1484375 C120.68230469 12.22320312 119.39195312 12.29796875 118.0625 12.375 C116.77472656 12.44460937 115.48695313 12.51421875 114.16015625 12.5859375 C112.59587891 12.79089844 112.59587891 12.79089844 111 13 C110.67 13.66 110.34 14.32 110 15 C114.29 15 118.58 15 123 15 C122.67 16.32 122.34 17.64 122 19 C119.4375 20.25 119.4375 20.25 117 21 C117 21.66 117 22.32 117 23 C104.625 23.495 104.625 23.495 92 24 C92 24.33 92 24.66 92 25 C92.85464844 25.04898438 93.70929688 25.09796875 94.58984375 25.1484375 C95.69457031 25.22320312 96.79929687 25.29796875 97.9375 25.375 C99.03964844 25.44460937 100.14179688 25.51421875 101.27734375 25.5859375 C102.17582031 25.72257812 103.07429688 25.85921875 104 26 C104.495 26.99 104.495 26.99 105 28 C103.64714879 30.70570241 101.90292505 30.97295698 99.15179443 31.92907715 C90.00214607 34.86181212 81.65233874 35.72414142 72.07128906 35.54199219 C69.73677958 35.49976084 67.40514456 35.50098265 65.0703125 35.5078125 C54.36237997 35.46206872 43.34048894 34.80624988 34 29 C33.505 28.01 33.505 28.01 33 27 C32.154375 26.731875 31.30875 26.46375 30.4375 26.1875 C19.92669414 22.55649434 10.37231327 14.14834624 3 6 C3 5.34 3 4.68 3 4 C2.34 4 1.68 4 1 4 C0.67 2.68 0.34 1.36 0 0 Z M81 12 C81 12.99 81 13.98 81 15 C86.94 15 92.88 15 99 15 C98.67 14.01 98.34 13.02 98 12 C92.39 12 86.78 12 81 12 Z M74 23 C73.67 23.99 73.34 24.98 73 26 C75.97 26 78.94 26 82 26 C82 25.01 82 24.02 82 23 C79.36 23 76.72 23 74 23 Z " fill="#52483A" transform="translate(195,198)"/>
<path d="M0 0 C34.98 0 69.96 0 106 0 C106 11.55 106 23.1 106 35 C104.25707823 36.74292177 101.99376505 36.11980303 99.67175293 36.12442017 C98.90858765 36.12082489 98.14542236 36.11722961 97.35913086 36.11352539 C96.15922264 36.11374443 96.15922264 36.11374443 94.93507385 36.1139679 C92.27830335 36.11326855 89.62160207 36.10547518 86.96484375 36.09765625 C85.12781309 36.09579215 83.29078194 36.09436821 81.45375061 36.09336853 C76.60890338 36.08954275 71.76408592 36.07971196 66.91925049 36.06866455 C61.97937422 36.05845172 57.03949315 36.05387119 52.09960938 36.04882812 C42.39972647 36.03808974 32.69986571 36.0210126 23 36 C22.74968018 34.98172119 22.49936035 33.96344238 22.24145508 32.91430664 C21.89711182 31.55863839 21.55227774 30.20309475 21.20703125 28.84765625 C21.04400513 28.17883423 20.880979 27.51001221 20.7130127 26.82092285 C18.02718115 16.39938671 11.20374579 8.69584856 2.0625 3.25 C1.381875 2.8375 0.70125 2.425 0 2 C0 1.34 0 0.68 0 0 Z " fill="#1D5083" transform="translate(156,4)"/>
<path d="M0 0 C0.8559375 -0.02900391 1.711875 -0.05800781 2.59375 -0.08789062 C10.05186854 -0.16134179 15.89192516 1.60284464 21.73828125 6.3203125 C29.0184981 14.76972906 32.4353111 23.44918945 32.3125 34.625 C32.30347656 35.69363281 32.29445313 36.76226562 32.28515625 37.86328125 C32.27355469 38.67152344 32.26195312 39.47976562 32.25 40.3125 C28.81453931 39.07241143 26.24559048 37.69832538 23.4375 35.375 C15.81032066 29.56584479 8.79969382 28.37340269 -0.75 29.3125 C-12.27882521 32.63436489 -20.12991275 42.67817195 -27.58984375 51.484375 C-37.67835366 63.28861789 -37.67835366 63.28861789 -43.75 65.3125 C-47.75 59.5625 -47.75 59.5625 -47.75 57.3125 C-46.76 57.3125 -45.77 57.3125 -44.75 57.3125 C-45.08773438 56.44367188 -45.42546875 55.57484375 -45.7734375 54.6796875 C-46.21945312 53.52726562 -46.66546875 52.37484375 -47.125 51.1875 C-47.56585938 50.05054688 -48.00671875 48.91359375 -48.4609375 47.7421875 C-49.63454703 44.61967487 -50.71842774 41.48434369 -51.75 38.3125 C-50.76 38.3125 -49.77 38.3125 -48.75 38.3125 C-49.224375 37.219375 -49.69875 36.12625 -50.1875 35 C-51.15187809 32.77773745 -51.98166828 30.61749515 -52.75 28.3125 C-51.76 28.3125 -50.77 28.3125 -49.75 28.3125 C-50.41 24.6825 -51.07 21.0525 -51.75 17.3125 C-50.43 16.8175 -49.11 16.3225 -47.75 15.8125 C-42.95354106 13.9075234 -38.40020156 11.66187557 -33.8125 9.3125 C-22.6002615 3.59787522 -12.62984006 0.14012397 0 0 Z " fill="#AFD6E9" transform="translate(321.75,90.6875)"/>
<path d="M0 0 C3.1875 2.25 3.1875 2.25 4.04467773 4.13378906 C4.23851187 7.0058477 3.35110802 8.058286 1.66015625 10.359375 C1.11552734 11.11347656 0.57089844 11.86757812 0.00976562 12.64453125 C-0.57095703 13.42183594 -1.15167969 14.19914062 -1.75 15 C-2.32685547 15.79277344 -2.90371094 16.58554688 -3.49804688 17.40234375 C-4.92510393 19.36012451 -6.36336648 21.30853469 -7.8125 23.25 C-8.39386719 22.93675781 -8.97523438 22.62351562 -9.57421875 22.30078125 C-14.48809953 19.99391575 -18.52479497 19.89113138 -23.625 21.3125 C-27.57653811 23.71441532 -28.22445409 24.9126187 -29.8125 29.25 C-30.27468656 33.30829586 -30.30110426 37.348094 -30.32421875 41.4296875 C-30.34216995 42.5975882 -30.36012115 43.76548889 -30.37861633 44.96878052 C-30.43266228 48.68748397 -30.46659778 52.40605946 -30.5 56.125 C-30.533178 58.65105945 -30.5676681 61.17710203 -30.60351562 63.703125 C-30.69084786 69.88543453 -30.75096869 76.06716468 -30.8125 82.25 C-38.7325 82.25 -46.6525 82.25 -54.8125 82.25 C-54.8125 54.86 -54.8125 27.47 -54.8125 -0.75 C-46.8925 -0.75 -38.9725 -0.75 -30.8125 -0.75 C-30.4825 1.56 -30.1525 3.87 -29.8125 6.25 C-29.26980469 5.75628906 -28.72710938 5.26257813 -28.16796875 4.75390625 C-27.45253906 4.11324219 -26.73710938 3.47257812 -26 2.8125 C-25.29230469 2.17441406 -24.58460938 1.53632812 -23.85546875 0.87890625 C-17.88788894 -3.87918319 -6.6518837 -3.08405517 0 0 Z " fill="#FFFFFF" transform="translate(975.8125,84.75)"/>
<path d="M0 0 C3.1875 2.25 3.1875 2.25 4.04467773 4.13378906 C4.23851187 7.0058477 3.35110802 8.058286 1.66015625 10.359375 C1.11552734 11.11347656 0.57089844 11.86757812 0.00976562 12.64453125 C-0.57095703 13.42183594 -1.15167969 14.19914062 -1.75 15 C-2.32685547 15.79277344 -2.90371094 16.58554688 -3.49804688 17.40234375 C-4.92510393 19.36012451 -6.36336648 21.30853469 -7.8125 23.25 C-8.39386719 22.93675781 -8.97523438 22.62351562 -9.57421875 22.30078125 C-14.48809953 19.99391575 -18.52479497 19.89113138 -23.625 21.3125 C-27.57653811 23.71441532 -28.22445409 24.9126187 -29.8125 29.25 C-30.27468656 33.30829586 -30.30110426 37.348094 -30.32421875 41.4296875 C-30.34216995 42.5975882 -30.36012115 43.76548889 -30.37861633 44.96878052 C-30.43266228 48.68748397 -30.46659778 52.40605946 -30.5 56.125 C-30.533178 58.65105945 -30.5676681 61.17710203 -30.60351562 63.703125 C-30.69084786 69.88543453 -30.75096869 76.06716468 -30.8125 82.25 C-38.7325 82.25 -46.6525 82.25 -54.8125 82.25 C-54.8125 54.86 -54.8125 27.47 -54.8125 -0.75 C-46.8925 -0.75 -38.9725 -0.75 -30.8125 -0.75 C-30.4825 1.56 -30.1525 3.87 -29.8125 6.25 C-29.26980469 5.75628906 -28.72710938 5.26257813 -28.16796875 4.75390625 C-27.45253906 4.11324219 -26.73710938 3.47257812 -26 2.8125 C-25.29230469 2.17441406 -24.58460938 1.53632812 -23.85546875 0.87890625 C-17.88788894 -3.87918319 -6.6518837 -3.08405517 0 0 Z " fill="#FFFFFF" transform="translate(564.8125,84.75)"/>
<path d="M0 0 C-0.68266641 3.04413492 -1.67887224 5.8084483 -2.875 8.6875 C-4.79269568 13.39775252 -6.45550711 18.15590868 -8 23 C-7.34 23 -6.68 23 -6 23 C-6 23.99 -6 24.98 -6 26 C-6.66 26 -7.32 26 -8 26 C-8.433125 27.3303125 -8.433125 27.3303125 -8.875 28.6875 C-9.83148748 31.50382424 -10.86798946 34.25083156 -12 37 C-10.68 37 -9.36 37 -8 37 C-9.58962659 41.03520597 -11.28232318 45.01811282 -13 49 C-12.01 49 -11.02 49 -10 49 C-11.3922459 53.62675657 -13.29520984 57.64686231 -15.625 61.875 C-16.25664062 63.02742188 -16.88828125 64.17984375 -17.5390625 65.3671875 C-18.02117187 66.23601562 -18.50328125 67.10484375 -19 68 C-17.02 68 -15.04 68 -13 68 C-14.33957663 71.60655245 -15.67919144 74.91635231 -18 78 C-20.54370117 78.56762695 -20.54370117 78.56762695 -23.54296875 78.48828125 C-24.61611328 78.47216797 -25.68925781 78.45605469 -26.79492188 78.43945312 C-27.91447266 78.39755859 -29.03402344 78.35566406 -30.1875 78.3125 C-31.31865234 78.28994141 -32.44980469 78.26738281 -33.61523438 78.24414062 C-36.41147976 78.18514811 -39.20508097 78.1028824 -42 78 C-46.01481526 71.39498135 -47.12958903 66.27667121 -47.5625 58.5625 C-47.6049585 57.81693848 -47.64741699 57.07137695 -47.69116211 56.30322266 C-48.31512047 43.55538922 -48.08203043 30.75888736 -48 18 C-46.8140625 17.55527344 -45.628125 17.11054688 -44.40625 16.65234375 C-43.6740625 16.3776123 -42.941875 16.10288086 -42.1875 15.81982422 C-40.34452287 15.12911917 -38.50050471 14.44119276 -36.65625 13.75390625 C-31.3270576 11.74226803 -26.15210912 9.6757005 -21.1015625 7.04296875 C-6.91011236 0 -6.91011236 0 0 0 Z " fill="#AED5E9" transform="translate(228,111)"/>
<path d="M0 0 C3.34338252 1.44373336 4.73867161 2.6215244 6.8125 5.625 C8.91636626 8.41149627 8.91636626 8.41149627 12.9375 8.5625 C13.91009766 8.56443359 13.91009766 8.56443359 14.90234375 8.56640625 C18.30667239 9.27009429 19.64628405 10.40818725 22 13 C22.73879691 16.58979107 22.62854894 20.1324275 22.55859375 23.78515625 C22.55509666 25.36410927 22.55509666 25.36410927 22.55152893 26.97496033 C22.54179206 29.19831455 22.52000654 31.42164396 22.48706055 33.64477539 C22.43763385 37.0532694 22.42557906 40.46032055 22.41992188 43.86914062 C22.40583667 46.02866123 22.38963256 48.18816928 22.37109375 50.34765625 C22.36573105 51.36956558 22.36036835 52.39147491 22.35484314 53.4443512 C22.33885574 54.39220993 22.32286835 55.34006866 22.30639648 56.31665039 C22.29043678 57.56763268 22.29043678 57.56763268 22.27415466 58.84388733 C22 61 22 61 20 64 C19.01 64 18.02 64 17 64 C17 63.34 17 62.68 17 62 C15.7934375 61.814375 15.7934375 61.814375 14.5625 61.625 C13.716875 61.41875 12.87125 61.2125 12 61 C11.67 60.34 11.34 59.68 11 59 C9.576875 58.8453125 9.576875 58.8453125 8.125 58.6875 C5 58 5 58 3.125 55.5625 C2 53 2 53 2 51 C1.34 51 0.68 51 0 51 C0 49.35 0 47.7 0 46 C-0.99 46 -1.98 46 -3 46 C-3 41.71 -3 37.42 -3 33 C-3.66 33 -4.32 33 -5 33 C-5 37.29 -5 41.58 -5 46 C-5.886875 45.46375 -6.77375 44.9275 -7.6875 44.375 C-10.79799963 42.65942933 -10.79799963 42.65942933 -13.25 43.75 C-14.1575 44.1625 -15.065 44.575 -16 45 C-20.34291889 46.11395493 -24.18995358 46.84648937 -28.35546875 44.8984375 C-31.32227944 42.79086707 -33.52400909 40.70446655 -35.5625 37.6875 C-36.22215956 33.63530558 -36.13122849 29.96290236 -35 26 C-32.625 23.125 -32.625 23.125 -30 21 C-27.94867685 19.10647094 -26.97309502 17.94349953 -25.75 15.375 C-24 13 -24 13 -20.3125 12.1875 C-19.219375 12.125625 -18.12625 12.06375 -17 12 C-16.90847656 11.25363281 -16.81695312 10.50726563 -16.72265625 9.73828125 C-14.65170572 1.89105789 -7.42021967 -1.21642945 0 0 Z " fill="#5EA3D9" transform="translate(119,47)"/>
<path d="M0 0 C23.76 0 47.52 0 72 0 C72.33 9.9 72.66 19.8 73 30 C63.1681542 30.59138922 53.34980218 31.11995699 43.5 31.25 C42.29089966 31.2819043 42.29089966 31.2819043 41.05737305 31.31445312 C35.4925391 31.34787914 35.4925391 31.34787914 33.20117188 29.72949219 C32 28 32 28 32.3125 25.8125 C32.539375 25.214375 32.76625 24.61625 33 24 C31.78098999 23.96241577 31.78098999 23.96241577 30.53735352 23.92407227 C26.87889248 23.80850882 23.22071472 23.68560416 19.5625 23.5625 C18.28310547 23.52318359 17.00371094 23.48386719 15.68554688 23.44335938 C14.47060547 23.40146484 13.25566406 23.35957031 12.00390625 23.31640625 C10.87799072 23.27974854 9.7520752 23.24309082 8.59204102 23.20532227 C6 23 6 23 5 22 C4.875 19.5 4.875 19.5 5 17 C7.11925604 14.88074396 11.6196093 15.58168983 14.5625 15.4375 C15.36880859 15.39431641 16.17511719 15.35113281 17.00585938 15.30664062 C19.00368805 15.20024738 21.0018207 15.09959112 23 15 C22.814375 14.195625 22.62875 13.39125 22.4375 12.5625 C22.293125 11.716875 22.14875 10.87125 22 10 C22.33 9.67 22.66 9.34 23 9 C11.615 8.505 11.615 8.505 0 8 C-1 2 -1 2 0 0 Z " fill="#53483A" transform="translate(69,156)"/>
<path d="M0 0 C3.3 0 6.6 0 10 0 C10.33 1.32 10.66 2.64 11 4 C11.598125 3.34 12.19625 2.68 12.8125 2 C17.45444719 -0.91259431 21.65251551 -0.79977041 27 0 C30.26533587 1.38099185 32.50020966 3.50020966 35 6 C35.37769531 5.566875 35.75539063 5.13375 36.14453125 4.6875 C39.75456924 1.0351899 42.35800287 -0.46858069 47.5625 -0.625 C52.3936126 -0.34003725 55.36921501 0.64152388 59 4 C63.03559752 9.42718288 63.1248106 14.67102337 63.09765625 21.26953125 C63.0962413 21.95053391 63.09482635 22.63153656 63.09336853 23.33317566 C63.08780298 25.49299647 63.07525703 27.65271089 63.0625 29.8125 C63.05748054 31.28320162 63.05291841 32.75390488 63.04882812 34.22460938 C63.03784488 37.8164404 63.02060422 41.4082098 63 45 C59.7 45 56.4 45 53 45 C52.9906543 44.08186523 52.98130859 43.16373047 52.97167969 42.21777344 C52.92760069 38.80294722 52.86596268 35.38936892 52.79248047 31.97509766 C52.76429912 30.49897804 52.74307034 29.02270831 52.72900391 27.54638672 C52.70753302 25.42076943 52.66086957 23.29695121 52.609375 21.171875 C52.58842773 19.8940918 52.56748047 18.61630859 52.54589844 17.29980469 C51.91315483 13.475045 51.11218326 12.24962017 48 10 C43.28765524 9.39097771 43.28765524 9.39097771 39.125 11.3125 C36.71523918 14.92714123 36.8125407 18.41831137 36.68359375 22.63671875 C36.62075195 24.58481445 36.62075195 24.58481445 36.55664062 26.57226562 C36.51683013 27.94400761 36.47711784 29.31575244 36.4375 30.6875 C36.39429165 32.07097645 36.35067661 33.45444027 36.30664062 34.83789062 C36.20041972 38.22515719 36.09837642 41.61249799 36 45 C33.03 45 30.06 45 27 45 C26.98018066 44.1121582 26.96036133 43.22431641 26.93994141 42.30957031 C26.86171768 39.00688666 26.77502115 35.70464936 26.68261719 32.40234375 C26.64439976 30.97469602 26.60953428 29.54695437 26.578125 28.11914062 C26.53231599 26.06346132 26.4743502 24.00842446 26.4140625 21.953125 C26.36693115 20.09929199 26.36693115 20.09929199 26.31884766 18.20800781 C26.02118723 15.21317018 25.66803431 13.47055815 24 11 C20.90826248 9.45413124 18.40570448 9.70640479 15 10 C11.87981523 12.24023976 11.0866651 13.47613348 10.45410156 17.29980469 C10.4331543 18.57758789 10.41220703 19.85537109 10.390625 21.171875 C10.37408875 21.8542926 10.35755249 22.53671021 10.34051514 23.23980713 C10.29210161 25.40996354 10.27068135 27.57941972 10.25 29.75 C10.22183438 31.22529552 10.19190611 32.70055851 10.16015625 34.17578125 C10.08634775 37.78370198 10.03673106 41.39148972 10 45 C6.7 45 3.4 45 0 45 C0 30.15 0 15.3 0 0 Z " fill="#909090" transform="translate(1269,105)"/>
<path d="M0 0 C29 0 29 0 37 4 C44.39845703 11.55929305 44.37284935 18.56486924 44.37060547 28.60961914 C44.37496685 30.79588439 44.41128864 32.9801085 44.44921875 35.16601562 C44.51521848 43.27001768 44.48236122 50.23095362 38.58764648 56.50268555 C27.55569175 66.42914906 15.42867981 62 0 62 C0 41.54 0 21.08 0 0 Z M10 9 C10 23.52 10 38.04 10 53 C24.68517751 54.37198868 24.68517751 54.37198868 31 50 C35.94335615 44.52699855 35.2133834 38.17669261 35.25 31.1875 C35.270625 30.21490234 35.29125 29.24230469 35.3125 28.24023438 C35.3485242 21.58926723 34.78501925 16.48127406 30.5 11.125 C24.65364289 6.74023217 16.95586993 9 10 9 Z " fill="#909090" transform="translate(1073,88)"/>
<path d="M0 0 C20.46 0 40.92 0 62 0 C62 7.90769231 62 7.90769231 60.25 11.125 C59.92515625 11.74632812 59.6003125 12.36765625 59.265625 13.0078125 C54.61649093 20.3258939 48.29910075 24.62638888 40 27 C31.96759349 28.12982183 23.94685361 27.33830824 16 26 C13.21139297 25.75223178 10.42014414 25.59182426 7.625 25.4375 C5.10875 25.293125 2.5925 25.14875 0 25 C0 16.75 0 8.5 0 0 Z " fill="#B0D7EA" transform="translate(180,43)"/>
<path d="M0 0 C5.36622162 1.480337 8.59659914 3.46984677 11.72265625 8.12109375 C13.34987283 10.11251719 14.18513689 10.89764289 16.71386719 11.48608398 C19.14698702 11.59004826 21.50698265 11.52462932 23.9375 11.375 C24.77345703 11.34792969 25.60941406 11.32085937 26.47070312 11.29296875 C28.52325247 11.22259563 30.57446591 11.11498322 32.625 11 C32.90625 15.6796875 32.90625 15.6796875 30.375 18.5625 C28.71418441 20.03458655 27.0142451 21.46610242 25.25 22.8125 C23.2438997 25.01644303 23.2438997 25.01644303 23.875 28.5 C24.05675781 29.53060547 24.05675781 29.53060547 24.2421875 30.58203125 C25.23274253 36.83870027 25.99923799 42.85780549 22.5 48.3125 C19.625 50 19.625 50 16.8125 50.1875 C11.49408434 48.20612946 6.96685044 45.1099232 3.8984375 40.28515625 C1.70252216 37.57633573 1.70252216 37.57633573 -2.265625 37.73046875 C-3.72129533 37.85618573 -5.17480302 38.00942811 -6.625 38.1875 C-7.37007813 38.25775391 -8.11515625 38.32800781 -8.8828125 38.40039062 C-10.71596497 38.57665529 -12.54596315 38.78519451 -14.375 39 C-15.035 37.68 -15.695 36.36 -16.375 35 C-15.25395467 33.68412059 -14.12803035 32.37239647 -13 31.0625 C-12.37351562 30.33160156 -11.74703125 29.60070312 -11.1015625 28.84765625 C-9.375 27 -9.375 27 -7.375 26 C-6.5680629 23.87262037 -6.23466429 22.51733926 -6.8359375 20.30078125 C-7.56670968 17.18176085 -7.62307679 14.20081626 -7.6875 11 C-7.72488281 9.783125 -7.76226562 8.56625 -7.80078125 7.3125 C-7.375 4 -7.375 4 -5.56640625 1.5625 C-3.375 0 -3.375 0 0 0 Z " fill="#53493B" transform="translate(300.375,19)"/>
<path d="M0 0 C0.66 0 1.32 0 2 0 C2.14724041 4.41630613 2.23471774 8.83196784 2.3125 13.25 C2.35439453 14.48492187 2.39628906 15.71984375 2.43945312 16.9921875 C2.60731389 29.74960591 -1.21283168 38.92324019 -9.53515625 48.51953125 C-15.04049067 54.05976477 -21.52540182 58.60812858 -29 61 C-31.1953125 60.5625 -31.1953125 60.5625 -33 60 C-33.02464928 54.74894558 -33.04283568 49.49792455 -33.05493164 44.24682617 C-33.05997218 42.45905979 -33.06680454 40.67129755 -33.07543945 38.88354492 C-33.0875173 36.31948832 -33.09323094 33.75548603 -33.09765625 31.19140625 C-33.10281754 30.3872377 -33.10797882 29.58306915 -33.11329651 28.75453186 C-33.11349215 26.83598285 -33.06201983 24.91754632 -33 23 C-31.38497336 21.38497336 -29.35167572 21.60581564 -27.125 21.3125 C-18.38514201 19.76682941 -10.69077609 15.9232759 -5.21484375 8.8125 C-3.29873338 5.95373726 -1.61348203 3.04079306 0 0 Z " fill="#B0D6E9" transform="translate(176,60)"/>
<path d="M0 0 C3.14195282 1.47206308 5.11234089 2.61255213 7.109375 5.48828125 C7.58375 6.06578125 8.058125 6.64328125 8.546875 7.23828125 C10.87979311 7.28229857 13.21387675 7.27782359 15.546875 7.23828125 C20.18566081 9.00101986 23.58499151 11.23102712 26.546875 15.23828125 C26.546875 18.20828125 26.546875 21.17828125 26.546875 24.23828125 C18.626875 24.23828125 10.706875 24.23828125 2.546875 24.23828125 C2.546875 23.57828125 2.546875 22.91828125 2.546875 22.23828125 C-13.953125 22.23828125 -30.453125 22.23828125 -47.453125 22.23828125 C-47.123125 21.57828125 -46.793125 20.91828125 -46.453125 20.23828125 C-42.823125 20.23828125 -39.193125 20.23828125 -35.453125 20.23828125 C-35.3603125 18.62953125 -35.3603125 18.62953125 -35.265625 16.98828125 C-34.453125 13.23828125 -34.453125 13.23828125 -32.265625 10.92578125 C-29.453125 9.23828125 -29.453125 9.23828125 -26.390625 8.30078125 C-22.76717941 6.99017327 -21.74402367 5.26817949 -19.453125 2.23828125 C-13.63936984 -1.96612992 -6.77884315 -2.10489556 0 0 Z " fill="#1D5184" transform="translate(331.453125,169.76171875)"/>
<path d="M0 0 C4.77524197 4.41709882 7.24559387 7.83140167 8.5 14.3125 C8.5 17.9425 8.5 21.5725 8.5 25.3125 C-0.74 25.3125 -9.98 25.3125 -19.5 25.3125 C-16.98447675 31.10264432 -16.98447675 31.10264432 -12.5 34.3125 C-8.33487623 34.77529153 -6.0684281 34.60228687 -2.3125 32.6875 C0.5 31.3125 0.5 31.3125 2.6875 31.9375 C4.46081093 33.28277036 6.00329061 34.66611968 7.5 36.3125 C6.2814634 39.9681098 5.45104302 40.25304049 2.125 42 C-4.16516098 44.9653616 -10.13415265 45.6873397 -16.83203125 43.578125 C-22.13156635 41.17907757 -25.39015083 38.08912627 -27.58203125 32.60546875 C-29.78835523 24.69086827 -29.66653156 14.89190284 -26.62109375 7.18359375 C-21.06016832 -2.09753266 -9.53415777 -4.59682607 0 0 Z M-16.5 9.3125 C-18.80707661 13.07182588 -18.80707661 13.07182588 -19.5 17.3125 C-13.23 17.3125 -6.96 17.3125 -0.5 17.3125 C-1.06886572 11.6795871 -1.06886572 11.6795871 -4.3125 8.4375 C-9.15507474 5.20911684 -12.08049081 5.91287755 -16.5 9.3125 Z " fill="#909090" transform="translate(1372.5,106.6875)"/>
<path d="M0 0 C3.61689201 2.59674298 6.00959797 4.4662939 7.4375 8.75 C7.52244728 11.40894107 7.55344796 14.04085377 7.53515625 16.69921875 C7.5337413 17.47183548 7.53232635 18.24445221 7.53086853 19.04048157 C7.52527466 21.50619389 7.51272333 23.97181515 7.5 26.4375 C7.49498421 28.11002473 7.49042144 29.78255088 7.48632812 31.45507812 C7.47530724 35.55342046 7.45804684 39.65169479 7.4375 43.75 C6.29861328 43.73259766 6.29861328 43.73259766 5.13671875 43.71484375 C4.14285156 43.70582031 3.14898438 43.69679687 2.125 43.6875 C1.13886719 43.67589844 0.15273437 43.66429687 -0.86328125 43.65234375 C-3.66213849 43.62670138 -3.66213849 43.62670138 -6.5625 44.75 C-12.80365873 45.36504149 -18.45944485 45.31086105 -23.96484375 42.06640625 C-26.91580415 39.63493032 -27.67431726 37.42115533 -28.5625 33.75 C-28.81008739 28.63851847 -28.43035929 24.97521311 -25.4375 20.75 C-18.04849487 15.60982252 -10.2678548 16.53266798 -1.5625 16.75 C-2.66036425 11.34212615 -2.66036425 11.34212615 -6.5625 7.75 C-8.68952359 7.68736101 -8.68952359 7.68736101 -10.9375 8.0625 C-11.73414063 8.16691406 -12.53078125 8.27132812 -13.3515625 8.37890625 C-15.67054117 8.73032617 -15.67054117 8.73032617 -18.3125 9.5 C-21.4866806 9.85268673 -23.03134808 8.55796566 -25.5625 6.75 C-25.265625 4.890625 -25.265625 4.890625 -24.5625 2.75 C-17.18140225 -2.35999075 -8.45708786 -2.96739925 0 0 Z M-18.01953125 26.5703125 C-19.87238406 28.73018637 -19.87238406 28.73018637 -19.5 31.875 C-18.79555313 35.04174932 -18.79555313 35.04174932 -15.5625 36.75 C-12.92143458 37.06730856 -12.92143458 37.06730856 -10.0625 37 C-9.1034375 37.00515625 -8.144375 37.0103125 -7.15625 37.015625 C-4.32627103 36.92982609 -4.32627103 36.92982609 -1.5625 34.75 C-1.19833953 32.31306689 -1.19833953 32.31306689 -1.375 29.625 C-1.40207031 28.71492188 -1.42914062 27.80484375 -1.45703125 26.8671875 C-1.49183594 26.16851562 -1.52664063 25.46984375 -1.5625 24.75 C-3.81143954 24.64176227 -6.06187575 24.56430355 -8.3125 24.5 C-9.56546875 24.45359375 -10.8184375 24.4071875 -12.109375 24.359375 C-15.60352705 24.46250057 -15.60352705 24.46250057 -18.01953125 26.5703125 Z " fill="#909090" transform="translate(1496.5625,106.25)"/>
<path d="M0 0 C3.9614221 2.97106658 6.9035406 6.08562181 8.5 10.875 C8.75609828 14.47473294 8.73134254 18.07961345 8.75 21.6875 C8.770625 22.67298828 8.79125 23.65847656 8.8125 24.67382812 C8.84643078 30.98919428 8.41124646 35.60664064 4.03515625 40.51953125 C-2.08265801 45.37159083 -7.85907554 45.61478522 -15.5 44.875 C-20.23459911 43.57161119 -23.38633157 41.61176186 -25.9375 37.375 C-29.6702232 29.01370003 -30.25816384 16.94408939 -27.375 8.125 C-21.56528713 -1.94516897 -10.59866208 -3.40671281 0 0 Z M-18.5 12.875 C-19.13813367 15.75821713 -19.06615606 18.49859207 -18.9375 21.4375 C-18.93169922 22.19224609 -18.92589844 22.94699219 -18.91992188 23.72460938 C-18.83610904 27.52971214 -18.71709846 30.69742568 -16.5 33.875 C-13.27706714 36.1770949 -10.38003676 36.35010654 -6.5 35.875 C-3.16238955 33.72409549 -1.76529067 32.67087201 -0.5 28.875 C0.58616821 18.99098211 0.58616821 18.99098211 -2.5 9.9375 C-5.7950313 7.67216598 -7.54468067 7.19932653 -11.4375 7.17578125 C-14.83978371 8.32920698 -16.33755999 10.0337838 -18.5 12.875 Z " fill="#909090" transform="translate(1595.5,106.125)"/>
<path d="M0 0 C3.9614221 2.97106658 6.9035406 6.08562181 8.5 10.875 C8.75609828 14.47473294 8.73134254 18.07961345 8.75 21.6875 C8.770625 22.67298828 8.79125 23.65847656 8.8125 24.67382812 C8.84643078 30.98919428 8.41124646 35.60664064 4.03515625 40.51953125 C-2.08265801 45.37159083 -7.85907554 45.61478522 -15.5 44.875 C-20.23459911 43.57161119 -23.38633157 41.61176186 -25.9375 37.375 C-29.6702232 29.01370003 -30.25816384 16.94408939 -27.375 8.125 C-21.56528713 -1.94516897 -10.59866208 -3.40671281 0 0 Z M-18.5 12.875 C-19.13813367 15.75821713 -19.06615606 18.49859207 -18.9375 21.4375 C-18.93169922 22.19224609 -18.92589844 22.94699219 -18.91992188 23.72460938 C-18.83610904 27.52971214 -18.71709846 30.69742568 -16.5 33.875 C-13.27706714 36.1770949 -10.38003676 36.35010654 -6.5 35.875 C-3.16238955 33.72409549 -1.76529067 32.67087201 -0.5 28.875 C0.58616821 18.99098211 0.58616821 18.99098211 -2.5 9.9375 C-5.7950313 7.67216598 -7.54468067 7.19932653 -11.4375 7.17578125 C-14.83978371 8.32920698 -16.33755999 10.0337838 -18.5 12.875 Z " fill="#909090" transform="translate(1156.5,106.125)"/>
<path d="M0 0 C3.3 0 6.6 0 10 0 C10.01981934 0.91813477 10.03963867 1.83626953 10.06005859 2.78222656 C10.13826955 6.19671825 10.22496584 9.61077702 10.31738281 13.02490234 C10.35560666 14.50105536 10.39047103 15.97729943 10.421875 17.45361328 C10.46766986 19.57878094 10.52563837 21.70332542 10.5859375 23.828125 C10.6173584 25.1059082 10.6487793 26.38369141 10.68115234 27.70019531 C10.97455022 30.73661617 11.28630306 32.51080577 13 35 C15.03535845 35.84895988 15.03535845 35.84895988 17.375 36 C18.14585938 36.103125 18.91671875 36.20625 19.7109375 36.3125 C23.02468711 35.86011097 23.9653201 34.62238311 26 32 C26.64273954 28.52275106 26.64273954 28.52275106 26.609375 24.609375 C26.62591125 23.90476135 26.64244751 23.20014771 26.65948486 22.47418213 C26.70791139 20.23269898 26.72932187 17.99189387 26.75 15.75 C26.77816448 14.22652849 26.80809259 12.70308848 26.83984375 11.1796875 C26.91366593 7.45327244 26.96327469 3.7269862 27 0 C30.3 0 33.6 0 37 0 C37 14.85 37 29.7 37 45 C33.7 45 30.4 45 27 45 C26.67 44.34 26.34 43.68 26 43 C25.38125 43.495 24.7625 43.99 24.125 44.5 C19.70404519 46.62205831 15.82355156 46.68907879 11 46 C6.13024058 43.65530102 3.55552581 40.7324552 1 36 C0.03657668 31.58198788 -0.11694168 27.36435221 -0.09765625 22.8515625 C-0.09553383 21.86547501 -0.09553383 21.86547501 -0.09336853 20.85946655 C-0.08781762 18.78126269 -0.07527465 16.70317073 -0.0625 14.625 C-0.05747864 13.20703282 -0.05291685 11.78906393 -0.04882812 10.37109375 C-0.03786437 6.91402678 -0.02063421 3.45702433 0 0 Z " fill="#909090" transform="translate(1220,105)"/>
<path d="M0 0 C3.3 0 6.6 0 10 0 C10.33 1.32 10.66 2.64 11 4 C11.598125 3.34 12.19625 2.68 12.8125 2 C17.46579053 -0.91971171 21.64154121 -0.778983 27 0 C31.49612965 2.1677768 33.90406512 4.47719315 36 9 C37.06144102 13.12123749 37.115125 17.02462618 37.09765625 21.26953125 C37.0962413 21.95053391 37.09482635 22.63153656 37.09336853 23.33317566 C37.08780298 25.49299647 37.07525703 27.65271089 37.0625 29.8125 C37.05748054 31.28320162 37.05291841 32.75390488 37.04882812 34.22460938 C37.03784488 37.8164404 37.02060422 41.4082098 37 45 C33.7 45 30.4 45 27 45 C26.9906543 44.08186523 26.98130859 43.16373047 26.97167969 42.21777344 C26.92760069 38.80294722 26.86596268 35.38936892 26.79248047 31.97509766 C26.76429912 30.49897804 26.74307034 29.02270831 26.72900391 27.54638672 C26.70753302 25.42076943 26.66086957 23.29695121 26.609375 21.171875 C26.58842773 19.8940918 26.56748047 18.61630859 26.54589844 17.29980469 C25.91315112 13.4750226 25.10659059 12.25516495 22 10 C18.15817613 9.45116802 16.01078113 9.26624442 12.81933594 11.58300781 C10.35177615 14.86116695 10.45747376 17.09410093 10.390625 21.171875 C10.37408875 21.8542926 10.35755249 22.53671021 10.34051514 23.23980713 C10.29210161 25.40996354 10.27068135 27.57941972 10.25 29.75 C10.22183438 31.22529552 10.19190611 32.70055851 10.16015625 34.17578125 C10.08634775 37.78370198 10.03673106 41.39148972 10 45 C6.7 45 3.4 45 0 45 C0 30.15 0 15.3 0 0 Z " fill="#909090" transform="translate(1616,105)"/>
<path d="M0 0 C3.3 0 6.6 0 10 0 C10.33 1.32 10.66 2.64 11 4 C11.598125 3.34 12.19625 2.68 12.8125 2 C17.46579053 -0.91971171 21.64154121 -0.778983 27 0 C31.49612965 2.1677768 33.90406512 4.47719315 36 9 C37.06144102 13.12123749 37.115125 17.02462618 37.09765625 21.26953125 C37.0962413 21.95053391 37.09482635 22.63153656 37.09336853 23.33317566 C37.08780298 25.49299647 37.07525703 27.65271089 37.0625 29.8125 C37.05748054 31.28320162 37.05291841 32.75390488 37.04882812 34.22460938 C37.03784488 37.8164404 37.02060422 41.4082098 37 45 C33.7 45 30.4 45 27 45 C26.9906543 44.08186523 26.98130859 43.16373047 26.97167969 42.21777344 C26.92760069 38.80294722 26.86596268 35.38936892 26.79248047 31.97509766 C26.76429912 30.49897804 26.74307034 29.02270831 26.72900391 27.54638672 C26.70753302 25.42076943 26.66086957 23.29695121 26.609375 21.171875 C26.58842773 19.8940918 26.56748047 18.61630859 26.54589844 17.29980469 C25.91315112 13.4750226 25.10659059 12.25516495 22 10 C18.15817613 9.45116802 16.01078113 9.26624442 12.81933594 11.58300781 C10.35177615 14.86116695 10.45747376 17.09410093 10.390625 21.171875 C10.37408875 21.8542926 10.35755249 22.53671021 10.34051514 23.23980713 C10.29210161 25.40996354 10.27068135 27.57941972 10.25 29.75 C10.22183438 31.22529552 10.19190611 32.70055851 10.16015625 34.17578125 C10.08634775 37.78370198 10.03673106 41.39148972 10 45 C6.7 45 3.4 45 0 45 C0 30.15 0 15.3 0 0 Z " fill="#909090" transform="translate(1392,105)"/>
<path d="M0 0 C8.91 0 17.82 0 27 0 C26 7 26 7 25 10 C25.99 9.67 26.98 9.34 28 9 C27.21302675 12.41021743 26.12880057 15.68885166 25 19 C25.99 19 26.98 19 28 19 C26.37003104 23.13822218 24.63344645 27.22768778 22.875 31.3125 C22.59785156 31.95767578 22.32070312 32.60285156 22.03515625 33.26757812 C21.35732446 34.84529005 20.67873926 36.42267826 20 38 C21.65 38 23.3 38 25 38 C23.02 41.96 21.04 45.92 19 50 C20.32 50.33 21.64 50.66 23 51 C21.02 54.96 19.04 58.92 17 63 C13.35812142 61.78604047 13.08254007 60.90993923 11.3125 57.625 C10.87550781 56.83351562 10.43851563 56.04203125 9.98828125 55.2265625 C9 53 9 53 9 50 C9.99 50 10.98 50 12 50 C11.54625 48.948125 11.0925 47.89625 10.625 46.8125 C9.37239999 43.89174547 8.16489979 40.95705332 7 38 C8.65 38 10.3 38 12 38 C10.02 33.71 8.04 29.42 6 25 C6.99 25 7.98 25 9 25 C6.41682074 18.47711158 3.74017656 12.00516693 0.953125 5.56640625 C0 3 0 3 0 0 Z " fill="#AED5E9" transform="translate(230,110)"/>
<path d="M0 0 C2.94244821 1.5877879 4.00694 3.1886869 5.3125 6.25 C3.0625 8.8125 3.0625 8.8125 0.3125 11.25 C-2.79939674 11.15847363 -4.03424377 10.01883749 -6.6875 8.25 C-12.80879432 7.84437157 -12.80879432 7.84437157 -18.6875 9.25 C-19.95373134 13.04869402 -19.98889516 16.66372112 -20.0625 20.625 C-20.09988281 21.38039062 -20.13726563 22.13578125 -20.17578125 22.9140625 C-20.24254158 27.15705237 -20.05475755 28.7729374 -17.375 32.25390625 C-14.7800581 34.49829615 -14.7800581 34.49829615 -11.3125 34.8125 C-6.87913297 34.12456374 -4.42145951 32.68850417 -0.6875 30.25 C1.2925 32.23 3.2725 34.21 5.3125 36.25 C3.85413185 40.09478875 1.94791701 41.4322915 -1.6875 43.25 C-7.57062549 45.06887675 -14.75509545 45.2947995 -20.5625 43.125 C-26.26559658 39.70314205 -29.00745306 35.5836283 -30.6875 29.25 C-30.98151674 26.43143424 -31.01252017 23.64456327 -31 20.8125 C-31.01611328 20.08740234 -31.03222656 19.36230469 -31.04882812 18.61523438 C-31.05465836 12.12617793 -29.58210728 7.49361388 -25.3125 2.4375 C-18.45518892 -3.2769259 -8.02219011 -3.73193459 0 0 Z " fill="#909090" transform="translate(1206.6875,106.75)"/>
<path d="M0 0 C2.97 0 5.94 0 9 0 C9 4.29 9 8.58 9 13 C11.31 13 13.62 13 16 13 C16 15.97 16 18.94 16 22 C13.69 22 11.38 22 9 22 C9.33 30.58 9.66 39.16 10 48 C11.98 48.66 13.96 49.32 16 50 C16 52.97 16 55.94 16 59 C7.032 59.304 7.032 59.304 3 57 C0.55074665 54.5333813 0.02126831 53.20606625 -0.34057617 49.70019531 C-0.32486572 48.42241211 -0.30915527 47.14462891 -0.29296875 45.828125 C-0.28872391 45.1457074 -0.28447906 44.46328979 -0.28010559 43.76019287 C-0.26336972 41.58971996 -0.22572959 39.42019021 -0.1875 37.25 C-0.17244646 35.77475303 -0.15875922 34.29949145 -0.14648438 32.82421875 C-0.11348377 29.21584156 -0.06173767 25.6080129 0 22 C-1.65 22 -3.3 22 -5 22 C-5 19.03 -5 16.06 -5 13 C-3.35 13 -1.7 13 0 13 C0 8.71 0 4.42 0 0 Z " fill="#909090" transform="translate(1519,92)"/>
<path d="M0 0 C2.97 0 5.94 0 9 0 C9 4.29 9 8.58 9 13 C11.31 13 13.62 13 16 13 C16 15.97 16 18.94 16 22 C13.69 22 11.38 22 9 22 C9.33 30.58 9.66 39.16 10 48 C11.98 48.66 13.96 49.32 16 50 C16 52.97 16 55.94 16 59 C7.032 59.304 7.032 59.304 3 57 C0.55074665 54.5333813 0.02126831 53.20606625 -0.34057617 49.70019531 C-0.32486572 48.42241211 -0.30915527 47.14462891 -0.29296875 45.828125 C-0.28872391 45.1457074 -0.28447906 44.46328979 -0.28010559 43.76019287 C-0.26336972 41.58971996 -0.22572959 39.42019021 -0.1875 37.25 C-0.17244646 35.77475303 -0.15875922 34.29949145 -0.14648438 32.82421875 C-0.11348377 29.21584156 -0.06173767 25.6080129 0 22 C-1.65 22 -3.3 22 -5 22 C-5 19.03 -5 16.06 -5 13 C-3.35 13 -1.7 13 0 13 C0 8.71 0 4.42 0 0 Z " fill="#909090" transform="translate(1443,92)"/>
<path d="M0 0 C0.66 0 1.32 0 2 0 C2.04898438 0.86882812 2.09796875 1.73765625 2.1484375 2.6328125 C2.22320312 3.78523438 2.29796875 4.93765625 2.375 6.125 C2.44460937 7.26195313 2.51421875 8.39890625 2.5859375 9.5703125 C2.99443876 12.95393616 3.80967569 15.81612441 5 19 C5.66 18.67 6.32 18.34 7 18 C7.6875 20.25 7.6875 20.25 8 23 C7.525625 23.5465625 7.05125 24.093125 6.5625 24.65625 C4.33008121 28.00487818 4.43313418 31.34834581 4.3125 35.25 C4.27833984 35.99507812 4.24417969 36.74015625 4.20898438 37.5078125 C4.12685946 39.33802492 4.06174347 41.16898669 4 43 C8.8814476 40.35189444 10.22300131 38.33099608 12 33 C12.4054103 30.67810464 12.76072994 28.34484656 13 26 C14.32 26 15.64 26 17 26 C17.66 26.99 18.32 27.98 19 29 C19.99 29 20.98 29 22 29 C21.8125 31.375 21.8125 31.375 21 34 C20.195625 34.309375 19.39125 34.61875 18.5625 34.9375 C17.716875 35.288125 16.87125 35.63875 16 36 C15.731875 36.9075 15.46375 37.815 15.1875 38.75 C13.65985236 42.93093039 11.46513015 44.24810953 7.875 46.703125 C5.88097618 47.99948256 5.88097618 47.99948256 4 50 C4 50.99 4 51.98 4 53 C4 53.99 4 54.98 4 56 C3.34 56.66 2.68 57.32 2 58 C1.60235737 59.98821313 1.26224651 61.98944339 1 64 C0.67 64 0.34 64 0 64 C-0.73256234 59.85265889 -1.05392125 55.92946382 -1.03515625 51.71484375 C-1.04095703 50.77189453 -1.04675781 49.82894531 -1.05273438 48.85742188 C-1.05925819 46.90680069 -1.03830331 44.9558991 -0.99023438 43.00585938 C-1.00440235 37.56588496 -1.00440235 37.56588496 -3.75756836 33.09521484 C-5.85932836 31.50146376 -5.85932836 31.50146376 -8.04492188 30.24536133 C-11.2484122 28.2047764 -12.80648911 25.55293705 -14 22 C-14.57068025 18.66859305 -14.86416203 15.37557347 -15 12 C-13.68 11.67 -12.36 11.34 -11 11 C-10.74476562 12.08667969 -10.74476562 12.08667969 -10.484375 13.1953125 C-9.05819502 18.88486028 -7.72873816 23.4292887 -4 28 C-3.34 28.33 -2.68 28.66 -2 29 C-1.34 19.43 -0.68 9.86 0 0 Z " fill="#1E5184" transform="translate(114,80)"/>
<path d="M0 0 C-1.32 2.97 -2.64 5.94 -4 9 C-2.02 9 -0.04 9 2 9 C0.66042337 12.60655245 -0.67919144 15.91635231 -3 19 C-5.54370117 19.56762695 -5.54370117 19.56762695 -8.54296875 19.48828125 C-9.61611328 19.47216797 -10.68925781 19.45605469 -11.79492188 19.43945312 C-12.91447266 19.39755859 -14.03402344 19.35566406 -15.1875 19.3125 C-16.31865234 19.28994141 -17.44980469 19.26738281 -18.61523438 19.24414062 C-21.41147976 19.18514811 -24.20508097 19.1028824 -27 19 C-30.44419134 8.62642369 -30.44419134 8.62642369 -30 3 C-10.0625 -0.21875 -10.0625 -0.21875 0 0 Z " fill="#5FA3D9" transform="translate(213,170)"/>
<path d="M0 0 C0 7.92 0 15.84 0 24 C-8.25 24 -16.5 24 -25 24 C-25 18.72 -25 13.44 -25 8 C-22.3703125 7.4121875 -22.3703125 7.4121875 -19.6875 6.8125 C-14.16803541 5.45063922 -9.27296869 3.49063244 -4.1796875 0.98828125 C-2 0 -2 0 0 0 Z " fill="#61A3D7" transform="translate(141,129)"/>
<path d="M0 0 C3.3 0 6.6 0 10 0 C10 14.85 10 29.7 10 45 C6.7 45 3.4 45 0 45 C0 30.15 0 15.3 0 0 Z " fill="#909090" transform="translate(1546,105)"/>
<path d="M0 0 C0.79664062 0.47050781 1.59328125 0.94101563 2.4140625 1.42578125 C3.47367187 2.04839844 4.53328125 2.67101562 5.625 3.3125 C6.66914062 3.92738281 7.71328125 4.54226562 8.7890625 5.17578125 C11.80261548 6.88786062 14.89997195 8.44998598 18 10 C18 15.28 18 20.56 18 26 C13.71 26 9.42 26 5 26 C4.54625 24.164375 4.0925 22.32875 3.625 20.4375 C2.76872196 16.97992232 1.87221637 13.58974728 0.8125 10.1875 C-0.08025656 6.68514736 -0.14692827 3.59974256 0 0 Z " fill="#AED5E9" transform="translate(96,127)"/>
<path d="M0 0 C1.875 1.1875 1.875 1.1875 3 3 C3.50169583 6.9418958 3.64737288 9.08888261 1.3125 12.375 C-1.29641704 14.20829306 -2.81896986 14.8448278 -6 15 C-8.90556802 14.25671516 -10.47190757 13.64811344 -12.375 11.3125 C-13.28848169 7.93261775 -12.79882263 5.37963422 -12 2 C-8.53878332 -2.71984092 -5.01001853 -2.08750772 0 0 Z " fill="#B0D7EA" transform="translate(246,74)"/>
<path d="M0 0 C0 2.64 0 5.28 0 8 C-3.43564022 9.00646726 -6.87379629 10.0040545 -10.3125 11 C-11.28896484 11.28617188 -12.26542969 11.57234375 -13.27148438 11.8671875 C-14.20927734 12.13789063 -15.14707031 12.40859375 -16.11328125 12.6875 C-17.40939331 13.06455078 -17.40939331 13.06455078 -18.73168945 13.44921875 C-21 14 -21 14 -24 14 C-24 12.02 -24 10.04 -24 8 C-22.62328125 7.63648438 -22.62328125 7.63648438 -21.21875 7.265625 C-14.87682995 5.53358801 -6.08151091 0 0 0 Z " fill="#B0D7EA" transform="translate(141,129)"/>
<path d="M0 0 C6.27 0 12.54 0 19 0 C19.33 2.31 19.66 4.62 20 7 C13.73 7 7.46 7 1 7 C0.34 5.35 -0.32 3.7 -1 2 C-0.67 1.34 -0.34 0.68 0 0 Z " fill="#52493B" transform="translate(123,187)"/>
<path d="M0 0 C6.75 -0.125 6.75 -0.125 9 1 C8.37240135 3.92879371 7.41377341 6.36095629 6 9 C6.66 9 7.32 9 8 9 C7.68954268 10.9169986 7.37655329 12.83358723 7.0625 14.75 C6.88847656 15.81734375 6.71445313 16.8846875 6.53515625 17.984375 C6.11295829 20.36347593 5.62797116 22.66915211 5 25 C4.34 25 3.68 25 3 25 C3 24.34 3 23.68 3 23 C2.34 23 1.68 23 1 23 C1 22.34 1 21.68 1 21 C1.66 21 2.32 21 3 21 C2.86722656 20.45472656 2.73445313 19.90945312 2.59765625 19.34765625 C1.09828747 12.94524213 0 6.59081031 0 0 Z " fill="#ACD4E8" transform="translate(78,122)"/>
<path d="M0 0 C0.66 0.33 1.32 0.66 2 1 C2 1.66 2 2.32 2 3 C3.32 3 4.64 3 6 3 C6.33 2.34 6.66 1.68 7 1 C8.32 1.66 9.64 2.32 11 3 C9.02 6.96 7.04 10.92 5 15 C1.35812142 13.78604047 1.08254007 12.90993923 -0.6875 9.625 C-1.12449219 8.83351562 -1.56148437 8.04203125 -2.01171875 7.2265625 C-3 5 -3 5 -3 2 C-2.01 2 -1.02 2 0 2 C0 1.34 0 0.68 0 0 Z " fill="#66A6D8" transform="translate(242,158)"/>
<path d="M0 0 C0 0.99 0 1.98 0 3 C0.99 3 1.98 3 3 3 C0.63636364 9.54545455 0.63636364 9.54545455 -2 12 C-5.6875 12.25 -5.6875 12.25 -9 12 C-9.4375 9.375 -9.4375 9.375 -9 6 C-6.63912409 3.24874304 -3.78551072 0 0 0 Z " fill="#AFD6E9" transform="translate(61,140)"/>
<path d="M0 0 C3.3 0 6.6 0 10 0 C10 2.97 10 5.94 10 9 C6.7 9 3.4 9 0 9 C0 6.03 0 3.06 0 0 Z " fill="#909090" transform="translate(1546,88)"/>
<path d="M0 0 C0.33 0 0.66 0 1 0 C1 5.28 1 10.56 1 16 C-3.29 16 -7.58 16 -12 16 C-12.33 14.35 -12.66 12.7 -13 11 C-8.71 10.34 -4.42 9.68 0 9 C0 6.03 0 3.06 0 0 Z " fill="#5B9BCE" transform="translate(113,137)"/>
<path d="M0 0 C7.59 0 15.18 0 23 0 C23 0.66 23 1.32 23 2 C16.4 2 9.8 2 3 2 C3 2.66 3 3.32 3 4 C2.34 4 1.68 4 1 4 C0.67 2.68 0.34 1.36 0 0 Z " fill="#16487C" transform="translate(187,190)"/>
<path d="M0 0 C0.33 0.99 0.66 1.98 1 3 C0.01 3.495 0.01 3.495 -1 4 C-0.2575 5.423125 -0.2575 5.423125 0.5 6.875 C2 10 2 10 2 12 C-1 11 -1 11 -2.75 8.125 C-4 5 -4 5 -3 2 C-2.01 2 -1.02 2 0 2 C0 1.34 0 0.68 0 0 Z " fill="#356794" transform="translate(238,132)"/>
<path d="M0 0 C-0.66 1.98 -1.32 3.96 -2 6 C-3.32 5.34 -4.64 4.68 -6 4 C-6 3.01 -6 2.02 -6 1 C-3.92446352 0.4465236 -2.15634036 0 0 0 Z " fill="#589AD0" transform="translate(250,178)"/>
<path d="M0 0 C0.99 0.66 1.98 1.32 3 2 C2.67 3.32 2.34 4.64 2 6 C1.34 6 0.68 6 0 6 C0 5.34 0 4.68 0 4 C-0.66 4 -1.32 4 -2 4 C-2 3.34 -2 2.68 -2 2 C-1.34 2 -0.68 2 0 2 C0 1.34 0 0.68 0 0 Z " fill="#85B0CC" transform="translate(81,141)"/>
</svg>
