<?xml version="1.0" encoding="UTF-8"?>
<svg version="1.1" xmlns="http://www.w3.org/2000/svg" width="1500" height="240">
<path d="M0 0 C8.45919978 8.67335674 9.84165392 18.15995086 10 30.01611328 C9.83334989 43.0356531 7.28047196 55.61154728 3.97265625 68.15234375 C5.13861328 68.82330078 5.13861328 68.82330078 6.328125 69.5078125 C9.39212403 71.41319447 11.05383593 73.09644472 12.97265625 76.15234375 C13.03920384 78.1512363 13.04708741 80.15372923 12.97265625 82.15234375 C-3.64840955 83.13494659 -20.23162231 83.33141205 -36.87890625 83.35546875 C-38.22638344 83.35821431 -39.5738604 83.36107144 -40.92133713 83.36403656 C-47.2307925 83.3775934 -53.5402355 83.38732916 -59.84970438 83.39123845 C-67.09472945 83.39575634 -74.33956937 83.41352348 -81.5845381 83.44223905 C-87.22572989 83.46381638 -92.86686919 83.47393983 -98.50810182 83.47527957 C-101.86311671 83.47632608 -105.2179546 83.48220685 -108.57292557 83.50009918 C-112.29176586 83.51705771 -116.0101412 83.51530721 -119.72900391 83.50878906 C-120.83536697 83.51800385 -121.94173004 83.52721863 -123.08161926 83.53671265 C-124.59469414 83.52835892 -124.59469414 83.52835892 -126.13833618 83.51983643 C-127.01533991 83.52130299 -127.89234364 83.52276955 -128.79592323 83.52428055 C-131.51446572 83.07114947 -132.35044301 82.29503354 -134.02734375 80.15234375 C-135.16015625 77.91796875 -135.16015625 77.91796875 -136.15234375 75.40234375 C-136.48492187 74.5825 -136.8175 73.76265625 -137.16015625 72.91796875 C-139.07322712 66.8168238 -139.16723292 60.70182064 -139.125 54.375 C-139.12358505 53.56365097 -139.1221701 52.75230194 -139.12071228 51.91636658 C-139.11515732 49.34915328 -139.10261342 46.78203027 -139.08984375 44.21484375 C-139.08482292 42.46419398 -139.08026104 40.71354282 -139.07617188 38.96289062 C-139.06520268 34.69267405 -139.04796957 30.42252416 -139.02734375 26.15234375 C-138.17881836 25.90492432 -137.33029297 25.65750488 -136.45605469 25.40258789 C-130.12925002 23.51504034 -124.1884999 21.52571797 -118.27734375 18.58984375 C-105.00181862 12.15234375 -105.00181862 12.15234375 -99.02734375 12.15234375 C-99.02734375 11.49234375 -99.02734375 10.83234375 -99.02734375 10.15234375 C-90.44734375 10.15234375 -81.86734375 10.15234375 -73.02734375 10.15234375 C-72.03734375 6.52234375 -71.04734375 2.89234375 -70.02734375 -0.84765625 C-69.69734375 -1.83765625 -69.36734375 -2.82765625 -69.02734375 -3.84765625 C-66.02734375 -2.84765625 -66.02734375 -2.84765625 -65.078125 -1.140625 C-64.83449219 -0.44582031 -64.59085937 0.24898438 -64.33984375 0.96484375 C-64.08847656 1.65191406 -63.83710938 2.33898437 -63.578125 3.046875 C-63.02734375 5.15234375 -63.02734375 5.15234375 -63.02734375 9.15234375 C-54.52665188 5.8367212 -46.16292402 2.39099994 -37.9296875 -1.55078125 C-26.46712189 -6.67268136 -9.98741458 -9.10221021 0 0 Z " fill="#205386" transform="translate(285.02734375,107.84765625)"/>
<path d="M0 0 C0.9440114 -0.00295142 1.88802281 -0.00590285 2.86064062 -0.00894371 C6.05995348 -0.01768414 9.25923041 -0.01921982 12.45855427 -0.02082157 C14.76105582 -0.02554916 17.06355653 -0.03069961 19.36605626 -0.03623921 C25.72150112 -0.05018699 32.07694024 -0.05774064 38.43239653 -0.0642122 C44.57384686 -0.07090851 50.71528743 -0.08319535 56.85673025 -0.09468719 C74.09934512 -0.126565 91.34196904 -0.14637735 108.58460352 -0.16397271 C113.25343904 -0.16873907 117.92227427 -0.17374798 122.59110951 -0.17877793 C151.56025936 -0.2098219 180.52941148 -0.23644581 209.4985733 -0.25319672 C216.21247264 -0.2571341 222.92637193 -0.26114591 229.64027119 -0.2652216 C230.89147516 -0.2659741 230.89147516 -0.2659741 232.16795597 -0.2667418 C259.21821785 -0.28316326 286.26838933 -0.32162376 313.31860673 -0.3725087 C341.11693939 -0.42470579 368.9152239 -0.45750771 396.71360656 -0.46477425 C400.63818507 -0.46580288 404.56276348 -0.46703921 408.48734188 -0.46839428 C409.64596612 -0.46878134 409.64596612 -0.46878134 410.8279969 -0.46917621 C423.26958599 -0.47387517 435.71105613 -0.49882649 448.15260066 -0.53114571 C460.65402562 -0.56314744 473.15531634 -0.57316582 485.6567774 -0.56071376 C492.43232435 -0.55456142 499.20747508 -0.55887347 505.98297024 -0.5888834 C512.18176605 -0.61611576 518.37992016 -0.61584506 524.57872943 -0.59337295 C526.82508754 -0.59013322 529.07148762 -0.59711526 531.31777551 -0.61517017 C534.3651351 -0.63818524 537.41018139 -0.62440952 540.45748901 -0.60127258 C541.33535732 -0.61674882 542.21322564 -0.63222505 543.11769602 -0.64817026 C548.75879374 -0.55324227 551.66340047 0.75235365 555.75144394 4.6580488 C558.99076655 8.37341563 558.22241991 12.77041077 558.25208759 17.435462 C558.26187138 18.39986706 558.27165516 19.36427212 558.28173542 20.35790157 C558.31172891 23.55992908 558.33308729 26.76191465 558.35194111 29.96402645 C558.35851294 31.05671148 558.36508476 32.14939651 558.37185574 33.27519321 C558.40446867 39.06037381 558.42891331 44.84553584 558.44837666 50.6307745 C558.46618511 55.41978422 558.50099599 60.20820462 558.55091572 64.99698544 C558.61109721 70.77652069 558.64185019 76.55550968 558.65154934 82.33534336 C558.6601098 84.53737202 558.67894228 86.73938586 558.70829296 88.94123554 C558.7472095 92.027197 558.7482413 95.1110321 558.74036884 98.19718075 C558.76036945 99.10394558 558.78037006 100.01071041 558.80097675 100.94495296 C558.73515346 106.70447367 557.53584194 109.69171659 553.5266552 113.86044693 C549.85992955 117.02301698 545.67178699 116.28431572 541.08669472 116.2796154 C540.14268331 116.28256683 539.19867191 116.28551825 538.2260541 116.28855911 C535.02674124 116.29729954 531.82746431 116.29883522 528.62814045 116.30043697 C526.3256389 116.30516457 524.02313819 116.31031501 521.72063845 116.31585461 C515.36519359 116.32980239 509.00975448 116.33735605 502.65429819 116.34382761 C496.51284785 116.35052391 490.37140729 116.36281075 484.22996447 116.37430259 C466.9873496 116.40618041 449.74472568 116.42599275 432.5020912 116.44358811 C427.83325568 116.44835447 423.16442044 116.45336338 418.4955852 116.45839334 C389.52643536 116.4894373 360.55728324 116.51606122 331.58812141 116.53281212 C324.87422208 116.5367495 318.16032279 116.54076131 311.44642353 116.544837 C310.19521956 116.5455895 310.19521956 116.5455895 308.91873874 116.5463572 C281.86847686 116.56277866 254.81830539 116.60123916 227.76808799 116.6521241 C199.96975533 116.70432119 172.17147082 116.73712311 144.37308815 116.74438965 C140.44850965 116.74541829 136.52393124 116.74665461 132.59935284 116.74800968 C131.4407286 116.74839674 131.4407286 116.74839674 130.25869782 116.74879161 C117.81710873 116.75349057 105.37563859 116.7784419 92.93409406 116.81076111 C80.4326691 116.84276284 67.93137837 116.85278122 55.42991731 116.84032916 C48.65437037 116.83417682 41.87921964 116.83848888 35.10372448 116.8684988 C28.90492866 116.89573117 22.70677456 116.89546046 16.50796529 116.87298835 C14.26160718 116.86974863 12.01520709 116.87673066 9.76891921 116.89478558 C6.72155961 116.91780064 3.67651333 116.90402492 0.6292057 116.88088799 C-0.68759676 116.90410234 -0.68759676 116.90410234 -2.0310013 116.92778566 C-7.67209903 116.83285767 -10.57670576 115.52726175 -14.66474922 111.6215666 C-17.90407183 107.90619978 -17.13572519 103.50920463 -17.16539288 98.8441534 C-17.17517666 97.87974834 -17.18496044 96.91534328 -17.1950407 95.92171383 C-17.22503419 92.71968632 -17.24639257 89.51770075 -17.26524639 86.31558895 C-17.27181822 85.22290392 -17.27839005 84.13021889 -17.28516102 83.00442219 C-17.31777395 77.2192416 -17.34221859 71.43407956 -17.36168194 65.6488409 C-17.37949039 60.85983118 -17.41430127 56.07141079 -17.464221 51.28262997 C-17.52440249 45.50309472 -17.55515547 39.72410572 -17.56485462 33.94427204 C-17.57341508 31.74224339 -17.59224757 29.54022954 -17.62159824 27.33837986 C-17.66051478 24.2524184 -17.66154659 21.16858331 -17.65367413 18.08243465 C-17.67367474 17.17566982 -17.69367535 16.26890499 -17.71428204 15.33466244 C-17.64845875 9.57514173 -16.44914722 6.58789881 -12.43996048 2.41916847 C-8.77323484 -0.74340158 -4.58509227 -0.00470031 0 0 Z M-7.67710987 9.41898694 C-9.96372592 12.49419197 -9.37994769 16.37077374 -9.36070538 20.0616827 C-9.36756863 20.97413754 -9.37443188 21.88659237 -9.38150311 22.82669735 C-9.3998299 25.84789166 -9.39592556 28.86856965 -9.39024639 31.8898077 C-9.39480506 33.98583808 -9.40010969 36.08186695 -9.40613079 38.17789364 C-9.41507323 42.57281215 -9.41262549 46.96754905 -9.40269756 51.36246395 C-9.39120101 57.00208379 -9.4114244 62.64107816 -9.4406147 68.28061581 C-9.45893542 72.60941218 -9.45869258 76.9380575 -9.45297718 81.2668829 C-9.45282349 83.34656305 -9.4589071 85.42625315 -9.47126865 87.50589657 C-9.48610053 90.41031131 -9.47555952 93.31355531 -9.45836163 96.2179327 C-9.46802959 97.08140316 -9.47769756 97.94487362 -9.4876585 98.83450985 C-9.5217598 103.18384171 -9.5217598 103.18384171 -7.49321413 106.86053622 C-3.66506619 108.79119728 -0.10181204 108.551399 4.12953663 108.51733112 C5.53010297 108.52387161 5.53010297 108.52387161 6.95896357 108.53054422 C10.11130055 108.54155812 13.2632054 108.53104982 16.41553974 108.52075863 C18.68890848 108.52421276 20.96227555 108.52897567 23.2356391 108.53494036 C29.50119163 108.54751356 35.76660784 108.54125131 42.032161 108.53198171 C48.08944075 108.52591146 54.14669144 108.53387538 60.20396547 108.5414238 C73.36154797 108.55723948 86.51908684 108.55584453 99.67667352 108.54718707 C111.19091637 108.53964786 122.7051432 108.5376668 134.21938801 108.541255 C135.36392044 108.54159873 135.36392044 108.54159873 136.53157473 108.54194941 C139.62873248 108.54288338 142.72589023 108.54383858 145.82304797 108.5448287 C174.89167492 108.55401089 203.96027404 108.54567709 233.0288967 108.52953801 C258.86885219 108.51530062 284.70876334 108.51657447 310.54871845 108.53092098 C339.5633247 108.54697613 368.57790635 108.55335976 397.59251642 108.54408419 C400.68411318 108.543122 403.77570994 108.54218348 406.86730671 108.541255 C407.62856693 108.54101777 408.38982715 108.54078053 409.17415586 108.54053611 C420.68268888 108.53712008 432.19120413 108.54112125 443.69973469 108.54869366 C456.78215862 108.55725861 469.86453199 108.5551544 482.9469496 108.53885143 C489.62682368 108.53080231 496.30662744 108.5279163 502.98650646 108.53779888 C509.09424876 108.54669861 515.20181673 108.54189125 521.30954307 108.52586623 C523.52616736 108.52249831 525.74280619 108.52425717 527.95942122 108.53149359 C530.95888001 108.5405391 533.95773169 108.5313381 536.95715809 108.51733112 C537.82950098 108.52435462 538.70184388 108.53137812 539.6006214 108.53861445 C543.08040634 108.50585453 545.44120505 108.4434879 548.57990885 106.86053622 C551.15669193 103.83072383 550.58747934 100.00683652 550.54505634 96.2179327 C550.55045933 95.30547787 550.55586231 94.39302303 550.56142902 93.45291805 C550.5739541 90.43155306 550.5574001 87.41113395 550.53944111 84.3898077 C550.53959601 82.29377855 550.54108349 80.1977491 550.5438509 78.10172176 C550.54523659 73.70673635 550.53264827 69.31207661 550.50990009 64.91715145 C550.48151514 59.2776004 550.48425061 53.6385907 550.4969902 47.9989996 C550.50393817 43.67019669 550.49616817 39.34151938 550.48373318 35.01273251 C550.4792101 32.93306618 550.47888932 30.85338641 550.48279858 28.77371883 C550.48570213 25.86942465 550.46924473 22.96588203 550.44740009 20.0616827 C550.45190174 19.19821224 550.45640339 18.33474178 550.46104145 17.44510555 C550.52672805 13.16830642 550.52672805 13.16830642 548.76380458 9.41898694 C545.67359852 7.12138408 541.75429473 7.73263715 538.04617786 7.76228428 C537.10994447 7.75792396 536.17371108 7.75356363 535.20910698 7.74907118 C532.04217849 7.73804047 528.87567863 7.74857329 525.70875263 7.75885677 C523.42728466 7.7554033 521.14581835 7.75064084 518.86435556 7.74467504 C512.57181016 7.73209274 506.27940036 7.73836817 499.98685431 7.7476337 C493.90496145 7.75515913 487.82308276 7.74574193 481.74119379 7.7381916 C468.52903423 7.72237077 455.31691812 7.72377292 442.1047544 7.73242834 C430.54279207 7.73996579 418.9808457 7.74194942 407.41888142 7.7383604 C406.65287324 7.73813125 405.88686506 7.73790209 405.09764452 7.737666 C401.98841031 7.73673203 398.87917612 7.73577683 395.76994193 7.7347867 C366.5844508 7.72560329 337.39898738 7.73394024 308.21350052 7.75007739 C282.26630571 7.76431492 256.31915506 7.76304107 230.37196064 7.74869442 C201.24090888 7.73264132 172.10988162 7.7262545 142.97882605 7.73553121 C139.87515514 7.73649341 136.77148422 7.73743193 133.6678133 7.7383604 C132.52145263 7.73871625 132.52145263 7.73871625 131.35193316 7.73907929 C119.79534443 7.74249618 108.23877337 7.73849258 96.68218708 7.73092175 C83.54591162 7.72235911 70.40968651 7.72445602 57.27341735 7.74076398 C50.56531059 7.7488163 43.85729919 7.75169395 37.14919186 7.74181652 C31.01678989 7.73292307 24.88456167 7.73771359 18.75217563 7.75374918 C16.5254451 7.75711979 14.29870009 7.75535231 12.07197875 7.74812181 C9.06127831 7.73909028 6.05118477 7.74826269 3.04051685 7.76228428 C2.16205241 7.75526078 1.28358796 7.74823728 0.37850338 7.74100095 C-3.91327341 7.65766996 -3.91327341 7.65766996 -7.67710987 9.41898694 Z " fill="#3B3838" transform="translate(890.9566526412964,67.86019229888916)"/>
<path d="M0 0 C8.45660583 8.67069712 9.84162197 18.15442584 10 30.00732422 C9.843147 42.31188201 8.9546612 58.67933632 1.97265625 69.15234375 C-3.10018891 68.70473976 -5.31511457 66.38036913 -9.02734375 63.15234375 C-13.98796025 61.49880492 -19.01736295 61.25901895 -23.83984375 63.40234375 C-26.05367165 65.08761621 -26.05367165 65.08761621 -27.83984375 67.08984375 C-29.97347683 69.10155494 -31.51714837 69.912315 -34.15234375 71.08984375 C-37.17687799 72.50091827 -37.86514554 72.85498036 -39.52734375 75.90234375 C-39.69234375 76.64484375 -39.85734375 77.38734375 -40.02734375 78.15234375 C-43.45262198 78.57135837 -46.61847083 78.76125693 -50.02734375 78.15234375 C-52.39390332 76.17067519 -53.812266 73.97899831 -55.02734375 71.15234375 C-55.02734375 70.49234375 -55.02734375 69.83234375 -55.02734375 69.15234375 C-54.03734375 69.15234375 -53.04734375 69.15234375 -52.02734375 69.15234375 C-52.53265625 68.16492188 -53.03796875 67.1775 -53.55859375 66.16015625 C-54.21505388 64.86599199 -54.87129242 63.5717153 -55.52734375 62.27734375 C-55.86121094 61.62636719 -56.19507813 60.97539062 -56.5390625 60.3046875 C-59.02734375 55.37890625 -59.02734375 55.37890625 -59.02734375 53.15234375 C-57.04734375 52.65734375 -57.04734375 52.65734375 -55.02734375 52.15234375 C-55.68734375 51.03859375 -56.34734375 49.92484375 -57.02734375 48.77734375 C-59.02734375 45.40234375 -59.02734375 45.40234375 -59.02734375 43.15234375 C-58.03734375 43.15234375 -57.04734375 43.15234375 -56.02734375 43.15234375 C-56.46046875 42.16492188 -56.89359375 41.1775 -57.33984375 40.16015625 C-57.9025342 38.86596821 -58.4650238 37.57169282 -59.02734375 36.27734375 C-59.31351563 35.62636719 -59.5996875 34.97539062 -59.89453125 34.3046875 C-62.02734375 29.37890625 -62.02734375 29.37890625 -62.02734375 27.15234375 C-61.03734375 27.15234375 -60.04734375 27.15234375 -59.02734375 27.15234375 C-59.68734375 26.03859375 -60.34734375 24.92484375 -61.02734375 23.77734375 C-63.02734375 20.40234375 -63.02734375 20.40234375 -63.02734375 18.15234375 C-62.36734375 18.15234375 -61.70734375 18.15234375 -61.02734375 18.15234375 C-61.68734375 15.18234375 -62.34734375 12.21234375 -63.02734375 9.15234375 C-61.62935547 8.60707031 -61.62935547 8.60707031 -60.203125 8.05078125 C-52.65282689 5.08128298 -45.25018629 1.95401354 -37.9296875 -1.55078125 C-26.46712189 -6.67268136 -9.98741458 -9.10221021 0 0 Z " fill="#5EA3D9" transform="translate(285.02734375,107.84765625)"/>
<path d="M0 0 C2.56638404 1.4193675 3.96241612 2.8056789 6 5 C6 5.66 6 6.32 6 7 C6.62648438 7.06058594 7.25296875 7.12117188 7.8984375 7.18359375 C8.71570313 7.26738281 9.53296875 7.35117188 10.375 7.4375 C11.59316406 7.55931641 11.59316406 7.55931641 12.8359375 7.68359375 C15 8 15 8 17 9 C17 23.52 17 38.04 17 53 C15.515 53.495 15.515 53.495 14 54 C13.505 54.680625 13.01 55.36125 12.5 56.0625 C12.005 56.701875 11.51 57.34125 11 58 C10.01 58 9.02 58 8 58 C7.938125 58.556875 7.87625 59.11375 7.8125 59.6875 C6.63473177 63.03960959 4.66564604 64.69785114 2 67 C-0.8125 68.3125 -0.8125 68.3125 -3 69 C-3 71.64 -3 74.28 -3 77 C-0.93501309 76.40438884 1.12690474 75.79813145 3.1875 75.1875 C4.33605469 74.85105469 5.48460937 74.51460938 6.66796875 74.16796875 C9.77206907 73.07989607 12.21966903 71.7235089 15 70 C15.66 70 16.32 70 17 70 C17 77.59 17 85.18 17 93 C-7.75 93 -32.5 93 -58 93 C-58 85 -58 85 -56.1875 82.0625 C-54 80 -54 80 -51 79 C-50.855625 77.989375 -50.71125 76.97875 -50.5625 75.9375 C-50.376875 74.638125 -50.19125 73.33875 -50 72 C-49.855625 70.80375 -49.71125 69.6075 -49.5625 68.375 C-49 65 -49 65 -47.9375 62.5 C-46.80576035 59.97604361 -46.80576035 59.97604361 -47.125 57 C-47.36007371 51.13621682 -44.84522705 45.47801779 -43 40 C-42.34 40 -41.68 40 -41 40 C-38.25658428 48.026086 -36.34045325 55.50569131 -36 64 C-33.03 63.505 -33.03 63.505 -30 63 C-29.87625 62.319375 -29.7525 61.63875 -29.625 60.9375 C-28.90899123 57.5722588 -27.97054875 54.29986575 -27 51 C-26.01 51.33 -25.02 51.66 -24 52 C-23.12109375 54.80078125 -23.12109375 54.80078125 -22.4375 58.3125 C-21.25542546 65.45641263 -21.25542546 65.45641263 -16.72265625 70.66796875 C-15.84480469 71.16941406 -14.96695313 71.67085938 -14.0625 72.1875 C-13.18722656 72.69667969 -12.31195313 73.20585937 -11.41015625 73.73046875 C-8.96440258 75.10205451 -8.96440258 75.10205451 -6 76 C-6 69.73 -6 63.46 -6 57 C-7.65 56.34 -9.3 55.68 -11 55 C-15.78595686 50.39770289 -17.85167338 45.43062909 -19 39 C-20.051875 38.79375 -21.10375 38.5875 -22.1875 38.375 C-26.58062118 37.08920844 -28.59660807 34.93282316 -31 31 C-32.01653734 26.52366889 -31.32426372 23.63694659 -29.25 19.5625 C-27.05564244 17.06337056 -26.24889654 16.23206404 -23 16 C-22.855625 15.195625 -22.71125 14.39125 -22.5625 13.5625 C-22 11 -22 11 -21 10 C-19.33382885 9.95936168 -17.66611905 9.957279 -16 10 C-15.773125 9.0925 -15.54625 8.185 -15.3125 7.25 C-12.4514316 0.16544967 -7.1377325 -1.49015819 0 0 Z M-12 35 C-12.99 35.66 -13.98 36.32 -15 37 C-14.73129039 43.04596616 -14.07286979 47.22892396 -10 52 C-8.68 52.66 -7.36 53.32 -6 54 C-6 48.72 -6 43.44 -6 38 C-7.98 37.01 -9.96 36.02 -12 35 Z M-3 38 C-3 40.97 -3 43.94 -3 47 C-2.01 46.01 -1.02 45.02 0 44 C-0.23283149 40.85078091 -0.23283149 40.85078091 -1 38 C-1.66 38 -2.32 38 -3 38 Z M-1.15625 47.9375 C-3.93389298 51.04469384 -3.4290675 54.24457141 -3.25 58.1875 C-3.23195312 58.93708984 -3.21390625 59.68667969 -3.1953125 60.45898438 C-3.14824109 62.3065371 -3.07649766 64.15343159 -3 66 C2.85751338 62.67723473 2.85751338 62.67723473 6 57 C6.06665376 55.60560336 6.08538199 54.20830125 6.0625 52.8125 C6.041875 51.554375 6.02125 50.29625 6 49 C2.5208583 47.07622069 2.5208583 47.07622069 -1.15625 47.9375 Z M9 51 C9.33 52.32 9.66 53.64 10 55 C10.33 54.01 10.66 53.02 11 52 C10.34 51.67 9.68 51.34 9 51 Z " fill="#1F5285" transform="translate(94,65)"/>
<path d="M0 0 C6.6 0 13.2 0 20 0 C20.33 18.48 20.66 36.96 21 56 C29.24775108 44.54205657 29.24775108 44.54205657 36.4375 32.4375 C38.47459347 29.52485231 39.85752386 28.21358625 43.38720703 27.55371094 C49.61556943 27.06456679 55.79057504 27.39808313 62 28 C60.5995302 32.12731046 58.64135844 34.89122261 55.8125 38.1875 C52.75328882 41.86152833 49.72659846 45.53653044 46.875 49.375 C46.29492188 50.14585938 45.71484375 50.91671875 45.1171875 51.7109375 C43.67174835 54.67257156 44.14831746 55.8534662 45 59 C45.75422939 60.69189712 46.57339002 62.35575062 47.44140625 63.9921875 C48.18825684 65.41096191 48.18825684 65.41096191 48.95019531 66.85839844 C49.48225586 67.85387695 50.01431641 68.84935547 50.5625 69.875 C51.10100586 70.89625977 51.63951172 71.91751953 52.19433594 72.96972656 C54.62703874 77.57546979 57.08425199 82.1671589 59.57421875 86.7421875 C59.94667725 87.42941895 60.31913574 88.11665039 60.70288086 88.82470703 C61.68565615 90.63169373 62.67842201 92.43323665 63.671875 94.234375 C65 97 65 97 65 100 C57.74 100 50.48 100 43 100 C41.80375 97.586875 40.6075 95.17375 39.375 92.6875 C36.06546031 86.04053507 32.62520912 79.48143448 29 73 C20.68933737 81.93538214 20 88.23651346 20 100 C13.4 100 6.8 100 0 100 C0 67 0 34 0 0 Z " fill="#FFFFFF" transform="translate(632,67)"/>
<path d="M0 0 C9.84956097 -0.09069256 19.69884053 -0.16394067 29.54872608 -0.20724869 C34.12338194 -0.22804377 38.6977351 -0.256212 43.2722168 -0.30175781 C47.69428635 -0.3455061 52.11606638 -0.36919773 56.5383358 -0.37950897 C58.21789794 -0.38684871 59.89744584 -0.40118034 61.57688332 -0.42292023 C73.62819352 -0.57258974 84.47245353 0.26603007 94.21484375 8.16796875 C101.10748504 15.24159844 104.03119357 23.66430192 104.3125 33.375 C104.07839691 43.6170101 101.539376 49.38675867 94.3984375 56.828125 C88.40341735 62.25684032 84.18420228 62.97697471 76 64 C76.33 52.78 76.66 41.56 77 30 C51.59 30 26.18 30 0 30 C0 20.1 0 10.2 0 0 Z " fill="#1D5083" transform="translate(38,28)"/>
<path d="M0 0 C4.26712139 3.39133665 7.06676087 7.21707243 8.7890625 12.421875 C9.02957153 15.11116028 9.02957153 15.11116028 9.01611328 18.03833008 C9.01596222 19.13909378 9.01581116 20.23985748 9.01565552 21.37397766 C9.00533295 22.5512291 8.99501038 23.72848053 8.984375 24.94140625 C8.9815451 26.15511398 8.97871521 27.36882172 8.97579956 28.61930847 C8.96461558 32.49109811 8.9395138 36.36265541 8.9140625 40.234375 C8.90403042 42.86132478 8.89490496 45.48827819 8.88671875 48.11523438 C8.86468201 54.55087061 8.83016397 60.98633342 8.7890625 67.421875 C3.1790625 67.421875 -2.4309375 67.421875 -8.2109375 67.421875 C-8.5409375 65.771875 -8.8709375 64.121875 -9.2109375 62.421875 C-9.9328125 63.040625 -10.6546875 63.659375 -11.3984375 64.296875 C-18.81221064 69.18124318 -29.0623064 69.09830108 -37.47265625 67.3828125 C-42.77239154 65.52299099 -46.76935212 62.14381581 -49.3984375 57.1796875 C-51.43917763 50.25294456 -51.58966055 40.29258121 -48.5859375 33.671875 C-45.49466977 28.74753974 -40.98952374 26.33775099 -35.46948242 24.81884766 C-30.46192032 23.93869459 -25.33937513 24.22199474 -20.2734375 24.296875 C-19.11263672 24.30589844 -17.95183594 24.31492187 -16.75585938 24.32421875 C-13.90733642 24.34766338 -11.05924672 24.38047978 -8.2109375 24.421875 C-8.65906002 23.12754967 -9.1166076 21.83648484 -9.578125 20.546875 C-9.83190918 19.82757813 -10.08569336 19.10828125 -10.34716797 18.3671875 C-11.14998733 16.22049395 -11.14998733 16.22049395 -13.3359375 14.421875 C-20.59606549 11.89661309 -26.33795229 13.62608441 -33.2109375 16.421875 C-37.2109375 16.421875 -37.2109375 16.421875 -39.7890625 14.234375 C-40.67078125 13.30625 -41.5525 12.378125 -42.4609375 11.421875 C-43.79898437 10.0296875 -43.79898437 10.0296875 -45.1640625 8.609375 C-46.17726563 7.5265625 -46.17726563 7.5265625 -47.2109375 6.421875 C-45.10644368 1.51486219 -41.93450125 -0.33592702 -37.2109375 -2.578125 C-24.76511745 -6.88629348 -11.26069766 -7.62676734 0 0 Z M-31.35546875 41.7734375 C-33.46794608 44.24976655 -33.46794608 44.24976655 -33.2109375 47.109375 C-32.3218092 49.74051469 -32.3218092 49.74051469 -29.2109375 51.421875 C-23.09949661 52.70849413 -17.10973427 52.73738847 -11.2109375 50.421875 C-8.38850383 47.83310686 -8.21819045 46.56693398 -8.0234375 42.671875 C-8.0853125 41.599375 -8.1471875 40.526875 -8.2109375 39.421875 C-11.43962496 39.27603436 -14.66746115 39.18763394 -17.8984375 39.109375 C-18.81044922 39.06748047 -19.72246094 39.02558594 -20.66210938 38.98242188 C-25.35000667 38.89718738 -27.496536 38.88762692 -31.35546875 41.7734375 Z " fill="#FFFFFF" transform="translate(535.2109375,99.578125)"/>
<path d="M0 0 C7.63960658 6.14523244 10.66803786 16.17791045 11.8125 25.5625 C11.8125 30.1825 11.8125 34.8025 11.8125 39.5625 C-2.3775 39.5625 -16.5675 39.5625 -31.1875 39.5625 C-27.19879699 47.49139318 -27.19879699 47.49139318 -22.1875 49.5625 C-14.65282329 50.58294441 -8.77945662 49.20842169 -2.1875 45.5625 C-1.48882813 46.20058594 -0.79015625 46.83867187 -0.0703125 47.49609375 C0.83976563 48.32238281 1.74984375 49.14867187 2.6875 50 C3.59242188 50.82371094 4.49734375 51.64742187 5.4296875 52.49609375 C7.62387927 54.57157942 7.62387927 54.57157942 9.8125 55.5625 C9.8125 56.5525 9.8125 57.5425 9.8125 58.5625 C2.52870493 65.17473949 -7.42774052 68.5625 -17.1875 68.5625 C-29.04522207 67.62905078 -36.3339688 65.06629622 -44.42578125 56.3671875 C-49.22925654 48.71996963 -49.68684402 40.44620587 -49.625 31.625 C-49.64498047 30.61759766 -49.66496094 29.61019531 -49.68554688 28.57226562 C-49.67916888 18.65447941 -47.07484138 8.97807405 -40.1875 1.5625 C-29.16442741 -8.11629544 -11.84669022 -7.63503419 0 0 Z M-29 17.375 C-30.60297352 20.04428072 -30.60297352 20.04428072 -31.1875 25.5625 C-22.9375 25.5625 -14.6875 25.5625 -6.1875 25.5625 C-7.50438387 18.01672949 -7.50438387 18.01672949 -12.1875 13.5625 C-18.83525526 11.7391157 -23.94900934 12.32400934 -29 17.375 Z " fill="#FFFFFF" transform="translate(753.1875,99.4375)"/>
<path d="M0 0 C0.66 0 1.32 0 2 0 C1.99333817 1.00905647 1.99333817 1.00905647 1.98654175 2.03849792 C1.94198973 9.09620012 1.91200241 16.15386179 1.89013672 23.21166992 C1.88013412 25.8389651 1.86652776 28.4662493 1.84912109 31.09350586 C1.82461887 34.88918787 1.8134591 38.68472155 1.8046875 42.48046875 C1.79436493 43.63830368 1.78404236 44.79613861 1.77340698 45.98905945 C1.77092141 64.42052138 5.93350183 81.3395701 19 95 C26.95315127 102.48814848 36.3256856 107.1516197 46 112 C46 112.33 46 112.66 46 113 C42.10815548 113.10059445 38.21683746 113.17225841 34.32397461 113.21972656 C32.36610224 113.24919327 30.40858901 113.30007758 28.45117188 113.3515625 C13.04426514 113.5083758 -0.86211376 108.90410727 -12.3125 98.3125 C-22.81209367 86.98168849 -26.51888858 74.1175629 -26.29296875 58.98828125 C-26.28872391 57.89404343 -26.28447906 56.7998056 -26.28010559 55.67240906 C-26.26347481 52.21884278 -26.2258522 48.7658863 -26.1875 45.3125 C-26.17243299 42.95378454 -26.15874814 40.59505982 -26.14648438 38.23632812 C-26.11362265 32.4906816 -26.06358182 26.74538439 -26 21 C-25.2682959 20.61908203 -24.5365918 20.23816406 -23.78271484 19.84570312 C-18.63424009 17.1123621 -13.89702749 14.52416242 -9.625 10.5 C-8.81289062 9.73816406 -8.00078125 8.97632812 -7.1640625 8.19140625 C-5.33099552 6.33517778 -3.63855551 4.46413445 -2 2.4375 C-1.34 1.633125 -0.68 0.82875 0 0 Z " fill="#927860" transform="translate(141,111)"/>
<path d="M0 0 C24.09 0 48.18 0 73 0 C73 6.27 73 12.54 73 19 C64.09 19 55.18 19 46 19 C46 45.73 46 72.46 46 100 C39.73 100 33.46 100 27 100 C27 73.27 27 46.54 27 19 C18.09 19 9.18 19 0 19 C0 12.73 0 6.46 0 0 Z " fill="#FFFFFF" transform="translate(354,67)"/>
<path d="M0 0 C1.64453125 1.59765625 1.64453125 1.59765625 2.72265625 3.4296875 C2.61194915 6.5018094 0.95184261 7.79849404 -1.17773438 9.859375 C-1.71076172 10.35050781 -2.24378906 10.84164062 -2.79296875 11.34765625 C-3.32212891 11.85425781 -3.85128906 12.36085938 -4.39648438 12.8828125 C-5.70523976 14.13261494 -7.02898834 15.36668243 -8.35546875 16.59765625 C-9.12117187 16.29085937 -9.886875 15.9840625 -10.67578125 15.66796875 C-17.29558119 13.02390872 -22.64577289 11.17085015 -29.60546875 13.84765625 C-33.38509488 16.25287288 -34.95192598 17.98348517 -36.04296875 22.34765625 C-36.80001744 30.22096263 -36.98609769 38.12918986 -31.73046875 44.59765625 C-26.4691204 46.81296082 -21.43681478 47.27130143 -16.04296875 45.28515625 C-13.42790159 44.16128042 -10.89530911 42.88159321 -8.35546875 41.59765625 C-6.69751346 43.14728778 -5.05448831 44.71290394 -3.41796875 46.28515625 C-2.50144531 47.15527344 -1.58492187 48.02539062 -0.640625 48.921875 C1.69099897 51.65206717 2.34660422 53.07958178 2.64453125 56.59765625 C-6.6039881 64.38455674 -16.32150007 67.32952207 -28.44140625 66.34765625 C-37.76455829 65.03255168 -44.74136346 62.5407553 -50.70996094 55.01098633 C-56.04242741 47.19029922 -56.9761326 38.77015927 -56.79296875 29.53515625 C-56.80005859 28.52388672 -56.80714844 27.51261719 -56.81445312 26.47070312 C-56.74251402 17.87674721 -55.45632443 9.1362432 -49.9921875 2.1953125 C-36.40338175 -11.06917807 -15.02412011 -10.15143251 0 0 Z " fill="#FFFFFF" transform="translate(616.35546875,101.40234375)"/>
<path d="M0 0 C11.71726788 -0.02312215 23.43453037 -0.04091443 35.15181637 -0.05181217 C40.59202312 -0.05704128 46.03221431 -0.06413943 51.47241211 -0.07543945 C56.71785702 -0.08626735 61.96328692 -0.09227662 67.20874214 -0.09487724 C69.21470946 -0.09673167 71.22067592 -0.10035262 73.22663689 -0.10573006 C76.02602824 -0.11293919 78.82535679 -0.113991 81.62475586 -0.11352539 C82.46272705 -0.11712067 83.30069824 -0.12071594 84.1640625 -0.12442017 C89.88594784 -0.11405216 89.88594784 -0.11405216 91 1 C91.09993532 3.0605531 91.13080906 5.1245259 91.1328125 7.1875 C91.13410156 8.44304688 91.13539063 9.69859375 91.13671875 10.9921875 C91.13462402 11.64928711 91.1325293 12.30638672 91.13037109 12.98339844 C91.12502234 14.99161335 91.13031691 16.99960459 91.13671875 19.0078125 C91.13542969 20.26335938 91.13414062 21.51890625 91.1328125 22.8125 C91.13168457 23.97394531 91.13055664 25.13539062 91.12939453 26.33203125 C91 29 91 29 90 30 C87.82194281 30.09429342 85.6407872 30.11742538 83.46069336 30.11352539 C82.77779739 30.11367142 82.09490143 30.11381744 81.39131165 30.1139679 C79.12412386 30.11326876 76.85701726 30.1054764 74.58984375 30.09765625 C73.02185613 30.09579207 71.45386793 30.09436817 69.88587952 30.09336853 C65.75123497 30.08954334 61.61662534 30.07971306 57.48199463 30.06866455 C53.26599602 30.05845044 49.04999178 30.05387091 44.83398438 30.04882812 C36.55597353 30.03809079 28.2779911 30.02101436 20 30 C19.60675537 28.89938232 19.21351074 27.79876465 18.80834961 26.66479492 C18.27757882 25.20737458 17.74638798 23.75010718 17.21484375 22.29296875 C16.82878967 21.20719543 16.82878967 21.20719543 16.43493652 20.0994873 C13.14571446 11.14535214 7.78375301 6.24211937 0 1 C0 0.67 0 0.34 0 0 Z " fill="#1E5184" transform="translate(125,28)"/>
<path d="M0 0 C39.6 0.33 79.2 0.66 120 1 C120.495 2.98 120.495 2.98 121 5 C119 7 119 7 116.1796875 7.1953125 C115.08914063 7.17210937 113.99859375 7.14890625 112.875 7.125 C111.77929688 7.10695312 110.68359375 7.08890625 109.5546875 7.0703125 C108.29011719 7.03550781 108.29011719 7.03550781 107 7 C107 7.99 107 8.98 107 10 C102.71 10.33 98.42 10.66 94 11 C94 11.66 94 12.32 94 13 C97.63 13.33 101.26 13.66 105 14 C105 14.66 105 15.32 105 16 C99.07394438 20.12954219 94.67955273 20.51644114 87.5625 20.25 C86.64017578 20.23195312 85.71785156 20.21390625 84.76757812 20.1953125 C82.51061267 20.14853601 80.25587388 20.08301871 78 20 C78 20.99 78 21.98 78 23 C81.63 23 85.26 23 89 23 C89 23.66 89 24.32 89 25 C86.93847611 25.64894237 84.87573742 26.2940264 82.8125 26.9375 C81.66394531 27.29714844 80.51539063 27.65679687 79.33203125 28.02734375 C59.89818004 33.7002968 38.91971308 30.28962543 21.29296875 20.98828125 C16.06225719 17.82999871 11.50465388 14.11231306 7 10 C6.26265625 9.33226562 5.5253125 8.66453125 4.765625 7.9765625 C1.24185807 4.63603145 1.24185807 4.63603145 0 3 C0 2.01 0 1.02 0 0 Z M69 10 C69 11.32 69 12.64 69 14 C73.62 14 78.24 14 83 14 C83 12.68 83 11.36 83 10 C78.38 10 73.76 10 69 10 Z M62 20 C62 20.99 62 21.98 62 23 C64.64 23 67.28 23 70 23 C70 22.01 70 21.02 70 20 C67.36 20 64.72 20 62 20 Z " fill="#53493B" transform="translate(159,194)"/>
<path d="M0 0 C7.04241287 7.2207018 9.10159197 13.80970295 9.16015625 23.77734375 C9.11275735 25.5694735 9.05573601 27.36151337 8.97265625 29.15234375 C8.49957031 28.765625 8.02648437 28.37890625 7.5390625 27.98046875 C0.02585182 22.06363227 -6.60602825 18.36947971 -16.38671875 18.765625 C-26.95117529 20.31278654 -33.36472138 28.44852346 -39.65625 36.2890625 C-49.24002062 47.86221549 -49.24002062 47.86221549 -56.02734375 50.15234375 C-59.02734375 45.40234375 -59.02734375 45.40234375 -59.02734375 43.15234375 C-58.03734375 43.15234375 -57.04734375 43.15234375 -56.02734375 43.15234375 C-56.46046875 42.16492188 -56.89359375 41.1775 -57.33984375 40.16015625 C-57.9025342 38.86596821 -58.4650238 37.57169282 -59.02734375 36.27734375 C-59.31351563 35.62636719 -59.5996875 34.97539062 -59.89453125 34.3046875 C-62.02734375 29.37890625 -62.02734375 29.37890625 -62.02734375 27.15234375 C-61.03734375 27.15234375 -60.04734375 27.15234375 -59.02734375 27.15234375 C-59.68734375 26.03859375 -60.34734375 24.92484375 -61.02734375 23.77734375 C-63.02734375 20.40234375 -63.02734375 20.40234375 -63.02734375 18.15234375 C-62.36734375 18.15234375 -61.70734375 18.15234375 -61.02734375 18.15234375 C-61.68734375 15.18234375 -62.34734375 12.21234375 -63.02734375 9.15234375 C-61.62935547 8.60707031 -61.62935547 8.60707031 -60.203125 8.05078125 C-52.65282689 5.08128298 -45.25018629 1.95401354 -37.9296875 -1.55078125 C-26.46712189 -6.67268136 -9.98741458 -9.10221021 0 0 Z " fill="#AFD6E9" transform="translate(285.02734375,107.84765625)"/>
<path d="M0 0 C0.66 0.66 1.32 1.32 2 2 C1.77820809 6.20440318 -1.19409509 9.44946635 -3.5625 12.75 C-3.98724609 13.35199219 -4.41199219 13.95398438 -4.84960938 14.57421875 C-5.89435522 16.05329714 -6.94646016 17.52717259 -8 19 C-8.92683594 18.67644531 -9.85367188 18.35289063 -10.80859375 18.01953125 C-15.28312404 16.59009134 -18.39582897 16.30728978 -22.75 18.1875 C-25.54094006 20.43575727 -25.99249914 21.54876772 -27 25 C-27.32864795 28.44177307 -27.37241703 31.87631027 -27.4140625 35.33203125 C-27.43342865 36.32377853 -27.4527948 37.31552582 -27.4727478 38.33732605 C-27.53238453 41.4956307 -27.57886555 44.6539721 -27.625 47.8125 C-27.6631944 49.95769792 -27.70224698 52.10288075 -27.7421875 54.24804688 C-27.8396836 59.49861804 -27.91937911 64.74903419 -28 70 C-34.93 70 -41.86 70 -49 70 C-49 46.24 -49 22.48 -49 -2 C-42.07 -2 -35.14 -2 -28 -2 C-27.67 -0.02 -27.34 1.96 -27 4 C-26.113125 3.21625 -25.22625 2.4325 -24.3125 1.625 C-16.67045388 -4.67790252 -8.72299995 -3.87294091 0 0 Z " fill="#FFFFFF" transform="translate(830,97)"/>
<path d="M0 0 C0.66 0.66 1.32 1.32 2 2 C1.77820809 6.20440318 -1.19409509 9.44946635 -3.5625 12.75 C-3.98724609 13.35199219 -4.41199219 13.95398438 -4.84960938 14.57421875 C-5.89435522 16.05329714 -6.94646016 17.52717259 -8 19 C-8.92683594 18.67644531 -9.85367188 18.35289063 -10.80859375 18.01953125 C-15.28312404 16.59009134 -18.39582897 16.30728978 -22.75 18.1875 C-25.54094006 20.43575727 -25.99249914 21.54876772 -27 25 C-27.32864795 28.44177307 -27.37241703 31.87631027 -27.4140625 35.33203125 C-27.43342865 36.32377853 -27.4527948 37.31552582 -27.4727478 38.33732605 C-27.53238453 41.4956307 -27.57886555 44.6539721 -27.625 47.8125 C-27.6631944 49.95769792 -27.70224698 52.10288075 -27.7421875 54.24804688 C-27.8396836 59.49861804 -27.91937911 64.74903419 -28 70 C-34.93 70 -41.86 70 -49 70 C-49 46.24 -49 22.48 -49 -2 C-42.07 -2 -35.14 -2 -28 -2 C-27.67 -0.02 -27.34 1.96 -27 4 C-26.113125 3.21625 -25.22625 2.4325 -24.3125 1.625 C-16.67045388 -4.67790252 -8.72299995 -3.87294091 0 0 Z " fill="#FFFFFF" transform="translate(477,97)"/>
<path d="M0 0 C-1.92556636 6.85618326 -4.2472483 13.43252132 -7 20 C-6.34 20.33 -5.68 20.66 -5 21 C-6.65 24.3 -8.3 27.6 -10 31 C-9.01 31 -8.02 31 -7 31 C-8.22527029 35.05281712 -9.69880494 38.44360764 -12 42 C-10.68 42.33 -9.36 42.66 -8 43 C-10.64 47.95 -13.28 52.9 -16 58 C-14.35 58 -12.7 58 -11 58 C-12.12451727 60.9719385 -13.22293791 63.33440687 -15 66 C-17.15478516 66.34057617 -17.15478516 66.34057617 -19.7890625 66.29296875 C-20.73007813 66.28330078 -21.67109375 66.27363281 -22.640625 66.26367188 C-23.62546875 66.23853516 -24.6103125 66.21339844 -25.625 66.1875 C-27.11386719 66.16719727 -27.11386719 66.16719727 -28.6328125 66.14648438 C-31.08908072 66.11105743 -33.54427285 66.06166196 -36 66 C-39.22122711 58.01695889 -40.15482744 50.78734737 -40.09765625 42.22265625 C-40.0962413 41.41130722 -40.09482635 40.59995819 -40.09336853 39.76402283 C-40.08781357 37.19680953 -40.07526967 34.62968652 -40.0625 32.0625 C-40.05747917 30.31185023 -40.05291729 28.56119907 -40.04882812 26.81054688 C-40.03785893 22.5403303 -40.02062582 18.27018041 -40 14 C-39.15147461 13.75258057 -38.30294922 13.50516113 -37.42871094 13.25024414 C-31.10190627 11.36269659 -25.16115615 9.37337422 -19.25 6.4375 C-5.97447487 0 -5.97447487 0 0 0 Z " fill="#AFD6E9" transform="translate(186,120)"/>
<path d="M0 0 C2.56638404 1.4193675 3.96241612 2.8056789 6 5 C6 5.66 6 6.32 6 7 C6.62648437 7.06058594 7.25296875 7.12117188 7.8984375 7.18359375 C8.71570313 7.26738281 9.53296875 7.35117188 10.375 7.4375 C11.59316406 7.55931641 11.59316406 7.55931641 12.8359375 7.68359375 C15 8 15 8 17 9 C17 23.52 17 38.04 17 53 C9.52984318 51.93283474 5.26797587 50.26797587 0 45 C-1.23384885 42.5323023 -1.22693098 40.72317182 -1 38 C-1.99 38 -2.98 38 -4 38 C-4 34.7 -4 31.4 -4 28 C-4.66 28 -5.32 28 -6 28 C-6 31.3 -6 34.6 -6 38 C-6.825 37.608125 -7.65 37.21625 -8.5 36.8125 C-12.22955192 35.94671116 -12.69067406 36.06883349 -15.9375 37.5625 C-19.37103197 39.03964091 -19.85227709 39.03939278 -23.75 38 C-27.19552786 35.87967516 -29.03603178 34.5351428 -31 31 C-31.62684943 26.06356073 -31.51142297 24.00458083 -29.25 19.5625 C-27.05564244 17.06337056 -26.24889654 16.23206404 -23 16 C-22.855625 15.195625 -22.71125 14.39125 -22.5625 13.5625 C-22 11 -22 11 -21 10 C-19.33382885 9.95936168 -17.66611905 9.957279 -16 10 C-15.773125 9.0925 -15.54625 8.185 -15.3125 7.25 C-12.4514316 0.16544967 -7.1377325 -1.49015819 0 0 Z " fill="#5EA3D9" transform="translate(94,65)"/>
<path d="M0 0 C3.64969348 1.47391468 6.4277887 2.99908681 9 6 C9.2475 5.38125 9.495 4.7625 9.75 4.125 C11.30552932 1.48060015 12.07621471 0.92330062 15 0 C20.36052948 -0.42543885 23.65421645 -0.47662684 28 3 C31.8184155 7.36390343 32.12245527 10.95774368 32.09765625 16.63671875 C32.09443359 17.93544922 32.09121094 19.23417969 32.08789062 20.57226562 C32.07953531 21.94401108 32.07107037 23.31575587 32.0625 24.6875 C32.05748335 26.07096195 32.05292073 27.45442563 32.04882812 28.83789062 C32.03702529 32.22530395 32.02056019 35.61263033 32 39 C29.36 39 26.72 39 24 39 C23.98598145 37.84999512 23.98598145 37.84999512 23.97167969 36.67675781 C23.91797227 33.20051897 23.83432424 29.72562526 23.75 26.25 C23.73582031 25.0434375 23.72164062 23.836875 23.70703125 22.59375 C23.67480469 21.43359375 23.64257812 20.2734375 23.609375 19.078125 C23.58842773 18.00981445 23.56748047 16.94150391 23.54589844 15.84082031 C22.87425787 12.34564604 21.79307239 11.14705564 19 9 C15.95691709 8.24984805 15.95691709 8.24984805 13 9 C10.22567871 12.63306907 9.60402861 15.44288439 9.48828125 19.95703125 C9.45283203 21.06884766 9.41738281 22.18066406 9.38085938 23.32617188 C9.35830078 24.47666016 9.33574219 25.62714844 9.3125 26.8125 C9.27833984 27.98232422 9.24417969 29.15214844 9.20898438 30.35742188 C9.12667684 33.23818554 9.05746822 36.11865138 9 39 C6.36 39 3.72 39 1 39 C0.98541748 38.19780029 0.97083496 37.39560059 0.95581055 36.5690918 C0.88143281 32.94140301 0.78473757 29.31464496 0.6875 25.6875 C0.66494141 24.42486328 0.64238281 23.16222656 0.61914062 21.86132812 C0.5659668 20.04858398 0.5659668 20.04858398 0.51171875 18.19921875 C0.48553467 17.08377686 0.45935059 15.96833496 0.43237305 14.8190918 C0.22000025 12.0068996 0.22000025 12.0068996 -1.34448242 10.13598633 C-3.93809284 8.3562976 -5.94816515 8.61852064 -9 9 C-10.77560516 10.08131314 -10.77560516 10.08131314 -12 12 C-12.50664617 14.90087655 -12.50664617 14.90087655 -12.51171875 18.19921875 C-12.54716797 19.40771484 -12.58261719 20.61621094 -12.61914062 21.86132812 C-12.65297852 23.7552832 -12.65297852 23.7552832 -12.6875 25.6875 C-12.72166016 26.96173828 -12.75582031 28.23597656 -12.79101562 29.54882812 C-12.87360784 32.69913103 -12.94272335 35.84915157 -13 39 C-15.97 39 -18.94 39 -22 39 C-22 26.46 -22 13.92 -22 1 C-19.03 1 -16.06 1 -13 1 C-12.67 1.66 -12.34 2.32 -12 3 C-11.319375 2.505 -10.63875 2.01 -9.9375 1.5 C-6.28168831 -0.36679746 -4.06691572 -0.42809639 0 0 Z " fill="#909090" transform="translate(1103,114)"/>
<path d="M0 0 C2.6875 1.75 2.6875 1.75 4.5 3.875 C7.05448374 6.06455749 7.81399816 5.94861262 11.0625 6.0625 C14.89925859 6.32885349 16.6348847 7.09255271 19.25 9.9375 C21.95898137 13.18974592 21.77724436 15.61296085 21.6875 19.75 C5.0664342 20.73260284 -11.51677856 20.9290683 -28.1640625 20.953125 C-29.51153969 20.95587056 -30.85901665 20.95872769 -32.20649338 20.96169281 C-38.51594875 20.97524965 -44.82539175 20.98498541 -51.13486063 20.9888947 C-58.3798857 20.99341259 -65.62472562 21.01117973 -72.86969435 21.0398953 C-78.51088614 21.06147263 -84.15202544 21.07159608 -89.79325807 21.07293582 C-93.14827296 21.07398233 -96.50311085 21.0798631 -99.85808182 21.09775543 C-103.57692211 21.11471396 -107.29529745 21.11296346 -111.01416016 21.10644531 C-112.12052322 21.1156601 -113.22688629 21.12487488 -114.36677551 21.1343689 C-115.3754921 21.12879974 -116.38420868 21.12323059 -117.42349243 21.11749268 C-118.30049616 21.11895924 -119.17749989 21.1204258 -120.08107948 21.1219368 C-122.76736992 20.67418154 -123.66458238 19.87403114 -125.3125 17.75 C-125.3125 17.42 -125.3125 17.09 -125.3125 16.75 C-94.2925 16.75 -63.2725 16.75 -31.3125 16.75 C-30.9825 14.77 -30.6525 12.79 -30.3125 10.75 C-27.5625 8.5625 -27.5625 8.5625 -24.3125 6.75 C-21.57230481 5.18417418 -19.42494499 3.86244499 -17.1875 1.625 C-12.73325005 -2.82924995 -5.48979645 -2.0716213 0 0 Z " fill="#356794" transform="translate(276.3125,170.25)"/>
<path d="M0 0 C25.07142857 0 25.07142857 0 32.875 4.75 C39.04975125 11.28797191 38.48808502 18.92542001 38.4375 27.4375 C38.4674707 29.22124023 38.4674707 29.22124023 38.49804688 31.04101562 C38.49409303 38.16188854 37.93115216 42.99683262 34 49 C23.20783238 57.58968444 16.50625211 54 0 54 C0 36.18 0 18.36 0 0 Z M8 8 C8 20.87 8 33.74 8 47 C18.48008368 47.42404262 18.48008368 47.42404262 27.375 43.125 C30.92838076 38.47827131 30.2176745 32.72539246 30.25 27.125 C30.270625 26.23941406 30.29125 25.35382813 30.3125 24.44140625 C30.34375417 19.19851951 29.96926369 15.51782705 27 11 C21.01885525 6.27804362 16.29441183 8 8 8 Z " fill="#909090" transform="translate(912,99)"/>
<path d="M0 0 C17.49 0 34.98 0 53 0 C52.04262918 8.61633738 51.67357359 11.61644538 45.625 17.1875 C34.67608456 24.74746542 23.57328425 23.17987134 10.9375 22 C9.88111328 21.90460938 8.82472656 21.80921875 7.73632812 21.7109375 C5.15722594 21.47753459 2.57856447 21.23927027 0 21 C0 14.07 0 7.14 0 0 Z " fill="#B0D7EA" transform="translate(145,61)"/>
<path d="M0 0 C4.29901516 0.82673368 7.05999036 2.67533355 10.25 5.625 C10.84296875 6.51316406 11.4359375 7.40132812 12.046875 8.31640625 C14.08466621 10.96825707 14.08466621 10.96825707 17.4140625 10.859375 C19.12722656 10.61960937 19.12722656 10.61960937 20.875 10.375 C27.12165775 9.56082888 27.12165775 9.56082888 29.25 10.625 C28.18523247 14.35168636 27.39796519 15.52133131 24.14453125 17.80078125 C22.48657976 19.05070548 22.48657976 19.05070548 21.25 20.625 C21.04399233 23.6259476 21.10058188 25.7306691 21.5625 28.625 C22.59772073 35.8648663 22.59772073 35.8648663 20.90625 39.5625 C19.25 41.625 19.25 41.625 17.4375 42.625 C13.9947717 42.625 12.14487713 41.47772136 9.25 39.625 C8.42458511 38.40446847 7.61294475 37.17455098 6.8125 35.9375 C5.4320283 33.96106074 5.4320283 33.96106074 3.25 32.625 C-1.81834527 32.00677913 -6.67150662 32.21794519 -11.75 32.625 C-12.08 31.635 -12.41 30.645 -12.75 29.625 C-10.93366114 26.93412762 -9.46251492 25.0068875 -6.578125 23.4609375 C-4.33247474 21.62947256 -4.33247474 21.62947256 -4.68359375 18.0078125 C-4.83106265 16.58626541 -4.999869 15.16680549 -5.1875 13.75 C-6.12137429 6.47770231 -6.12137429 6.47770231 -4.45703125 2.65625 C-2.75 0.625 -2.75 0.625 0 0 Z " fill="#53493B" transform="translate(247.75,40.375)"/>
<path d="M0 0 C20.13 0 40.26 0 61 0 C61 5.94 61 11.88 61 18 C42.52 18 24.04 18 5 18 C5 16.35 5 14.7 5 13 C12.92 12.505 12.92 12.505 21 12 C20.67 10.35 20.34 8.7 20 7 C18.72382812 6.93941406 17.44765625 6.87882813 16.1328125 6.81640625 C14.46352984 6.73200432 12.79425963 6.64735614 11.125 6.5625 C10.28324219 6.52318359 9.44148438 6.48386719 8.57421875 6.44335938 C7.76855469 6.40146484 6.96289062 6.35957031 6.1328125 6.31640625 C5.01737061 6.26141968 5.01737061 6.26141968 3.87939453 6.20532227 C2 6 2 6 0 5 C0 3.35 0 1.7 0 0 Z " fill="#53483A" transform="translate(50,159)"/>
<path d="M0 0 C0.66 0.33 1.32 0.66 2 1 C2.04510103 26.3467803 2.04510103 26.3467803 -5 36 C-5.54011719 36.75152344 -6.08023438 37.50304687 -6.63671875 38.27734375 C-12.50226703 45.61953355 -19.02401181 49.43543195 -28 52 C-28 41.11 -28 30.22 -28 19 C-24.7 18.34 -21.4 17.68 -18 17 C-9.55107675 13.77733928 -4.26083654 7.81153366 0 0 Z " fill="#B0D7EA" transform="translate(142,76)"/>
<path d="M0 0 C3.69925815 3.33937557 4.60831855 6.94090275 4.95996094 11.75170898 C5.02179388 15.5045124 4.98793878 19.24355748 4.9140625 22.99609375 C4.89375977 24.95192383 4.89375977 24.95192383 4.87304688 26.94726562 C4.83783584 30.15146997 4.78858344 33.3548148 4.7265625 36.55859375 C4.03949219 36.54699219 3.35242187 36.53539062 2.64453125 36.5234375 C1.74347656 36.51441406 0.84242187 36.50539062 -0.0859375 36.49609375 C-0.97925781 36.48449219 -1.87257813 36.47289062 -2.79296875 36.4609375 C-5.40757541 36.44849408 -5.40757541 36.44849408 -8.2734375 37.55859375 C-13.97749465 38.12356703 -18.37767148 37.82243776 -23.2734375 34.55859375 C-26.88976154 30.63946746 -26.82981874 27.34370165 -26.69921875 22.1953125 C-26.2734375 19.55859375 -26.2734375 19.55859375 -23.9609375 16.43359375 C-19.5414907 13.35025877 -15.7770899 13.43308256 -10.5859375 13.49609375 C-9.88404297 13.50060547 -9.18214844 13.50511719 -8.45898438 13.50976562 C-6.73043212 13.52152448 -5.00192385 13.53945921 -3.2734375 13.55859375 C-4.46856466 9.89337544 -4.46856466 9.89337544 -6.2734375 6.55859375 C-10.69366389 4.92503182 -13.09045708 5.79733883 -17.2734375 7.55859375 C-20.35900722 7.19558555 -21.59849691 6.34188748 -24.2734375 4.55859375 C-24.2734375 3.56859375 -24.2734375 2.57859375 -24.2734375 1.55859375 C-16.77390277 -3.85773689 -8.19147717 -3.79235054 0 0 Z M-18.234375 22.9375 C-19.5552609 25.47370015 -19.5552609 25.47370015 -18.5859375 27.80859375 C-17.37592395 29.69368952 -17.37592395 29.69368952 -15.2734375 30.55859375 C-13.16388688 30.75598098 -13.16388688 30.75598098 -10.8359375 30.74609375 C-9.66224609 30.76736328 -9.66224609 30.76736328 -8.46484375 30.7890625 C-5.98137763 30.69945439 -5.98137763 30.69945439 -3.2734375 28.55859375 C-2.91045814 26.58112253 -2.91045814 26.58112253 -3.0859375 24.43359375 C-3.1478125 23.15484375 -3.2096875 21.87609375 -3.2734375 20.55859375 C-5.37585353 20.42363124 -7.4807336 20.32662068 -9.5859375 20.24609375 C-11.34357422 20.15908203 -11.34357422 20.15908203 -13.13671875 20.0703125 C-16.44461537 20.22936665 -16.44461537 20.22936665 -18.234375 22.9375 Z " fill="#909090" transform="translate(1278.2734375,116.44140625)"/>
<path d="M0 0 C3.91886854 2.06782851 6.15438684 4.26669298 7.9609375 8.28125 C8.9609375 12.28125 8.9609375 12.28125 8.9609375 22.28125 C1.0409375 22.28125 -6.8790625 22.28125 -15.0390625 22.28125 C-12.70058108 28.19856018 -12.70058108 28.19856018 -9.0390625 30.28125 C-3.70437821 30.66589895 -3.70437821 30.66589895 0.9609375 28.28125 C4.26223356 28.59074651 5.8195938 29.81870474 7.9609375 32.28125 C6.83916838 35.64655737 6.50605677 35.90242479 3.5234375 37.46875 C-2.45929783 40.26140922 -8.23225866 40.26882913 -14.4140625 38.09375 C-19.72582198 34.42610655 -21.80133672 30.57302272 -23.0390625 24.28125 C-23.66869657 17.6203843 -23.22925372 11.27172018 -20.0390625 5.28125 C-14.87616406 -0.62928127 -7.44315824 -2.62364198 0 0 Z M-12.4140625 8.96875 C-14.43528994 11.51466776 -14.43528994 11.51466776 -15.0390625 16.28125 C-9.7590625 16.28125 -4.4790625 16.28125 0.9609375 16.28125 C0.42261742 10.791095 0.42261742 10.791095 -1.1640625 8.40625 C-5.02403676 6.09026544 -8.81919005 6.41449852 -12.4140625 8.96875 Z " fill="#909090" transform="translate(1167.0390625,114.71875)"/>
<path d="M0 0 C3.12546791 2.64462669 4.50702399 5.68408338 5.00830078 9.74121094 C5.1294856 12.34237458 5.1358457 14.91981892 5.1015625 17.5234375 C5.11316406 18.40837891 5.12476563 19.29332031 5.13671875 20.20507812 C5.11466544 25.10458922 4.9268143 28.50273132 1.7265625 32.4609375 C-3.00261772 36.71719969 -6.63253611 37.82340032 -12.85546875 37.7421875 C-17.99689252 37.14415436 -21.99914547 35.06407908 -25.2109375 31.0234375 C-28.26833867 23.64970527 -27.93784892 15.26620292 -26.5859375 7.5234375 C-24.69057398 3.10092263 -22.15965283 0.56122978 -18.0234375 -1.8515625 C-11.42975575 -3.49998294 -6.1046317 -2.93926711 0 0 Z M-18.2734375 9.4609375 C-18.67444665 12.29159034 -18.83466649 14.64440409 -18.7734375 17.4609375 C-18.78890625 18.1725 -18.804375 18.8840625 -18.8203125 19.6171875 C-18.79426096 23.10809425 -18.54121073 25.10371782 -16.42578125 27.92578125 C-14.30036806 29.66752494 -14.30036806 29.66752494 -11.3359375 30.0234375 C-8.183866 29.61686061 -8.183866 29.61686061 -5.3984375 27.8359375 C-1.96171419 22.37761224 -2.34676998 16.72341639 -3.2734375 10.4609375 C-5.11303095 6.94723802 -5.11303095 6.94723802 -8.2734375 5.4609375 C-13.20145163 4.55579205 -15.30461626 5.50041699 -18.2734375 9.4609375 Z " fill="#909090" transform="translate(1363.2734375,116.5390625)"/>
<path d="M0 0 C3.12546791 2.64462669 4.50702399 5.68408338 5.00830078 9.74121094 C5.1294856 12.34237458 5.1358457 14.91981892 5.1015625 17.5234375 C5.11316406 18.40837891 5.12476563 19.29332031 5.13671875 20.20507812 C5.11466544 25.10458922 4.9268143 28.50273132 1.7265625 32.4609375 C-3.00261772 36.71719969 -6.63253611 37.82340032 -12.85546875 37.7421875 C-17.99689252 37.14415436 -21.99914547 35.06407908 -25.2109375 31.0234375 C-28.26833867 23.64970527 -27.93784892 15.26620292 -26.5859375 7.5234375 C-24.69057398 3.10092263 -22.15965283 0.56122978 -18.0234375 -1.8515625 C-11.42975575 -3.49998294 -6.1046317 -2.93926711 0 0 Z M-18.2734375 9.4609375 C-18.67444665 12.29159034 -18.83466649 14.64440409 -18.7734375 17.4609375 C-18.78890625 18.1725 -18.804375 18.8840625 -18.8203125 19.6171875 C-18.79426096 23.10809425 -18.54121073 25.10371782 -16.42578125 27.92578125 C-14.30036806 29.66752494 -14.30036806 29.66752494 -11.3359375 30.0234375 C-8.183866 29.61686061 -8.183866 29.61686061 -5.3984375 27.8359375 C-1.96171419 22.37761224 -2.34676998 16.72341639 -3.2734375 10.4609375 C-5.11303095 6.94723802 -5.11303095 6.94723802 -8.2734375 5.4609375 C-13.20145163 4.55579205 -15.30461626 5.50041699 -18.2734375 9.4609375 Z " fill="#909090" transform="translate(987.2734375,116.5390625)"/>
<path d="M0 0 C2.97 0 5.94 0 9 0 C9.01458252 0.80219971 9.02916504 1.60439941 9.04418945 2.4309082 C9.11856719 6.05859699 9.21526243 9.68535504 9.3125 13.3125 C9.33505859 14.57513672 9.35761719 15.83777344 9.38085938 17.13867188 C9.41630859 18.34716797 9.45175781 19.55566406 9.48828125 20.80078125 C9.51446533 21.91622314 9.54064941 23.03166504 9.56762695 24.1809082 C9.78046275 26.99334659 9.78046275 26.99334659 11.34448242 28.86791992 C13.90982335 30.62215763 15.97944904 30.31464073 19 30 C19.99 29.34 20.98 28.68 22 28 C22.51146198 25.09386566 22.51146198 25.09386566 22.51171875 21.6796875 C22.54716797 20.42285156 22.58261719 19.16601562 22.61914062 17.87109375 C22.64169922 16.55238281 22.66425781 15.23367187 22.6875 13.875 C22.72066529 12.53512241 22.75515422 11.19527689 22.79101562 9.85546875 C22.87373327 6.5703967 22.94280693 3.28559968 23 0 C25.97 0 28.94 0 32 0 C32 12.54 32 25.08 32 38 C28 38 24 38 20 38 C19.01 38.495 19.01 38.495 18 39 C12.42465063 39.37168996 8.78252991 39.22542715 4 36 C-1.41833956 29.27378538 -0.12536357 19.71058632 -0.0625 11.5625 C-0.05798828 10.44939453 -0.05347656 9.33628906 -0.04882812 8.18945312 C-0.03711193 5.45957899 -0.02070699 2.72981826 0 0 Z " fill="#909090" transform="translate(1039,115)"/>
<path d="M0 0 C4.09860087 1.85597021 5.62625955 3.25957081 7.65625 7.28125 C9.7953217 13.34597699 9.31815734 19.65474369 9.1875 26 C9.16719727 27.87751953 9.16719727 27.87751953 9.14648438 29.79296875 C9.11133786 32.86243116 9.06213226 35.93098509 9 39 C6.36 39 3.72 39 1 39 C0.98018066 38.29915283 0.96036133 37.59830566 0.93994141 36.8762207 C0.84443834 33.68794838 0.73486129 30.50030853 0.625 27.3125 C0.5940625 26.20970703 0.563125 25.10691406 0.53125 23.97070312 C0.49257812 22.90400391 0.45390625 21.83730469 0.4140625 20.73828125 C0.3826416 19.75899658 0.3512207 18.77971191 0.31884766 17.77075195 C-0.01822782 14.84160218 -0.68608379 12.63454501 -2 10 C-4.79870027 8.60064987 -6.90498792 8.74734595 -10 9 C-11.78203097 10.0720212 -11.78203097 10.0720212 -13 12 C-13.50664617 14.90087655 -13.50664617 14.90087655 -13.51171875 18.19921875 C-13.54716797 19.40771484 -13.58261719 20.61621094 -13.61914062 21.86132812 C-13.65297852 23.7552832 -13.65297852 23.7552832 -13.6875 25.6875 C-13.72166016 26.96173828 -13.75582031 28.23597656 -13.79101562 29.54882812 C-13.87360784 32.69913103 -13.94272335 35.84915157 -14 39 C-16.97 39 -19.94 39 -23 39 C-23 26.46 -23 13.92 -23 1 C-20.03 1 -17.06 1 -14 1 C-13.67 1.66 -13.34 2.32 -13 3 C-12.34 2.505 -11.68 2.01 -11 1.5 C-7.24691817 -0.37654091 -4.07948488 -0.69591213 0 0 Z " fill="#909090" transform="translate(1402,114)"/>
<path d="M0 0 C4.09860087 1.85597021 5.62625955 3.25957081 7.65625 7.28125 C9.7953217 13.34597699 9.31815734 19.65474369 9.1875 26 C9.16719727 27.87751953 9.16719727 27.87751953 9.14648438 29.79296875 C9.11133786 32.86243116 9.06213226 35.93098509 9 39 C6.36 39 3.72 39 1 39 C0.98018066 38.29915283 0.96036133 37.59830566 0.93994141 36.8762207 C0.84443834 33.68794838 0.73486129 30.50030853 0.625 27.3125 C0.5940625 26.20970703 0.563125 25.10691406 0.53125 23.97070312 C0.49257812 22.90400391 0.45390625 21.83730469 0.4140625 20.73828125 C0.3826416 19.75899658 0.3512207 18.77971191 0.31884766 17.77075195 C-0.01822782 14.84160218 -0.68608379 12.63454501 -2 10 C-4.79870027 8.60064987 -6.90498792 8.74734595 -10 9 C-11.78203097 10.0720212 -11.78203097 10.0720212 -13 12 C-13.50664617 14.90087655 -13.50664617 14.90087655 -13.51171875 18.19921875 C-13.54716797 19.40771484 -13.58261719 20.61621094 -13.61914062 21.86132812 C-13.65297852 23.7552832 -13.65297852 23.7552832 -13.6875 25.6875 C-13.72166016 26.96173828 -13.75582031 28.23597656 -13.79101562 29.54882812 C-13.87360784 32.69913103 -13.94272335 35.84915157 -14 39 C-16.97 39 -19.94 39 -23 39 C-23 26.46 -23 13.92 -23 1 C-20.03 1 -17.06 1 -14 1 C-13.67 1.66 -13.34 2.32 -13 3 C-12.34 2.505 -11.68 2.01 -11 1.5 C-7.24691817 -0.37654091 -4.07948488 -0.69591213 0 0 Z " fill="#909090" transform="translate(1209,114)"/>
<path d="M0 0 C0.77923828 0.00451172 1.55847656 0.00902344 2.36132812 0.01367188 C4.26175268 0.02533092 6.16213706 0.04326123 8.0625 0.0625 C7.4025 3.0325 6.7425 6.0025 6.0625 9.0625 C6.7225 9.0625 7.3825 9.0625 8.0625 9.0625 C6.1875 14.8125 6.1875 14.8125 5.0625 17.0625 C6.0525 17.3925 7.0425 17.7225 8.0625 18.0625 C6.0825 23.0125 4.1025 27.9625 2.0625 33.0625 C3.3825 33.3925 4.7025 33.7225 6.0625 34.0625 C4.4125 37.0325 2.7625 40.0025 1.0625 43.0625 C2.0525 43.0625 3.0425 43.0625 4.0625 43.0625 C2.75188409 47.29679756 1.11893741 51.13657404 -0.9375 55.0625 C-1.5975 55.0625 -2.2575 55.0625 -2.9375 55.0625 C-3.77598804 53.60712432 -4.60813934 52.14809627 -5.4375 50.6875 C-5.9015625 49.87539062 -6.365625 49.06328125 -6.84375 48.2265625 C-7.9375 46.0625 -7.9375 46.0625 -7.9375 44.0625 C-6.4525 43.5675 -6.4525 43.5675 -4.9375 43.0625 C-6.5875 39.7625 -8.2375 36.4625 -9.9375 33.0625 C-7.9575 32.5675 -7.9575 32.5675 -5.9375 32.0625 C-6.2984375 31.43601563 -6.659375 30.80953125 -7.03125 30.1640625 C-7.4953125 29.34679687 -7.959375 28.52953125 -8.4375 27.6875 C-8.9015625 26.87539062 -9.365625 26.06328125 -9.84375 25.2265625 C-10.9375 23.0625 -10.9375 23.0625 -10.9375 21.0625 C-10.2775 21.0625 -9.6175 21.0625 -8.9375 21.0625 C-9.35902344 19.95390625 -9.78054687 18.8453125 -10.21484375 17.703125 C-10.768346 16.23962752 -11.32172496 14.7760834 -11.875 13.3125 C-12.15279297 12.58289063 -12.43058594 11.85328125 -12.71679688 11.1015625 C-12.98427734 10.39257812 -13.25175781 9.68359375 -13.52734375 8.953125 C-13.89653931 7.97907715 -13.89653931 7.97907715 -14.27319336 6.98535156 C-14.94875435 5.029924 -15.46550046 3.07584243 -15.9375 1.0625 C-10.57260405 0.15766363 -5.43432543 -0.06053662 0 0 Z " fill="#ADD5E8" transform="translate(203.9375,117.9375)"/>
<path d="M0 0 C2.48297467 1.25897307 3.25861946 1.71433588 4.15234375 4.390625 C4.24644531 5.00421875 4.34054687 5.6178125 4.4375 6.25 C2.4575 7.57 0.4775 8.89 -1.5625 10.25 C-2.26375 9.755 -2.965 9.26 -3.6875 8.75 C-7.03571887 7.0031032 -8.8383163 6.69533434 -12.5625 7.25 C-15.65123409 9.53151502 -16.47864026 10.72710983 -17.09375 14.5625 C-17.0834375 15.779375 -17.073125 16.99625 -17.0625 18.25 C-17.0728125 19.466875 -17.083125 20.68375 -17.09375 21.9375 C-16.47878949 25.77195966 -15.64807802 26.96667227 -12.5625 29.25 C-7.7401588 29.98383453 -4.7275982 28.63005611 -0.5625 26.25 C1.0875 27.57 2.7375 28.89 4.4375 30.25 C4.06761037 32.66188306 3.83794609 33.91124143 1.94140625 35.515625 C-3.59449102 38.32255883 -8.3926659 39.089927 -14.5625 38.25 C-19.83799023 36.45832407 -22.44176612 33.70819126 -25.5625 29.25 C-27.55139486 21.84136664 -27.78151286 12.24785405 -24.5625 5.25 C-17.8484129 -2.02635055 -9.2499997 -4.25767134 0 0 Z " fill="#909090" transform="translate(1027.5625,115.75)"/>
<path d="M0 0 C2.97 0 5.94 0 9 0 C9 3.63 9 7.26 9 11 C10.65 11 12.3 11 14 11 C14 13.31 14 15.62 14 18 C12.35 18 10.7 18 9 18 C9.33 25.59 9.66 33.18 10 41 C11.32 41.33 12.64 41.66 14 42 C14 44.64 14 47.28 14 50 C12.39479996 49.93976735 10.79065673 49.85091401 9.1875 49.75 C8.29417969 49.70359375 7.40085937 49.6571875 6.48046875 49.609375 C4 49 4 49 2.23828125 47.203125 C0.0760691 43.3561608 -0.1219349 39.94828251 -0.09765625 35.578125 C-0.09443359 34.55332031 -0.09121094 33.52851563 -0.08789062 32.47265625 C-0.07951172 31.40917969 -0.07113281 30.34570312 -0.0625 29.25 C-0.05798828 28.17105469 -0.05347656 27.09210938 -0.04882812 25.98046875 C-0.03705727 23.32025617 -0.02061399 20.66015635 0 18 C-0.99 18 -1.98 18 -3 18 C-3 15.69 -3 13.38 -3 11 C-2.01 11 -1.02 11 0 11 C0 7.37 0 3.74 0 0 Z " fill="#909090" transform="translate(1294,104)"/>
<path d="M0 0 C2.97 0 5.94 0 9 0 C9 3.63 9 7.26 9 11 C10.65 11 12.3 11 14 11 C14 13.31 14 15.62 14 18 C12.35 18 10.7 18 9 18 C9.33 25.59 9.66 33.18 10 41 C11.32 41.33 12.64 41.66 14 42 C14 44.64 14 47.28 14 50 C12.39479996 49.93976735 10.79065673 49.85091401 9.1875 49.75 C8.29417969 49.70359375 7.40085937 49.6571875 6.48046875 49.609375 C4 49 4 49 2.23828125 47.203125 C0.0760691 43.3561608 -0.1219349 39.94828251 -0.09765625 35.578125 C-0.09443359 34.55332031 -0.09121094 33.52851563 -0.08789062 32.47265625 C-0.07951172 31.40917969 -0.07113281 30.34570312 -0.0625 29.25 C-0.05798828 28.17105469 -0.05347656 27.09210938 -0.04882812 25.98046875 C-0.03705727 23.32025617 -0.02061399 20.66015635 0 18 C-0.99 18 -1.98 18 -3 18 C-3 15.69 -3 13.38 -3 11 C-2.01 11 -1.02 11 0 11 C0 7.37 0 3.74 0 0 Z " fill="#909090" transform="translate(1229,104)"/>
<path d="M0 0 C-1.05875074 3.40312738 -2.00902154 6.01353231 -4 9 C-2.35 9 -0.7 9 1 9 C-0.12451727 11.9719385 -1.22293791 14.33440687 -3 17 C-5.15478516 17.34057617 -5.15478516 17.34057617 -7.7890625 17.29296875 C-8.73007813 17.28330078 -9.67109375 17.27363281 -10.640625 17.26367188 C-12.11789063 17.2259668 -12.11789063 17.2259668 -13.625 17.1875 C-15.11386719 17.16719727 -15.11386719 17.16719727 -16.6328125 17.14648438 C-19.08908072 17.11105743 -21.54427285 17.06166196 -24 17 C-24.33872513 15.58461283 -24.67074624 14.16762037 -25 12.75 C-25.185625 11.96109375 -25.37125 11.1721875 -25.5625 10.359375 C-26 8 -26 8 -26 4 C-23.63839681 2.81919841 -21.68168905 2.59721352 -19.0625 2.24609375 C-18.08539063 2.11396484 -17.10828125 1.98183594 -16.1015625 1.84570312 C-14.56628906 1.64364258 -14.56628906 1.64364258 -13 1.4375 C-11.97648438 1.29892578 -10.95296875 1.16035156 -9.8984375 1.01757812 C-2.29918411 0 -2.29918411 0 0 0 Z " fill="#5FA4D9" transform="translate(174,169)"/>
<path d="M0 0 C2.97 0 5.94 0 9 0 C9 12.54 9 25.08 9 38 C6.03 38 3.06 38 0 38 C0 25.46 0 12.92 0 0 Z " fill="#909090" transform="translate(1318,115)"/>
<path d="M0 0 C0 6.6 0 13.2 0 20 C-6.93 20 -13.86 20 -21 20 C-21 15.71 -21 11.42 -21 7 C-19.164375 6.5875 -17.32875 6.175 -15.4375 5.75 C-10.6862953 4.57762482 -4.47769978 0 0 0 Z " fill="#60A3D8" transform="translate(111,135)"/>
<path d="M0 0 C0.66 0 1.32 0 2 0 C2.66 5.94 3.32 11.88 4 18 C4.33 17.34 4.66 16.68 5 16 C5.99 16.33 6.98 16.66 8 17 C7.1875 18.9375 7.1875 18.9375 6 21 C5.01 21.33 4.02 21.66 3 22 C3.33 26.95 3.66 31.9 4 37 C8.48823241 34.08375852 8.48823241 34.08375852 10.84375 29.44140625 C11.32181421 26.96320574 11.71758655 24.50763667 12 22 C12.99 22 13.98 22 15 22 C15.33 22.99 15.66 23.98 16 25 C17.32 24.67 18.64 24.34 20 24 C19.25 26.4375 19.25 26.4375 18 29 C15.875 29.8125 15.875 29.8125 14 30 C13.9071875 30.8353125 13.9071875 30.8353125 13.8125 31.6875 C12.63473177 35.03960959 10.66564604 36.69785114 8 39 C5.1875 40.3125 5.1875 40.3125 3 41 C3 43.64 3 46.28 3 49 C2.34 49 1.68 49 1 49 C1 53.29 1 57.58 1 62 C0.67 62 0.34 62 0 62 C0 51.11 0 40.22 0 29 C-2.475 28.01 -2.475 28.01 -5 27 C-9.77323077 22.59637781 -11.66731363 18.09834435 -11.9921875 11.6875 C-11.99476562 11.130625 -11.99734375 10.57375 -12 10 C-11.01 9.67 -10.02 9.34 -9 9 C-8.89042969 9.59167969 -8.78085938 10.18335937 -8.66796875 10.79296875 C-7.44701349 16.87789214 -6.40311441 21.39792373 -1 25 C-0.67 16.75 -0.34 8.5 0 0 Z " fill="#205386" transform="translate(88,93)"/>
<path d="M0 0 C1.34888732 0.00015905 2.69778075 0.00584927 4.04663086 0.01586914 C5.10991859 0.01799156 5.10991859 0.01799156 6.19468689 0.02015686 C8.46699173 0.02577096 10.73919936 0.03832576 13.01147461 0.05102539 C14.54858257 0.05603858 16.08569206 0.0606018 17.62280273 0.06469727 C21.39823103 0.07574497 25.17358632 0.09301898 28.94897461 0.11352539 C30.1256343 4.11416835 31.12977366 8.01752063 31.94897461 12.11352539 C26.33897461 12.11352539 20.72897461 12.11352539 14.94897461 12.11352539 C14.61897461 10.46352539 14.28897461 8.81352539 13.94897461 7.11352539 C8.33897461 6.78352539 2.72897461 6.45352539 -3.05102539 6.11352539 C-3.38102539 4.46352539 -3.71102539 2.81352539 -4.05102539 1.11352539 C-3.05102539 0.11352539 -3.05102539 0.11352539 0 0 Z " fill="#53493B" transform="translate(82.051025390625,177.886474609375)"/>
<path d="M0 0 C0.83144531 0.49371094 1.66289063 0.98742187 2.51953125 1.49609375 C3.60621094 2.13675781 4.69289063 2.77742187 5.8125 3.4375 C6.89144531 4.07558594 7.97039062 4.71367187 9.08203125 5.37109375 C11.93180642 7.080767 11.93180642 7.080767 15 8 C15 12.62 15 17.24 15 22 C11.7 22 8.4 22 5 22 C0.95702061 15.38421555 0 7.66311757 0 0 Z " fill="#AED5E9" transform="translate(73,133)"/>
<path d="M0 0 C62.37 0.495 62.37 0.495 126 1 C126 1.33 126 1.66 126 2 C84.75 2.33 43.5 2.66 1 3 C0.67 2.01 0.34 1.02 0 0 Z " fill="#174A7F" transform="translate(151,187)"/>
<path d="M0 0 C1.54163175 3.0832635 1.29747535 5.60878099 1 9 C-1.07691798 11.38460953 -2.40556916 11.8959746 -5.5 12.4375 C-8.89834723 11.84278924 -10.01241034 10.79734842 -12 8 C-12.4669578 4.73129539 -12.65475278 2.90418241 -10.6875 0.1875 C-6.6839385 -2.62982106 -4.28726856 -1.77082832 0 0 Z " fill="#B0D7EA" transform="translate(203,88)"/>
<path d="M0 0 C0 2.31 0 4.62 0 7 C-2.76941606 7.83830973 -5.54035069 8.67082034 -8.3125 9.5 C-9.09818359 9.73847656 -9.88386719 9.97695312 -10.69335938 10.22265625 C-11.45068359 10.44824219 -12.20800781 10.67382812 -12.98828125 10.90625 C-13.68477783 11.11572266 -14.38127441 11.32519531 -15.09887695 11.54101562 C-17 12 -17 12 -20 12 C-20 10.35 -20 8.7 -20 7 C-19.11957031 6.74605469 -18.23914063 6.49210938 -17.33203125 6.23046875 C-16.17058594 5.88628906 -15.00914063 5.54210937 -13.8125 5.1875 C-12.66394531 4.85105469 -11.51539062 4.51460937 -10.33203125 4.16796875 C-6.88108787 2.95831802 -3.59767887 0 0 0 Z " fill="#AED6EA" transform="translate(111,135)"/>
<path d="M0 0 C2.875 -0.125 2.875 -0.125 6 0 C6.66 0.66 7.32 1.32 8 2 C7.67 2.86625 7.34 3.7325 7 4.625 C5.86091509 7.88273958 5.86091509 7.88273958 6 10.9375 C6 14.66717793 5.13346221 17.45793058 4 21 C3.01 20.67 2.02 20.34 1 20 C1 19.34 1 18.68 1 18 C1.66 18 2.32 18 3 18 C2.505 16.88625 2.01 15.7725 1.5 14.625 C-0.36706789 9.73380807 -0.28600529 5.1692808 0 0 Z " fill="#AED5E8" transform="translate(58,129)"/>
<path d="M0 0 C2.97 0 5.94 0 9 0 C9 2.97 9 5.94 9 9 C6.03 9 3.06 9 0 9 C0 6.03 0 3.06 0 0 Z " fill="#909090" transform="translate(1318,99)"/>
<path d="M0 0 C1.32 0.33 2.64 0.66 4 1 C2.68938409 5.23429756 1.05643741 9.07407404 -1 13 C-1.66 13 -2.32 13 -3 13 C-4.65 9.7 -6.3 6.4 -8 3 C-5.36 2.67 -2.72 2.34 0 2 C0 1.34 0 0.68 0 0 Z " fill="#5FA1D5" transform="translate(204,160)"/>
<path d="M0 0 C0 0.66 0 1.32 0 2 C0.99 2.33 1.98 2.66 3 3 C1.68 5.31 0.36 7.62 -1 10 C-2.98 10 -4.96 10 -7 10 C-6.39169139 3.55192878 -6.39169139 3.55192878 -4.625 1.0625 C-3 0 -3 0 0 0 Z " fill="#ABD2E6" transform="translate(43,145)"/>
<path d="M0 0 C0 1.98 0 3.96 0 6 C-3.3 6 -6.6 6 -10 6 C-10.33 4.68 -10.66 3.36 -11 2 C-3.375 0 -3.375 0 0 0 Z " fill="#61A5D9" transform="translate(88,149)"/>
<path d="M0 0 C3.70702541 1.43497758 3.70702541 1.43497758 4.875 3.6875 C5.05624637 7.04055779 4.0344779 9.83571466 3 13 C2.01 12.67 1.02 12.34 0 12 C0 11.34 0 10.68 0 10 C0.66 10 1.32 10 2 10 C1.77183594 9.44570312 1.54367188 8.89140625 1.30859375 8.3203125 C1.02113281 7.59585938 0.73367187 6.87140625 0.4375 6.125 C0.14746094 5.40570313 -0.14257812 4.68640625 -0.44140625 3.9453125 C-1 2 -1 2 0 0 Z " fill="#A1C9DF" transform="translate(59,137)"/>
<path d="M0 0 C0.33 0 0.66 0 1 0 C1.16808419 2.10405391 1.33441948 4.20824758 1.5 6.3125 C1.5928125 7.48425781 1.685625 8.65601563 1.78125 9.86328125 C1.92364989 11.905194 2 13.9531279 2 16 C-1.63 15.67 -5.26 15.34 -9 15 C-9 14.67 -9 14.34 -9 14 C-6.36 13.67 -3.72 13.34 -1 13 C-0.67 8.71 -0.34 4.42 0 0 Z " fill="#184C80" transform="translate(89,142)"/>
</svg>
